<svg width="189" height="189" viewBox="0 0 189 189" fill="none" xmlns="http://www.w3.org/2000/svg">
<path d="M130.794 95.5053C124.669 97.5755 117.823 95.897 112.596 92.0177M130.794 95.5053C130.794 95.5053 127.278 90.5495 126.071 86.9144C125.481 85.137 125.481 82.7671 129.613 82.7671C133.745 82.7671 139.361 87.985 141.359 85.7295M130.794 95.5053C135.954 93.7611 139.467 90.2212 141.359 85.7295M104.068 74.5309C98.0826 68.0116 89.5852 63.8991 80.026 63.8079C79.3322 63.8012 78.6433 63.8167 77.9599 63.8536M104.068 74.5309C104.664 75.1794 105.234 75.8517 105.778 76.5461M104.068 74.5309C104.518 67.3776 108.952 61.1511 115.445 58.5655M112.596 92.0177C112.901 93.8277 113.068 95.6856 113.084 97.5789C113.233 114.723 100.883 129.243 84.4534 131.607M112.596 92.0177C111.62 86.2379 109.226 80.946 105.778 76.5461M77.9599 63.8536C59.934 64.8267 45.7411 80.703 46.3776 99.0601C46.6709 107.518 49.9305 115.184 55.1492 120.982M77.9599 63.8536C77.9599 63.8536 67.3341 77.4348 68.2196 89.5806C68.5468 94.0685 72.0049 97.3791 76.4841 97.5789C89.7663 98.1715 89.4712 78.916 105.778 76.5461M55.1492 120.982C61.2812 127.795 70.1182 132.03 80.026 131.942C81.5296 131.929 83.0073 131.815 84.4534 131.607M55.1492 120.982C55.1492 120.982 57.4204 111.754 62.6115 108.836C69.9905 104.689 76.7792 106.062 80.9115 110.021C87.405 116.242 80.9115 119.797 84.4534 131.607M54.0518 87.5069L53.1664 92.8392M60.2502 89.5806L59.6599 92.8392M55.1492 99.0601L54.0518 104.096M93.6034 114.168V118.908M99.8018 110.021V114.168M115.445 58.5655C117.519 57.7397 119.803 57.2853 122.234 57.2907C125.206 57.2973 128.126 58.0923 130.794 59.4054M115.445 58.5655C119.778 59.6077 115.74 69.7911 119.873 74.5309C121.852 76.8013 124.754 77.1177 126.957 75.0649C131.089 71.2139 128.06 59.9496 130.794 59.4054M130.794 59.4054C137.353 62.6346 142.383 68.9969 142.895 74.4725C143.274 78.5199 142.765 82.3881 141.359 85.7295M152.34 82.7671C153.846 87.2716 153.877 89.6988 151.455 93.7279M160.015 81.2859C161.189 84.9177 161.595 86.9401 160.9 90.4693M39.5889 66.4741C37.2249 69.6871 36.9058 71.5873 37.2277 75.0649M30.1438 71.5101C27.8264 74.8017 27.3401 76.9272 28.0777 81.2859" stroke="#FFF8ED" stroke-width="2.95312" stroke-linecap="round"/>
</svg>
