<svg width="105" height="104" viewBox="0 0 105 104" fill="none" xmlns="http://www.w3.org/2000/svg">
<path d="M35.9009 54.2353C32.3454 54.9519 29.1265 55.2097 26.4871 54.8602C24.4446 54.5897 22.645 54.0718 21.0767 53.3457M35.9009 54.2353C45.7146 28.0421 84.0829 16.2233 84.5742 25.6447M35.9009 54.2353C38.6089 53.6895 41.5121 52.8776 44.5032 51.8651M84.5742 25.6447C84.5948 26.0399 84.5487 26.4726 84.4311 26.9431C84.1982 27.5464 83.8184 28.1988 83.3073 28.8908M84.5742 25.6447C85.3101 30.8993 85.5217 33.9153 84.4437 39.698C84.4355 39.7419 84.4191 39.7832 84.3938 39.82C77.9743 49.1756 54.951 59.2888 40.5828 62.1641M33.4663 62.9636C31.8398 62.9339 30.5607 62.6784 29.7332 62.1641C25.5049 59.5356 22.6294 56.7462 21.0767 53.3457M33.4663 62.9636C35.4042 62.999 37.8353 62.7139 40.5828 62.1641M33.4663 62.9636C31.8763 69.2826 33.1706 74.2067 36.2898 77.8046M40.5828 62.1641C37.3385 68.4781 36.0787 73.6461 36.2898 77.8046M83.3073 28.8908C78.225 35.7712 60.1598 46.5655 44.5032 51.8651M83.3073 28.8908C72.7449 26.2939 53.5219 38.0285 44.5032 51.8651M22.9162 24.0216L22.1047 25.6447M25.6755 19.3147L24.7016 21.1M22.1047 20.6131L20.9685 22.5608M29.0839 57.944L30.2201 59.4048M32.817 58.431L33.4663 59.8917M82.1588 36.0324L80.2111 37.3309M76.9649 39.7655L75.1795 41.2263M81.1849 39.7655L79.3995 41.2263M76.9649 83.7511L75.1795 84.5626M73.881 86.348L71.6087 87.3219M80.014 82.2903L80.1679 80.1352C80.1864 79.8768 79.9104 79.7006 79.683 79.8247C65.5079 87.5599 44.5304 87.3102 36.2898 77.8046M80.014 82.2903L79.7363 86.1783C79.7287 86.2846 79.6712 86.3794 79.5792 86.4332C65.0555 94.9106 37.1934 95.608 36.2898 77.8046M80.014 82.2903C81.7423 81.4648 82.9161 80.7518 83.8182 79.8557M85.7296 76.9341C85.3894 77.6912 85.0416 78.3259 84.6443 78.8818M83.8182 79.8557C83.8182 79.8557 85.0782 82.9796 86.8657 83.4265C88.1642 83.7511 90.2742 82.9395 90.4365 80.8295C90.5269 79.654 90.2742 78.7195 89.3003 78.2326C87.6583 77.4116 84.6443 78.8818 84.6443 78.8818M83.8182 79.8557C84.1206 79.5553 84.3924 79.2344 84.6443 78.8818M79.3995 56.6456C79.3856 57.6822 79.0385 58.5115 77.6141 61.5804M76.9649 57.944C77.5471 59.1586 77.8081 59.8175 80.014 61.5804M17.56 71.4156V75.798M14.6385 74.8241C16.9633 74.1611 18.242 73.7224 20.3193 72.3895M21.0767 53.3457C7.04436 46.8485 11.5262 23.679 26.196 11.917C26.3492 11.7941 26.5756 11.8367 26.6752 12.006L29.6439 17.0528C29.6996 17.1475 29.7026 17.2661 29.6536 17.3644C20.6337 35.4741 17.6687 45.8818 21.0767 53.3457ZM92.2462 61.5804C90.4003 62.6308 90.2018 65.2486 90.123 66.9809C90.1079 67.3145 89.6989 67.3918 89.625 67.0661C88.9989 64.3069 87.5149 62.6127 85.3364 62.6127C85.0539 62.6127 84.9815 61.9798 85.2426 61.8722C88.0019 60.7361 87.8396 58.1392 88.3197 56.0357C88.3921 55.7186 88.8956 55.7208 88.9989 56.0291C89.4871 57.4853 89.625 59.7622 92.2219 60.5738C92.5464 60.6752 92.5416 61.4123 92.2462 61.5804ZM28.6102 79.1622C26.7644 80.2125 26.5658 82.8304 26.4871 84.5626C26.4719 84.8963 26.0629 84.9736 25.989 84.6479C25.363 81.8886 23.879 80.1944 21.7004 80.1944C21.418 80.1944 21.3455 79.5615 21.6067 79.454C24.3659 78.3178 24.2036 75.7209 24.6837 73.6174C24.7561 73.3003 25.2596 73.3025 25.363 73.6109C25.8511 75.067 25.989 77.344 28.5859 78.1555C28.9104 78.2569 28.9057 78.994 28.6102 79.1622Z" stroke="#FFF8ED" stroke-width="1.62308" stroke-linecap="round"/>
</svg>
