<svg width="1167" height="1472" viewBox="0 0 1167 1472" fill="none" xmlns="http://www.w3.org/2000/svg">
<path d="M690.361 1283.15L690.983 1286.71C691.539 1289.9 694.396 1292.42 698.084 1292.99L702.208 1293.63L698.064 1294.16C694.359 1294.64 691.42 1297.1 690.758 1300.27L690.018 1303.82L689.396 1300.25C688.84 1297.07 685.984 1294.54 682.295 1293.97L678.172 1293.33L682.315 1292.8C686.021 1292.32 688.96 1289.87 689.621 1286.69L690.361 1283.15Z" fill="#FF9A5B"/>
<path d="M916.361 937.148L916.983 940.71C917.539 943.897 920.396 946.424 924.084 946.993L928.208 947.63L924.064 948.164C920.359 948.643 917.42 951.099 916.758 954.27L916.018 957.816L915.396 954.254C914.84 951.067 911.984 948.54 908.295 947.971L904.172 947.334L908.315 946.8C912.021 946.321 914.96 943.865 915.621 940.694L916.361 937.148Z" fill="#FF9A5B"/>
<path d="M107.361 1251.15L107.983 1254.71C108.539 1257.9 111.396 1260.42 115.084 1260.99L119.208 1261.63L115.064 1262.16C111.359 1262.64 108.42 1265.1 107.758 1268.27L107.018 1271.82L106.396 1268.25C105.84 1265.07 102.984 1262.54 99.2954 1261.97L95.1716 1261.33L99.3149 1260.8C103.021 1260.32 105.96 1257.87 106.621 1254.69L107.361 1251.15Z" fill="#FF9A5B"/>
<path d="M187.361 997.148L187.983 1000.71C188.539 1003.9 191.396 1006.42 195.084 1006.99L199.208 1007.63L195.064 1008.16C191.359 1008.64 188.42 1011.1 187.758 1014.27L187.018 1017.82L186.396 1014.25C185.84 1011.07 182.984 1008.54 179.295 1007.97L175.172 1007.33L179.315 1006.8C183.021 1006.32 185.96 1003.87 186.621 1000.69L187.361 997.148Z" fill="#FF9A5B"/>
<path d="M779.361 513.148L779.983 516.71C780.539 519.897 783.396 522.424 787.084 522.993L791.208 523.63L787.064 524.164C783.359 524.643 780.42 527.099 779.758 530.27L779.018 533.816L778.396 530.254C777.84 527.067 774.984 524.54 771.295 523.971L767.172 523.334L771.315 522.8C775.021 522.321 777.96 519.865 778.621 516.694L779.361 513.148Z" fill="#FF9A5B"/>
<path d="M871.361 473.148L871.983 476.71C872.539 479.897 875.396 482.424 879.084 482.993L883.208 483.63L879.064 484.164C875.359 484.643 872.42 487.099 871.758 490.27L871.018 493.816L870.396 490.254C869.84 487.067 866.984 484.54 863.295 483.971L859.172 483.334L863.315 482.8C867.021 482.321 869.96 479.865 870.621 476.694L871.361 473.148Z" fill="#FF9A5B"/>
<path d="M1138.36 326.148L1138.98 329.71C1139.54 332.897 1142.4 335.424 1146.08 335.993L1150.21 336.63L1146.06 337.164C1142.36 337.643 1139.42 340.099 1138.76 343.27L1138.02 346.816L1137.4 343.254C1136.84 340.067 1133.98 337.54 1130.3 336.971L1126.17 336.334L1130.31 335.8C1134.02 335.321 1136.96 332.865 1137.62 329.694L1138.36 326.148Z" fill="#FF9A5B"/>
<path d="M417.361 279.148L417.983 282.71C418.539 285.897 421.396 288.424 425.084 288.993L429.208 289.63L425.064 290.164C421.359 290.643 418.42 293.099 417.758 296.27L417.018 299.816L416.396 296.254C415.84 293.067 412.984 290.54 409.295 289.971L405.172 289.334L409.315 288.8C413.021 288.321 415.96 285.865 416.621 282.694L417.361 279.148Z" fill="#FF9A5B"/>
<path d="M253.361 185.148L253.983 188.71C254.539 191.897 257.396 194.424 261.084 194.993L265.208 195.63L261.064 196.164C257.359 196.643 254.42 199.099 253.758 202.27L253.018 205.816L252.396 202.254C251.84 199.067 248.984 196.54 245.295 195.971L241.172 195.334L245.315 194.8C249.021 194.321 251.96 191.865 252.621 188.694L253.361 185.148Z" fill="#FF9A5B"/>
<path d="M779.361 153.148L779.983 156.71C780.539 159.897 783.396 162.424 787.084 162.993L791.208 163.63L787.064 164.164C783.359 164.643 780.42 167.099 779.758 170.27L779.018 173.816L778.396 170.254C777.84 167.067 774.984 164.54 771.295 163.971L767.172 163.334L771.315 162.8C775.021 162.321 777.96 159.865 778.621 156.694L779.361 153.148Z" fill="#FF9A5B"/>
<path d="M12.3614 761.148L12.9832 764.71C13.5393 767.897 16.3956 770.424 20.0839 770.993L24.2078 771.63L20.0645 772.164C16.3587 772.643 13.4197 775.099 12.7579 778.27L12.018 781.816L11.3962 778.254C10.84 775.067 7.98376 772.54 4.2954 771.971L0.171574 771.334L4.31486 770.8C8.02062 770.321 10.9597 767.865 11.6214 764.694L12.3614 761.148Z" fill="#FF9A5B"/>
<path d="M1073.36 584.148L1073.98 587.71C1074.54 590.897 1077.4 593.424 1081.08 593.993L1085.21 594.63L1081.06 595.164C1077.36 595.643 1074.42 598.099 1073.76 601.27L1073.02 604.816L1072.4 601.254C1071.84 598.067 1068.98 595.54 1065.3 594.971L1061.17 594.334L1065.31 593.8C1069.02 593.321 1071.96 590.865 1072.62 587.694L1073.36 584.148Z" fill="#FF9A5B"/>
<path d="M436.361 651.148L436.983 654.71C437.539 657.897 440.396 660.424 444.084 660.993L448.208 661.63L444.064 662.164C440.359 662.643 437.42 665.099 436.758 668.27L436.018 671.816L435.396 668.254C434.84 665.067 431.984 662.54 428.295 661.971L424.172 661.334L428.315 660.8C432.021 660.321 434.96 657.865 435.621 654.694L436.361 651.148Z" fill="#FF9A5B"/>
<path d="M460.361 261.148L460.983 264.71C461.539 267.897 464.396 270.424 468.084 270.993L472.208 271.63L468.064 272.164C464.359 272.643 461.42 275.099 460.758 278.27L460.018 281.816L459.396 278.254C458.84 275.067 455.984 272.54 452.295 271.971L448.172 271.334L452.315 270.8C456.021 270.321 458.96 267.865 459.621 264.694L460.361 261.148Z" fill="#FF9A5B"/>
<path d="M118.361 455.148L118.983 458.71C119.539 461.897 122.396 464.424 126.084 464.993L130.208 465.63L126.064 466.164C122.359 466.643 119.42 469.099 118.758 472.27L118.018 475.816L117.396 472.254C116.84 469.067 113.984 466.54 110.295 465.971L106.172 465.334L110.315 464.8C114.021 464.321 116.96 461.865 117.621 458.694L118.361 455.148Z" fill="#FF9A5B"/>
<path d="M36.3614 368.148L36.9832 371.71C37.5393 374.897 40.3956 377.424 44.0839 377.993L48.2078 378.63L44.0645 379.164C40.3587 379.643 37.4197 382.099 36.7579 385.27L36.018 388.816L35.3962 385.254C34.84 382.067 31.9838 379.54 28.2954 378.971L24.1716 378.334L28.3149 377.8C32.0206 377.321 34.9597 374.865 35.6214 371.694L36.3614 368.148Z" fill="#FF9A5B"/>
<path d="M1105.36 46.1476L1105.98 49.7105C1106.54 52.8971 1109.4 55.4244 1113.08 55.9934L1117.21 56.6297L1113.06 57.1644C1109.36 57.6426 1106.42 60.0987 1105.76 63.2704L1105.02 66.8165L1104.4 63.2536C1103.84 60.067 1100.98 57.5397 1097.3 56.9707L1093.17 56.3344L1097.31 55.7997C1101.02 55.3215 1103.96 52.8654 1104.62 49.6937L1105.36 46.1476Z" fill="#FF9A5B"/>
<path d="M815.361 396.148L815.983 399.71C816.539 402.897 819.396 405.424 823.084 405.993L827.208 406.63L823.064 407.164C819.359 407.643 816.42 410.099 815.758 413.27L815.018 416.816L814.396 413.254C813.84 410.067 810.984 407.54 807.295 406.971L803.172 406.334L807.315 405.8C811.021 405.321 813.96 402.865 814.621 399.694L815.361 396.148Z" fill="#FF9A5B"/>
<path d="M163.361 1304.15L163.983 1307.71C164.539 1310.9 167.396 1313.42 171.084 1313.99L175.208 1314.63L171.064 1315.16C167.359 1315.64 164.42 1318.1 163.758 1321.27L163.018 1324.82L162.396 1321.25C161.84 1318.07 158.984 1315.54 155.295 1314.97L151.172 1314.33L155.315 1313.8C159.021 1313.32 161.96 1310.87 162.621 1307.69L163.361 1304.15Z" fill="#FF9A5B"/>
<path d="M324.361 1401.15L324.983 1404.71C325.539 1407.9 328.396 1410.42 332.084 1410.99L336.208 1411.63L332.064 1412.16C328.359 1412.64 325.42 1415.1 324.758 1418.27L324.018 1421.82L323.396 1418.25C322.84 1415.07 319.984 1412.54 316.295 1411.97L312.172 1411.33L316.315 1410.8C320.021 1410.32 322.96 1407.87 323.621 1404.69L324.361 1401.15Z" fill="#FF9A5B"/>
<path d="M131.361 1451.15L131.983 1454.71C132.539 1457.9 135.396 1460.42 139.084 1460.99L143.208 1461.63L139.064 1462.16C135.359 1462.64 132.42 1465.1 131.758 1468.27L131.018 1471.82L130.396 1468.25C129.84 1465.07 126.984 1462.54 123.295 1461.97L119.172 1461.33L123.315 1460.8C127.021 1460.32 129.96 1457.87 130.621 1454.69L131.361 1451.15Z" fill="#FF9A5B"/>
<path fill-rule="evenodd" clip-rule="evenodd" d="M719 1307.08L717.916 1313.54C716.462 1322.21 709.542 1329.01 700.713 1330.44L694.132 1331.5L700.713 1332.56C709.542 1333.99 716.462 1340.79 717.916 1349.46L719 1355.92L720.084 1349.46C721.538 1340.79 728.458 1333.99 737.287 1332.56L743.868 1331.5L737.287 1330.44C728.458 1329.01 721.538 1322.21 720.084 1313.54L719 1307.08ZM716.911 1313.38L718.498 1303.92L719.502 1303.92L721.089 1313.38C722.472 1321.63 729.054 1328.09 737.452 1329.45L747.083 1331.01V1331.99L737.452 1333.55C729.054 1334.91 722.472 1341.37 721.089 1349.62L719.502 1359.08H718.498L716.911 1349.62C715.528 1341.37 708.946 1334.91 700.548 1333.55L690.917 1331.99L690.917 1331.01L700.548 1329.45C708.946 1328.09 715.528 1321.63 716.911 1313.38Z" fill="#A38CD6"/>
<path fill-rule="evenodd" clip-rule="evenodd" d="M855 421.076L853.916 427.54C852.462 436.211 845.542 443.007 836.713 444.435L830.132 445.5L836.713 446.565C845.542 447.993 852.462 454.789 853.916 463.46L855 469.924L856.084 463.46C857.538 454.789 864.458 447.993 873.287 446.565L879.868 445.5L873.287 444.435C864.458 443.007 857.538 436.211 856.084 427.54L855 421.076ZM852.911 427.377L854.498 417.919L855.502 417.919L857.089 427.377C858.472 435.625 865.054 442.09 873.452 443.449L883.083 445.007V445.993L873.452 447.551C865.054 448.91 858.472 455.375 857.089 463.623L855.502 473.081H854.498L852.911 463.623C851.528 455.375 844.946 448.91 836.548 447.551L826.917 445.993L826.917 445.007L836.548 443.449C844.946 442.09 851.528 435.625 852.911 427.377Z" fill="#A38CD6"/>
<path fill-rule="evenodd" clip-rule="evenodd" d="M985 1010.08L983.916 1016.54C982.462 1025.21 975.542 1032.01 966.713 1033.44L960.132 1034.5L966.713 1035.56C975.542 1036.99 982.462 1043.79 983.916 1052.46L985 1058.92L986.084 1052.46C987.538 1043.79 994.458 1036.99 1003.29 1035.56L1009.87 1034.5L1003.29 1033.44C994.458 1032.01 987.538 1025.21 986.084 1016.54L985 1010.08ZM982.911 1016.38L984.498 1006.92L985.502 1006.92L987.089 1016.38C988.472 1024.63 995.054 1031.09 1003.45 1032.45L1013.08 1034.01V1034.99L1003.45 1036.55C995.054 1037.91 988.472 1044.37 987.089 1052.62L985.502 1062.08H984.498L982.911 1052.62C981.528 1044.37 974.946 1037.91 966.548 1036.55L956.917 1034.99L956.917 1034.01L966.548 1032.45C974.946 1031.09 981.528 1024.63 982.911 1016.38Z" fill="#A38CD6"/>
<path fill-rule="evenodd" clip-rule="evenodd" d="M1138 4.07641L1136.92 10.5397C1135.46 19.2109 1128.54 26.0071 1119.71 27.4354L1113.13 28.5L1119.71 29.5646C1128.54 30.9928 1135.46 37.7891 1136.92 46.4602L1138 52.9235L1139.08 46.4602C1140.54 37.7891 1147.46 30.9928 1156.29 29.5646L1162.87 28.5L1156.29 27.4354C1147.46 26.0071 1140.54 19.2109 1139.08 10.5397L1138 4.07641ZM1135.91 10.3772L1137.5 0.918701L1138.5 0.918701L1140.09 10.3772C1141.47 18.6254 1148.05 25.09 1156.45 26.4487L1166.08 28.0066V28.9933L1156.45 30.5513C1148.05 31.9099 1141.47 38.3746 1140.09 46.6228L1138.5 56.0812H1137.5L1135.91 46.6228C1134.53 38.3746 1127.95 31.9099 1119.55 30.5513L1109.92 28.9933L1109.92 28.0066L1119.55 26.4487C1127.95 25.09 1134.53 18.6253 1135.91 10.3772Z" fill="#A38CD6"/>
<path fill-rule="evenodd" clip-rule="evenodd" d="M118 371.076L116.916 377.54C115.462 386.211 108.542 393.007 99.7132 394.435L93.1324 395.5L99.7132 396.565C108.542 397.993 115.462 404.789 116.916 413.46L118 419.924L119.084 413.46C120.538 404.789 127.458 397.993 136.287 396.565L142.868 395.5L136.287 394.435C127.458 393.007 120.538 386.211 119.084 377.54L118 371.076ZM115.911 377.377L117.498 367.919L118.502 367.919L120.089 377.377C121.472 385.625 128.054 392.09 136.452 393.449L146.083 395.007V395.993L136.452 397.551C128.054 398.91 121.472 405.375 120.089 413.623L118.502 423.081H117.498L115.911 413.623C114.528 405.375 107.946 398.91 99.5477 397.551L89.9172 395.993L89.9172 395.007L99.5477 393.449C107.946 392.09 114.528 385.625 115.911 377.377Z" fill="#A38CD6"/>
<path fill-rule="evenodd" clip-rule="evenodd" d="M71 1307.08L69.916 1313.54C68.4618 1322.21 61.542 1329.01 52.7132 1330.44L46.1324 1331.5L52.7132 1332.56C61.542 1333.99 68.4618 1340.79 69.916 1349.46L71 1355.92L72.0839 1349.46C73.5382 1340.79 80.458 1333.99 89.2868 1332.56L95.8676 1331.5L89.2868 1330.44C80.458 1329.01 73.5382 1322.21 72.0839 1313.54L71 1307.08ZM68.9114 1313.38L70.4977 1303.92L71.5023 1303.92L73.0886 1313.38C74.4719 1321.63 81.0541 1328.09 89.4523 1329.45L99.0827 1331.01V1331.99L89.4523 1333.55C81.0541 1334.91 74.4719 1341.37 73.0886 1349.62L71.5023 1359.08H70.4977L68.9114 1349.62C67.5281 1341.37 60.9458 1334.91 52.5477 1333.55L42.9172 1331.99L42.9172 1331.01L52.5477 1329.45C60.9458 1328.09 67.5281 1321.63 68.9114 1313.38Z" fill="#A38CD6"/>
</svg>
