<svg width="110" height="109" viewBox="0 0 110 109" fill="none" xmlns="http://www.w3.org/2000/svg">
<path d="M32.9866 21.6887L20.2784 28.1275M32.9866 21.6887L90.5971 34.5664M32.9866 21.6887V31.1354M20.2784 28.1275L20.0794 37.9552M20.2784 28.1275L32.9866 31.1354M77.55 86.9242L19.6804 70.0526C19.5333 70.0097 19.4333 69.8735 19.4364 69.7204L19.6678 58.2884M77.55 86.9242L90.4599 77.3676C90.5462 77.3037 90.5971 77.2026 90.5971 77.0952V66.5911M77.55 86.9242V74.5549M90.5971 34.5664L77.55 41.683M90.5971 34.5664V44.3941M77.55 41.683V51.6801M77.55 41.683L32.9866 31.1354M77.55 51.6801L90.5971 44.3941M77.55 51.6801V74.5549M77.55 51.6801L20.0794 37.9552M90.5971 44.3941V66.5911M77.55 74.5549L90.5971 66.5911M77.55 74.5549L49.6777 66.722M20.0794 37.9552L19.6678 58.2884M19.6678 58.2884L31.1317 61.51M55.0141 46.2982C51.861 53.1528 46.9807 62.5275 43.9495 65.1122M38.9171 42.454C36.14 48.985 34.2272 58.562 34.8443 62.5534M59.5891 47.3907C57.2121 54.5255 52.848 63.7369 49.6777 66.722M31.1317 61.51C32.9193 67.8807 38.0059 70.1803 43.9495 65.1122M31.1317 61.51C29.8092 56.7971 30.5565 49.0743 33.8338 41.24M34.8443 62.5534L43.9495 65.1122M34.8443 62.5534C36.1092 70.7351 43.0466 72.9656 49.6777 66.722M22.6506 54.0523V55.5773M22.1422 65.9133V67.7772M74.5001 55.2384V56.9328M71.6195 58.6273V60.4911M74.5001 60.4911V62.1856M86.7 74.216L88.2249 73.3688M85.6833 77.6049L87.0388 76.9271M44.6187 33.8886L44.6687 31.7505C44.6736 31.5399 44.8674 31.3848 45.0739 31.4261L48.6136 32.1341C48.7843 32.1682 48.9013 32.3261 48.8844 32.4993L48.6556 34.844M60.6058 37.6725L60.8954 35.4519C60.9216 35.2509 61.1171 35.1178 61.3137 35.1669L65.3952 36.1873C65.5625 36.2291 65.6718 36.39 65.6489 36.561L65.3502 38.7954" stroke="#FFF8ED" stroke-width="1.69443" stroke-linecap="round"/>
</svg>
