<svg width="113" height="112" viewBox="0 0 113 112" fill="none" xmlns="http://www.w3.org/2000/svg">
<path d="M33.3371 24.0652C36.2449 21.9085 45.4274 21.6004 48.1821 24.0652M33.3371 24.0652V29.9194C36.8571 32.0761 44.8353 32.0744 48.1821 30.2275V24.0652M33.3371 24.0652C37.4692 26.068 44.8788 26.3094 48.1821 24.0652M15.1783 52.1034C15.6337 48.2492 16.2248 44.8448 16.9617 42.0897C17.5798 39.7789 24.6851 33.8117 31.1946 31.1518C34.7145 34.2329 44.8152 35.4654 50.7838 31.768C56.3064 35.2625 58.5001 37.5541 61.1906 42.0897C63.8811 46.6254 62.2619 99.0902 62.2619 99.0902C53.6915 105.252 24.6137 105.715 14.8192 98.6281C14.4794 94.1052 14.2382 89.3698 14.1048 84.6091M15.1783 52.1034C20.9132 54.2033 27.1599 54.6385 41.7543 54.5682V87.3821C39.3532 88.5357 35.7845 89.0036 31.9596 88.9537M15.1783 52.1034C14.3826 58.8394 14.0018 66.949 13.9836 75.3657M14.1048 84.6091C14.0182 81.5215 13.977 78.4234 13.9836 75.3657M14.1048 84.6091C17.3215 87.0872 25.0578 88.8636 31.9596 88.9537M50.7838 38.0843C51.8842 38.6225 52.3691 39.2026 53.2324 40.2411M50.7838 42.0897C51.6387 43.3175 52.1963 43.7084 53.2324 44.2465M57.6705 89.3848C57.9283 90.1307 57.9789 90.6717 57.6705 92.1577M54.1506 96.3172C55.3142 96.4177 55.8713 96.0391 56.9053 95.547M18.1859 92.928C18.0106 93.68 18.0237 94.2262 18.1859 95.547M13.9836 75.3657C16.6519 74.4695 17.7552 73.3671 19.1042 70.436M19.1042 70.436C19.1042 70.436 20.1214 72.2244 21.2468 72.5927C22.0669 72.8612 23.4251 69.3585 23.8109 67.5089M19.1042 70.436C19.1042 70.436 17.9963 69.0864 18.7981 68.2792C19.2572 67.817 22.9302 65.5737 23.8485 66.4305C23.9561 66.531 23.9291 66.9424 23.8109 67.5089M23.8109 67.5089C23.8109 67.5089 29.8171 67.2008 30.4292 67.5089C31.0414 67.817 30.2762 70.436 31.0414 70.7441C31.405 70.8905 36.3648 70.4479 36.2448 71.0522C34.7144 78.755 30.3572 76.7522 30.4292 77.8306C30.5012 78.909 31.0309 84.6197 31.9596 88.9537M26.6032 71.0522V71.9765M74.5051 56.4169C77.4128 54.2601 85.8301 53.6439 88.5848 56.1088M74.5051 56.4169V60.5764C78.6372 63.0413 84.9119 62.8872 88.5848 60.5764V56.1088M74.5051 56.4169C78.6372 58.4196 85.2815 58.353 88.5848 56.1088M72.3625 67.0467C71.7909 67.6544 71.5001 68.0121 71.1382 68.7414M73.2807 70.7441L72.3625 71.6684M93.9413 93.5442C94.3613 94.9264 94.456 95.4692 94.5534 96.3172M89.6561 97.2416C90.6558 97.3985 91.1396 97.4594 91.9518 97.5497M70.8321 19.9056C71.6725 21.1691 71.7103 21.8774 70.8321 23.1408M72.3625 62.8872C75.8824 65.9684 85.0649 66.2765 91.0335 62.5791C91.7987 62.1051 95.9847 66.0135 97.4612 69.3576C98.0734 70.7441 99.2116 98.0118 98.0734 99.0902C95.4717 101.555 74.199 104.482 67.3121 98.6281C65.6258 97.1946 67.0061 70.59 67.3121 69.3576C68.0864 66.24 72.0105 62.5791 72.3625 62.8872ZM68.5365 14.2057C64.5633 14.1636 61.1906 17.2925 61.1906 21.2922C61.1906 25.292 64.5633 28.4208 68.5365 28.3788C72.4668 28.3372 75.7294 25.2488 75.7294 21.2922C75.7294 17.3357 72.4668 14.2473 68.5365 14.2057ZM83.5345 8.04337C81.2113 7.9567 79.2494 9.86271 79.2493 12.2029C79.2493 14.458 80.9897 16.2788 83.2284 16.3624C85.5516 16.449 87.5135 14.543 87.5136 12.2029C87.5136 9.94778 85.7732 8.12689 83.5345 8.04337ZM84.577 25.2976C81.7103 25.2715 79.1601 27.497 79.2493 30.3814C79.3361 33.1845 81.7912 35.1824 84.577 35.1572C87.3351 35.1322 89.7232 33.1566 89.8092 30.3814C89.8977 27.5241 87.4168 25.3234 84.577 25.2976ZM92.2578 76.4062V87.5478C92.2578 87.7188 92.1316 87.8652 91.9629 87.8928C84.3877 89.129 80.0529 89.0655 72.6388 87.443C72.4787 87.4079 72.3625 87.2654 72.3625 87.1015V76.8469C72.3625 76.6343 72.5532 76.4713 72.7638 76.5005C80.2245 77.5366 84.5471 77.4557 91.8389 76.0628C92.0549 76.0215 92.2578 76.1863 92.2578 76.4062Z" stroke="#FFF8ED" stroke-width="1.74794" stroke-linecap="round"/>
</svg>
