<svg width="133" height="134" viewBox="0 0 133 134" fill="none" xmlns="http://www.w3.org/2000/svg">
<ellipse cx="66.7866" cy="67.2418" rx="66.1511" ry="66.3546" fill="#664D9F"/>
<g clip-path="url(#clip0_1876_380)">
<path d="M60.01 30.7763C61.8719 31.4975 63.6921 32.3653 65.6033 32.9057C68.2551 33.6517 70.8197 33.1341 73.1647 31.7259C75.036 30.6032 76.7824 30.6583 78.5989 31.8477C82.1977 34.2035 85.8534 36.4794 89.4446 38.8486C90.0869 39.2761 90.6124 39.8584 90.9732 40.5422C94.1364 46.8505 97.2428 53.1873 100.364 59.5165C101.08 60.9665 100.84 61.7486 99.4172 62.5612C96.1972 64.4108 92.9867 66.2643 89.7572 68.093C89.5707 68.1784 89.4156 68.3203 89.3137 68.4988C89.2118 68.6773 89.1681 68.8835 89.1889 69.0883C89.2054 74.5726 89.2085 80.0562 89.1984 85.5392C89.215 85.7996 89.2048 86.061 89.1681 86.3194C89.0488 86.9017 88.6851 87.25 88.0752 87.2195C87.4653 87.1891 87.1281 86.8389 87.0694 86.2338C87.0505 86.0206 87.0562 85.8075 87.0562 85.5925V55.6154C87.0562 55.4727 87.0562 55.33 87.0562 55.1873C87.0808 54.3918 87.4558 53.9561 88.1169 53.958C88.7779 53.9599 89.1889 54.4128 89.1927 55.1892C89.2041 58.1102 89.1927 61.0293 89.1927 63.9427V65.9427L98.4607 60.6145C98.3754 60.4013 98.311 60.2072 98.2201 60.0264C95.1718 53.8457 92.121 47.6662 89.0677 41.488C88.9618 41.2274 88.7925 40.9978 88.5752 40.8201C85.7625 38.9913 82.9327 37.1854 80.0649 35.3453C79.9854 35.547 79.9096 35.7069 79.8528 35.8762C77.3336 43.5241 68.9578 47.1493 61.709 43.7278C61.4533 43.606 61.2014 43.4746 60.9513 43.3281C60.3831 42.978 60.1937 42.4147 60.4532 41.88C60.7127 41.3453 61.3131 41.1987 61.9685 41.4404C63.2698 41.9143 64.5597 42.5137 65.9064 42.7401C71.2099 43.6345 76.6896 39.9029 77.9719 34.6526C78.0685 34.2587 78.0326 33.9809 77.6329 33.7849C77.2806 33.6117 76.9567 33.3795 76.54 33.1245C76.0437 35.9371 74.7084 38.1198 72.4013 39.646C70.7167 40.7788 68.6994 41.3041 66.6792 41.1359C62.8322 40.8486 59.1027 38.1179 58.1859 33.1969C57.7127 33.4605 57.2583 33.7568 56.8259 34.0836C56.7047 34.1883 56.7464 34.567 56.807 34.7954C57.2033 36.2656 57.9043 37.6352 58.864 38.8143C59.2107 39.2501 59.3376 39.783 58.9436 40.1693C58.6746 40.4338 58.1708 40.5499 57.7711 40.5499C57.54 40.5499 57.2275 40.2435 57.0892 39.998C56.3316 38.6659 55.6251 37.3072 54.9053 35.9542C54.83 35.7845 54.7667 35.6096 54.7159 35.4309C54.5113 35.5413 54.3371 35.6212 54.1609 35.7297C51.5634 37.3726 48.9697 39.0218 46.3799 40.6773C46.1037 40.8503 45.8761 41.0914 45.7188 41.3776C42.6162 47.637 39.5225 53.9015 36.4376 60.1711C36.3751 60.2948 36.3334 60.428 36.2633 60.6068L45.5332 65.9351V65.0597C45.5332 61.807 45.5332 58.5548 45.5332 55.3033C45.5332 54.4413 45.8969 53.9713 46.5598 53.9523C47.164 53.9408 47.5504 54.2396 47.647 54.8447C47.6777 55.1284 47.6866 55.4141 47.6735 55.6992V101.509H87.0202V91.1206C87.0202 90.9074 87.0202 90.6924 87.0202 90.4811C87.0656 89.8265 87.4369 89.4421 88.0297 89.4212C88.1724 89.4098 88.3158 89.4284 88.4509 89.4758C88.586 89.5232 88.7098 89.5984 88.8144 89.6965C88.919 89.7946 89.0021 89.9135 89.0584 90.0456C89.1148 90.1778 89.1431 90.3202 89.1416 90.464C89.1814 91.2918 89.1548 92.1253 89.1567 92.955C89.1567 95.8284 89.1567 98.7006 89.1567 101.571C89.1567 103.056 88.5165 103.697 87.0429 103.697H47.6716C46.2075 103.697 45.5673 103.05 45.5673 101.562C45.5673 90.7609 45.5711 79.9604 45.5786 69.1606C45.5786 68.622 45.4366 68.3214 44.9517 68.0493C41.7317 66.2396 38.5514 64.3899 35.3542 62.5536C33.9298 61.7353 33.6817 60.9627 34.4071 59.5088C37.5286 53.1797 40.6489 46.8498 43.7679 40.5194C44.105 39.8106 44.6401 39.2155 45.3078 38.8067C48.632 36.7135 51.9372 34.5936 55.2595 32.527C56.2918 31.8838 57.3923 31.3491 58.4606 30.7649L60.01 30.7763ZM60.5119 33.3187C60.8225 36.5042 64.2433 39.1797 67.7096 39.018C70.8197 38.8715 74.0947 36.1636 74.125 33.6783C69.526 36.2244 65.0029 35.665 60.5119 33.3187Z" fill="#FFF8ED"/>
</g>
<defs>
<clipPath id="clip0_1876_380">
<rect width="66.747" height="72.9303" fill="white" transform="translate(34.009 30.7764)"/>
</clipPath>
</defs>
</svg>
