<svg width="647" height="707" viewBox="0 0 647 707" fill="none" xmlns="http://www.w3.org/2000/svg">
<path d="M0 89.3395C0 41.9196 41.4825 5.1834 88.5545 10.9173L576.929 70.4068C616.573 75.2358 646.379 108.892 646.379 148.829V616.921C646.379 664.341 604.896 701.077 557.824 695.343L69.4492 635.854C29.8051 631.025 0 597.369 0 557.432V89.3395Z" fill="#FF9A5B"/>
<mask id="mask0_1876_966" style="mask-type:alpha" maskUnits="userSpaceOnUse" x="232" y="588" width="390" height="116">
<g clip-path="url(#clip0_1876_966)">
<path d="M287.254 652.068C293.443 652.83 299.376 645.969 300.506 636.743C301.635 627.516 297.533 619.419 291.344 618.657C285.154 617.894 279.221 624.756 278.092 633.982C276.962 643.208 281.064 651.305 287.254 652.068Z" fill="#FBB03B"/>
<path d="M470.691 658.225C481.382 659.475 489.463 665.509 488.746 671.706C488.03 677.902 479.97 672.213 469.279 670.963C458.588 669.713 449.313 673.378 450.032 667.193C450.751 661.007 459.998 656.988 470.691 658.225Z" fill="#FBB03B"/>
<path d="M359.231 650.825C361.277 645.929 359.504 640.522 355.27 638.748C351.036 636.974 345.944 639.505 343.897 644.402C341.85 649.298 343.624 654.705 347.858 656.479C352.092 658.253 357.184 655.722 359.231 650.825Z" fill="#FBB03B"/>
<path d="M588.797 661.203C591.508 657.813 590.957 652.864 587.566 650.15C584.175 647.436 579.229 647.984 576.518 651.374C573.807 654.765 574.358 659.713 577.749 662.427C581.14 665.142 586.086 664.593 588.797 661.203Z" fill="#FBB03B"/>
<path d="M616.632 677.694C616.81 675.616 616.929 673.559 616.979 671.522C617.203 661.86 615.796 652.83 611.101 647.433C610.634 646.888 610.126 646.38 609.58 645.913C609.094 645.489 608.579 645.099 608.041 644.744C589.472 632.606 572.77 638.538 566.442 641.65C562.388 643.645 558.022 645.337 553.146 644.935C552.4 644.875 551.66 644.765 550.93 644.606C550.127 644.438 549.336 644.217 548.562 643.944C546.087 643.072 543.368 644.053 540.9 646.695C539.29 648.489 538.013 650.556 537.131 652.799C536.857 653.465 536.612 654.174 536.377 654.897C534.583 660.583 534.443 667.55 537.142 673.796C538.23 676.338 539.364 678.675 540.353 680.739C543.065 686.395 545.068 690.578 545.04 694.925L547.159 695.186C547.256 690.222 545.04 685.603 542.274 679.821C541.246 677.675 540.185 675.459 539.1 672.949C536.664 667.327 536.722 661.109 538.249 655.953C539.209 656.376 540.226 656.656 541.267 656.784C544.06 657.141 546.879 656.377 549.107 654.658C551.335 652.939 552.791 650.405 553.154 647.613C553.176 647.431 553.198 647.251 553.22 647.069C558.539 647.43 563.288 645.579 567.383 643.564C573.377 640.611 589.222 634.986 606.875 646.528C607.323 646.823 607.75 647.148 608.155 647.501C600.755 655.999 587.482 673.491 592.677 684.436C594.905 689.102 597.763 690.644 600.227 690.948C600.848 691.021 601.475 691.026 602.097 690.961C606.2 690.528 610.459 687.204 613.964 682.145C613.038 689.148 611.712 696.091 609.995 702.942L612.155 703.208C613.868 696.386 615.835 687.033 616.632 677.694ZM512.531 663.752C512.467 662.253 512.267 660.762 511.935 659.298C511.191 656.069 509.879 652.998 508.061 650.227C509.293 646.449 509.523 637.11 506.345 636.039C504.375 635.384 501.55 638.059 499.406 641.085C493.637 636.773 486.284 633.747 478.089 632.738C469.894 631.728 462.035 632.885 455.398 635.668C454.034 632.207 451.949 628.927 449.883 629.085C446.543 629.335 444.508 638.47 444.793 642.434C442.375 644.675 440.37 647.322 438.868 650.257C438.198 651.579 437.647 652.957 437.22 654.375C436.912 655.37 436.671 656.384 436.498 657.411C436.433 657.774 436.381 658.142 436.335 658.515C436.179 659.784 436.122 661.064 436.164 662.343C436.338 666.774 437.613 671.093 439.873 674.91C438.722 677.064 437.758 679.312 436.99 681.631L439.147 681.896C439.72 680.221 440.403 678.586 441.191 677.001C441.456 676.463 441.734 675.937 442.025 675.417C442.112 675.254 442.155 675.072 442.151 674.887C442.147 674.703 442.094 674.522 442 674.364C441.679 673.838 441.384 673.308 441.108 672.767C439.518 669.761 438.572 666.456 438.332 663.064C439.799 663.368 440.969 663.179 441.34 662.466C441.856 661.479 440.621 659.763 438.496 658.434C438.635 657.42 438.843 656.417 439.119 655.432C441.464 656.452 443.63 656.505 444.16 655.486C444.719 654.41 443.227 652.508 440.794 651.148C441.979 648.845 443.504 646.734 445.318 644.886C448.39 641.79 452.051 639.341 456.085 637.684C462.422 635.011 469.953 633.902 477.824 634.871C485.695 635.841 492.741 638.748 498.232 642.878C501.747 645.463 504.709 648.727 506.943 652.476C508.274 654.73 509.252 657.176 509.844 659.726C507.257 660.479 505.448 661.914 505.726 663.068C505.986 664.15 507.984 664.631 510.417 664.269C510.447 665.308 510.403 666.348 510.285 667.381C508.032 668.153 506.531 669.466 506.78 670.526C506.954 671.271 507.952 671.72 509.339 671.824C508.285 675.051 506.571 678.023 504.307 680.551C503.909 681.006 503.493 681.449 503.06 681.881C502.928 682.01 502.833 682.173 502.785 682.351C502.736 682.53 502.737 682.718 502.785 682.897C502.939 683.472 503.077 684.053 503.208 684.639C503.59 686.368 503.858 688.121 504.011 689.885L506.165 690.151C505.979 687.715 505.585 685.299 504.988 682.93C508.088 679.793 510.362 675.936 511.61 671.705C511.969 670.458 512.228 669.184 512.384 667.895C512.426 667.55 512.47 667.188 512.489 666.837C512.57 665.811 512.584 664.781 512.531 663.752ZM384.506 611.62C367.34 608.974 357.19 617.245 351.677 624.765C344.284 632.834 332.671 646.569 332.91 653.079C333.177 660.415 336.127 662.573 337.688 663.196C337.95 664.141 338.278 665.065 338.672 665.963C339.193 667.157 339.619 668.392 339.945 669.654L342.219 669.934C341.84 668.28 341.306 666.665 340.623 665.111C340.277 664.32 339.987 663.506 339.756 662.674C339.662 662.333 339.581 661.991 339.508 661.65C337.475 652.193 343.454 643.096 346.498 638.464C347.44 637.026 348.06 636.081 348.312 635.391C349.888 631.092 358.955 609.827 384.197 613.717C396.846 615.666 403.565 623.244 406.974 629.263C412.319 638.694 413.021 650.45 410.607 656.364C406.448 666.563 399.191 672.664 393.729 670.56C391.337 669.643 389.797 668.225 389.011 666.238C387.542 662.467 388.805 656.496 392.767 648.505C400.273 633.333 395.222 627.161 395.005 626.903C394.916 626.796 394.807 626.708 394.684 626.644C394.561 626.58 394.426 626.541 394.287 626.53C394.149 626.519 394.009 626.536 393.878 626.579C393.746 626.623 393.624 626.692 393.519 626.783C393.304 626.964 393.169 627.222 393.143 627.501C393.116 627.781 393.201 628.06 393.378 628.278C393.421 628.328 397.665 633.806 390.86 647.563C386.557 656.25 385.308 662.626 387.028 667.037C388.018 669.58 390.011 671.443 392.955 672.575C395.825 673.677 398.982 673.118 402.026 671.201C401.612 672.777 401.125 674.869 400.762 677.176L402.889 677.438C403.349 674.579 404.016 671.757 404.884 668.995C404.884 668.995 404.887 668.974 404.888 668.964C407.839 666.202 410.537 662.168 412.562 657.196C415.127 650.902 414.683 638.614 408.806 628.243C405.171 621.811 398.003 613.699 384.506 611.62ZM346.304 634.675C345.84 635.589 345.308 636.467 344.713 637.303C341.702 641.89 335.965 650.611 337.087 660.158C336.171 659.076 335.177 656.991 335.028 653.008C334.879 649.025 340.643 640.801 346.875 633.216C346.627 633.812 346.423 634.301 346.304 634.675ZM310.696 641.252C312.043 630.252 309.707 619.753 304.777 611.364C304.876 610.992 304.949 610.614 304.996 610.233C305.475 606.313 303.87 597.021 300.531 596.609C298.922 596.411 297.214 598.3 295.825 600.761C290.838 596.568 284.742 593.913 278.278 593.117C271.814 592.32 265.26 593.418 259.409 596.276C258.644 593.553 257.443 591.303 255.844 591.106C252.502 590.694 248.703 599.324 248.223 603.24C248.176 603.621 248.154 604.004 248.16 604.387C241.362 611.336 236.554 620.951 235.207 631.955C234.231 639.675 235.115 647.519 237.784 654.832C237.279 655.504 236.794 656.192 236.328 656.895L238.678 657.185C239.042 656.665 239.42 656.155 239.81 655.655C239.845 655.607 239.878 655.557 239.908 655.506C239.922 655.478 239.933 655.449 239.943 655.42L239.947 655.389L239.953 655.34C239.957 655.313 239.96 655.289 239.962 655.264C239.965 655.24 239.962 655.264 239.965 655.24C239.973 655.205 239.978 655.169 239.979 655.133L240.011 654.871L239.92 654.64L239.899 654.585C237.2 647.455 236.29 639.774 237.25 632.213C238.468 622.261 242.623 613.5 248.56 606.977C251.75 603.435 255.577 600.524 259.842 598.397C265.431 595.566 271.737 594.463 277.957 595.229C284.177 595.995 290.029 598.595 294.769 602.699C298.393 605.799 301.403 609.551 303.644 613.761C307.831 621.531 309.749 631.04 308.531 640.992C307.637 648.568 304.9 655.807 300.559 662.077C300.557 662.087 300.556 662.097 300.556 662.108C300.544 662.129 300.53 662.148 300.514 662.166L300.51 662.197C300.506 662.209 300.505 662.222 300.505 662.235C300.476 662.291 300.454 662.351 300.438 662.412C300.435 662.42 300.434 662.428 300.435 662.436C300.432 662.447 300.431 662.459 300.431 662.471C300.425 662.501 300.421 662.532 300.419 662.564L300.417 662.584C300.413 662.615 300.41 662.643 300.406 662.67C300.403 662.698 300.399 662.733 300.394 662.77C300.394 662.801 300.396 662.832 300.4 662.862L300.395 662.907C300.395 662.907 300.391 662.941 300.406 662.957C300.422 663.02 300.443 663.081 300.468 663.14C300.725 663.721 300.965 664.307 301.194 664.898L303.564 665.19C303.284 664.395 302.978 663.609 302.646 662.831C307.012 656.385 309.773 648.986 310.696 641.252Z" fill="#2D3030"/>
<path d="M288.329 634.966C287.171 634.824 285.962 636.897 285.632 639.593C285.302 642.288 285.975 644.597 287.133 644.739C288.291 644.882 289.503 642.809 289.833 640.11C290.164 637.411 289.49 635.109 288.329 634.966Z" fill="#2D3030"/>
<path d="M258.41 631.281C257.252 631.139 256.043 633.212 255.713 635.908C255.383 638.604 256.055 640.912 257.213 641.054C258.371 641.197 259.58 639.124 259.91 636.425C260.241 633.726 259.571 631.424 258.41 631.281Z" fill="#2D3030"/>
<path d="M276.325 650.988C276.045 650.953 275.763 651.032 275.541 651.205C275.319 651.379 275.175 651.633 275.141 651.913C275.123 652.14 275.06 652.362 274.955 652.564C274.849 652.766 274.704 652.945 274.528 653.089C274.351 653.234 274.147 653.341 273.928 653.404C273.709 653.468 273.48 653.486 273.253 653.458C273.027 653.43 272.809 653.357 272.611 653.242C272.414 653.128 272.242 652.974 272.106 652.791C271.97 652.608 271.872 652.4 271.818 652.178C271.765 651.956 271.757 651.726 271.795 651.501L272.886 642.583L273.341 642.639C273.625 642.674 273.912 642.594 274.137 642.418C274.363 642.242 274.509 641.983 274.544 641.699C274.579 641.414 274.499 641.128 274.323 640.902C274.147 640.676 273.888 640.529 273.604 640.494L270.612 640.126C270.328 640.091 270.042 640.17 269.816 640.347C269.59 640.523 269.444 640.782 269.409 641.066C269.375 641.351 269.454 641.637 269.63 641.863C269.807 642.089 270.066 642.235 270.35 642.27L270.791 642.325L269.699 651.243C269.682 651.47 269.619 651.692 269.513 651.894C269.408 652.096 269.262 652.275 269.086 652.419C268.91 652.564 268.706 652.671 268.487 652.734C268.268 652.798 268.038 652.816 267.812 652.788C267.585 652.76 267.367 652.687 267.17 652.572C266.973 652.457 266.801 652.304 266.664 652.121C266.528 651.938 266.43 651.729 266.377 651.508C266.323 651.286 266.315 651.056 266.353 650.831C266.371 650.559 266.284 650.291 266.11 650.081C265.936 649.871 265.689 649.736 265.419 649.703C265.149 649.669 264.876 649.741 264.657 649.902C264.438 650.063 264.289 650.303 264.241 650.57C264.153 651.324 264.291 652.087 264.639 652.762C264.986 653.437 265.526 653.993 266.191 654.36C266.855 654.727 267.613 654.887 268.369 654.821C269.125 654.755 269.843 654.466 270.434 653.989C270.891 654.595 271.519 655.05 272.236 655.298C272.953 655.545 273.728 655.573 274.461 655.379C275.194 655.184 275.853 654.775 276.352 654.205C276.852 653.634 277.171 652.927 277.267 652.175C277.284 652.035 277.273 651.893 277.234 651.757C277.196 651.622 277.131 651.495 277.043 651.385C276.955 651.275 276.847 651.183 276.723 651.114C276.6 651.046 276.465 651.003 276.325 650.988Z" fill="#2D3030"/>
<path d="M481.975 671.55C482.915 671.666 483.771 670.998 483.886 670.057C484.001 669.117 483.332 668.26 482.392 668.144C481.452 668.029 480.596 668.697 480.481 669.638C480.366 670.578 481.035 671.435 481.975 671.55Z" fill="#2D3030"/>
<path d="M457.011 668.476C457.951 668.591 458.807 667.923 458.922 666.982C459.037 666.042 458.368 665.186 457.428 665.07C456.488 664.954 455.632 665.623 455.517 666.563C455.402 667.504 456.071 668.36 457.011 668.476Z" fill="#2D3030"/>
<path d="M581.037 656.051C581.977 656.167 582.833 655.498 582.948 654.558C583.063 653.617 582.394 652.761 581.454 652.645C580.514 652.53 579.658 653.198 579.543 654.139C579.428 655.079 580.097 655.935 581.037 656.051Z" fill="#2D3030"/>
<path d="M571.076 651.696C572.016 651.812 572.871 651.143 572.986 650.203C573.102 649.262 572.433 648.406 571.492 648.29C570.552 648.174 569.697 648.843 569.582 649.783C569.466 650.724 570.135 651.58 571.076 651.696Z" fill="#2D3030"/>
<path d="M596.103 637.307C597.674 637.994 599.157 638.075 599.407 637.49C599.657 636.905 598.594 635.878 597.023 635.191C595.453 634.504 593.969 634.423 593.719 635.008C593.469 635.593 594.532 636.62 596.103 637.307Z" fill="#2D3030"/>
<path d="M582.975 634.56C584.67 634.292 585.959 633.562 585.857 632.934C585.756 632.306 584.305 632.011 582.614 632.282C580.922 632.554 579.63 633.28 579.732 633.908C579.833 634.536 581.284 634.831 582.975 634.56Z" fill="#2D3030"/>
<path d="M568.331 666.111C568.092 665.962 567.803 665.914 567.528 665.978C567.253 666.042 567.015 666.212 566.866 666.452C564.627 670.053 560.519 671.465 556.641 669.965C556.509 669.915 556.369 669.891 556.228 669.895C556.087 669.898 555.949 669.93 555.82 669.987C555.691 670.045 555.575 670.127 555.478 670.229C555.381 670.332 555.306 670.452 555.255 670.584C555.205 670.715 555.181 670.856 555.185 670.997C555.189 671.138 555.22 671.276 555.278 671.405C555.335 671.534 555.418 671.65 555.52 671.747C555.622 671.844 555.743 671.92 555.874 671.971C556.72 672.301 557.603 672.528 558.503 672.644C562.504 673.137 566.365 671.289 568.674 667.598C568.75 667.479 568.802 667.345 568.826 667.205C568.85 667.065 568.846 666.921 568.815 666.783C568.783 666.644 568.723 666.514 568.641 666.398C568.558 666.283 568.453 666.185 568.331 666.111Z" fill="#2D3030"/>
<path d="M373.346 649.385C373.01 649.343 372.668 649.402 372.365 649.555C372.062 649.708 371.812 649.947 371.645 650.242C371.478 650.537 371.402 650.876 371.427 651.214C371.453 651.553 371.578 651.876 371.787 652.143C371.996 652.411 372.279 652.61 372.601 652.717C372.923 652.823 373.27 652.832 373.597 652.741C373.924 652.651 374.216 652.465 374.437 652.208C374.659 651.951 374.799 651.634 374.84 651.297C374.895 650.846 374.769 650.39 374.489 650.032C374.209 649.673 373.798 649.44 373.346 649.385Z" fill="#2D3030"/>
<path d="M353.107 646.892C352.77 646.85 352.428 646.908 352.125 647.061C351.822 647.213 351.571 647.452 351.403 647.747C351.236 648.042 351.159 648.38 351.184 648.719C351.209 649.057 351.334 649.381 351.543 649.649C351.751 649.917 352.035 650.117 352.357 650.223C352.679 650.33 353.026 650.339 353.353 650.248C353.68 650.158 353.973 649.972 354.194 649.715C354.416 649.458 354.556 649.141 354.597 648.804C354.652 648.353 354.527 647.898 354.247 647.54C353.968 647.181 353.558 646.948 353.107 646.892Z" fill="#2D3030"/>
<path d="M366.417 659.582C366.137 659.547 365.855 659.625 365.632 659.799C365.41 659.972 365.265 660.226 365.23 660.506C365.183 660.889 365.006 661.244 364.728 661.512C364.451 661.779 364.09 661.944 363.706 661.977C363.59 661.988 363.473 661.987 363.357 661.973C362.914 661.917 362.511 661.689 362.236 661.337C361.962 660.985 361.837 660.538 361.89 660.095L362.309 656.679L362.75 656.733C363.034 656.767 363.32 656.687 363.545 656.511C363.771 656.335 363.917 656.077 363.953 655.793C363.987 655.509 363.907 655.223 363.731 654.997C363.554 654.772 363.296 654.625 363.012 654.589L360.007 654.219C359.866 654.201 359.724 654.212 359.587 654.25C359.45 654.287 359.322 654.352 359.211 654.439C359.042 654.571 358.917 654.749 358.85 654.952C358.783 655.155 358.778 655.373 358.835 655.579C358.892 655.785 359.009 655.97 359.171 656.109C359.333 656.249 359.533 656.337 359.745 656.363L360.182 656.417L359.764 659.833C359.71 660.277 359.482 660.68 359.13 660.955C358.778 661.23 358.331 661.354 357.888 661.299C357.772 661.285 357.658 661.258 357.548 661.219C357.183 661.094 356.872 660.847 356.667 660.52C356.461 660.192 356.375 659.805 356.421 659.421C356.439 659.15 356.352 658.882 356.178 658.672C356.005 658.462 355.757 658.327 355.487 658.293C355.217 658.26 354.945 658.332 354.725 658.493C354.506 658.654 354.357 658.893 354.309 659.161C354.198 660.083 354.427 661.015 354.952 661.781C355.478 662.547 356.264 663.095 357.165 663.324C357.267 665.086 358.425 666.548 359.993 666.741C361.561 666.934 363.036 665.796 363.561 664.111C364.489 664.108 365.383 663.766 366.077 663.15C366.771 662.534 367.217 661.686 367.332 660.765C367.365 660.487 367.288 660.208 367.117 659.986C366.945 659.765 366.694 659.62 366.417 659.582ZM360.175 665.336C359.341 665.233 358.719 664.425 358.608 663.393C359.007 663.343 359.395 663.227 359.755 663.048L359.674 663.71C359.652 663.897 359.704 664.085 359.82 664.234C359.936 664.382 360.106 664.479 360.293 664.502C360.48 664.525 360.668 664.472 360.816 664.356C360.965 664.241 361.061 664.07 361.084 663.883L361.158 663.28C361.46 663.527 361.8 663.725 362.163 663.866C361.797 664.804 361.002 665.437 360.165 665.334L360.175 665.336Z" fill="#2D3030"/>
<path d="M375.645 642.061C374.075 641.374 372.591 641.292 372.342 641.874C372.092 642.456 373.155 643.489 374.725 644.176C376.296 644.863 377.78 644.944 378.03 644.359C378.28 643.774 377.223 642.748 375.645 642.061Z" fill="#2D3030"/>
<path d="M356.913 639.802C356.768 639.183 355.302 638.988 353.632 639.37C351.962 639.752 350.722 640.565 350.863 641.188C351.004 641.811 352.477 642.003 354.148 641.617C355.818 641.232 357.054 640.422 356.913 639.802Z" fill="#2D3030"/>
<path d="M369.667 620.657C370.35 619.506 372.693 619.543 374.681 620.729C375.339 621.116 375.924 621.615 376.411 622.202C376.497 622.319 376.605 622.417 376.729 622.491C376.854 622.564 376.992 622.612 377.135 622.631C377.279 622.649 377.424 622.638 377.564 622.599C377.703 622.559 377.832 622.492 377.944 622.4C378.056 622.309 378.149 622.196 378.216 622.068C378.283 621.94 378.323 621.799 378.334 621.655C378.345 621.511 378.327 621.366 378.28 621.229C378.233 621.092 378.159 620.966 378.062 620.859C377.417 620.08 376.643 619.418 375.772 618.904C372.653 617.04 369.168 617.331 367.839 619.561C367.473 620.175 367.3 620.885 367.341 621.599C365.2 622.109 363.649 623.468 363.429 625.264C363.335 626.027 363.486 626.8 363.858 627.472C364.26 628.188 364.822 628.801 365.5 629.263C366.625 630.035 367.923 630.515 369.278 630.663L369.623 630.705C369.897 630.717 370.166 630.622 370.372 630.44C370.578 630.259 370.706 630.004 370.729 629.731C370.752 629.457 370.669 629.184 370.496 628.97C370.323 628.756 370.075 628.618 369.802 628.582L369.52 628.548C368.604 628.441 367.722 628.138 366.935 627.659C366.165 627.176 365.638 626.561 365.527 625.932C365.501 625.796 365.497 625.658 365.514 625.521C365.62 624.652 366.58 623.958 367.875 623.667C368.615 623.501 369.378 623.465 370.13 623.559C370.213 623.57 370.296 623.58 370.378 623.59C371.048 623.69 371.699 623.895 372.305 624.198C372.43 624.269 372.568 624.314 372.711 624.331C372.854 624.347 372.999 624.334 373.136 624.293C373.274 624.252 373.402 624.183 373.513 624.091C373.623 623.999 373.714 623.885 373.78 623.757C373.845 623.629 373.884 623.489 373.894 623.346C373.904 623.202 373.885 623.058 373.838 622.922C373.791 622.786 373.716 622.661 373.62 622.555C373.523 622.448 373.406 622.362 373.275 622.302C372.37 621.851 371.394 621.559 370.39 621.439C370.074 621.401 369.757 621.378 369.44 621.371C369.441 621.255 369.455 621.14 369.482 621.027C369.523 620.894 369.586 620.77 369.667 620.657Z" fill="#2D3030"/>
</g>
</mask>
<g mask="url(#mask0_1876_966)">
<path d="M0.00146484 89.3407C0.00146484 41.9208 41.484 5.18456 88.556 10.9185L576.931 70.4079C616.575 75.237 646.38 108.893 646.38 148.83V616.922C646.38 664.342 604.898 701.078 557.826 695.345L69.4506 635.855C29.8066 631.026 0.00146484 597.37 0.00146484 557.433V89.3407Z" fill="#FFF8ED"/>
</g>
<defs>
<clipPath id="clip0_1876_966">
<rect width="384.254" height="68.4357" fill="white" transform="matrix(0.9925 0.122241 -0.121503 0.992591 240.514 588.465)"/>
</clipPath>
</defs>
</svg>
