<svg width="659" height="647" viewBox="0 0 659 647" fill="none" xmlns="http://www.w3.org/2000/svg">
<path opacity="0.2" d="M569.692 10.7584L71.9311 65.2041C31.4025 69.6372 0.709839 103.87 0.709839 144.64V556.722C0.709839 604.295 42.0181 641.331 89.3088 636.158L587.07 581.713C627.598 577.28 658.291 543.047 658.291 502.276V90.1948C658.291 42.6221 616.983 5.58568 569.692 10.7584Z" stroke="#224453" stroke-width="1.22"/>
<ellipse cx="122.71" cy="202.918" rx="67.7101" ry="67.9184" fill="#FF9A5B"/>
<g clip-path="url(#clip0_971_366)">
<path d="M115.533 205.408C115.533 205.408 113.567 219.674 111.782 232.738C111.439 232.761 111.098 232.808 110.762 232.878C109.082 233.226 107.561 234.118 106.43 235.418C105.3 236.717 104.622 238.352 104.502 240.073C104.382 241.793 104.825 243.504 105.764 244.942C106.704 246.381 108.087 247.468 109.702 248.036C109.263 251.301 108.973 253.497 108.939 253.875C108.738 256.025 110.866 256.564 111.329 254.346C111.455 253.738 111.856 251.418 112.349 248.473C112.856 248.47 113.362 248.416 113.86 248.313C115.541 247.965 117.065 247.072 118.197 245.77C119.329 244.468 120.005 242.829 120.123 241.106C120.241 239.383 119.794 237.671 118.85 236.232C117.906 234.794 116.517 233.71 114.898 233.145C116.375 223.231 146.204 153.86 144.765 152.621C143.326 151.383 123.826 188.99 115.533 205.408ZM117.922 239.435C118.144 240.551 118.033 241.71 117.602 242.765C117.171 243.82 116.439 244.723 115.499 245.361C114.559 246 113.454 246.344 112.322 246.35C111.19 246.357 110.083 246.025 109.141 245.398C108.199 244.77 107.463 243.875 107.028 242.825C106.593 241.775 106.477 240.618 106.696 239.499C106.914 238.381 107.457 237.351 108.255 236.541C109.054 235.731 110.072 235.176 111.182 234.947C111.919 234.795 112.678 234.791 113.415 234.934C114.153 235.077 114.855 235.366 115.481 235.782C116.106 236.199 116.644 236.736 117.063 237.363C117.482 237.99 117.774 238.694 117.922 239.435V239.435Z" fill="#FFF8ED"/>
<path d="M98.4777 220.539L97.04 221.5C95.995 220.383 94.6474 219.6 93.1629 219.246C91.6784 218.891 90.1218 218.982 88.6846 219.507C87.2475 220.031 85.9924 220.966 85.0738 222.197C84.1553 223.429 83.6133 224.902 83.5146 226.436C83.4159 227.97 83.7647 229.498 84.5181 230.832C85.2716 232.166 86.3969 233.247 87.7555 233.944C89.1141 234.64 90.6468 234.921 92.165 234.751C93.6832 234.581 95.1206 233.969 96.3006 232.989C96.5129 233.146 96.6761 233.264 96.7816 233.338C98.738 234.707 100.008 232.724 98.2942 231.206C98.2447 231.161 98.1538 231.083 98.0258 230.978C99.0727 229.241 99.4136 227.165 98.9775 225.186C98.9035 224.849 98.8072 224.517 98.6892 224.193C109.821 217.227 121.981 209.591 121.981 209.591C133.506 195.272 159.721 162.044 157.998 161.229C156.275 160.415 105.542 216.818 98.4777 220.539ZM96.9139 225.65C97.1581 226.761 97.0691 227.922 96.6583 228.985C96.2475 230.048 95.5332 230.965 94.6057 231.622C93.6783 232.278 92.5793 232.644 91.4478 232.672C90.3163 232.701 89.2031 232.391 88.2489 231.782C87.2947 231.173 86.5423 230.292 86.0869 229.251C85.6315 228.21 85.4936 227.055 85.6905 225.932C85.8874 224.81 86.4104 223.77 87.1932 222.945C87.9761 222.119 88.9837 221.545 90.0887 221.294C91.571 220.959 93.1226 221.23 94.4025 222.046C95.6824 222.863 96.5857 224.159 96.9139 225.65V225.65Z" fill="#FFF8ED"/>
<path d="M118.252 205.879C118.333 206.242 118.519 206.573 118.786 206.829C119.054 207.085 119.391 207.256 119.756 207.319C120.12 207.382 120.495 207.335 120.834 207.184C121.173 207.032 121.46 206.784 121.659 206.469C121.858 206.154 121.96 205.787 121.952 205.415C121.944 205.043 121.827 204.681 121.615 204.377C121.403 204.072 121.106 203.838 120.762 203.704C120.417 203.569 120.04 203.541 119.679 203.622C119.438 203.676 119.21 203.777 119.008 203.92C118.806 204.063 118.634 204.244 118.501 204.454C118.368 204.664 118.278 204.897 118.236 205.142C118.193 205.386 118.199 205.637 118.252 205.879V205.879Z" fill="#FF9A5B"/>
</g>
<defs>
<clipPath id="clip0_971_366">
<rect width="43.0718" height="108.488" fill="white" transform="matrix(0.916346 0.400387 -0.398325 0.917244 122.234 142.931)"/>
</clipPath>
</defs>
</svg>
