<svg width="647" height="706" viewBox="0 0 647 706" fill="none" xmlns="http://www.w3.org/2000/svg">
<path opacity="0.2" d="M557.526 691.667L71.2263 632.431C32.0497 627.659 2.59595 594.399 2.59595 554.933V88.8302C2.59595 41.9695 43.5893 5.66644 90.1062 11.3327L576.406 70.5693C615.582 75.3415 645.036 108.601 645.036 148.067V614.17C645.036 661.031 604.043 697.334 557.526 691.667Z" stroke="#224453" stroke-width="1.19191"/>
<path d="M0 89.2092C0 41.7892 41.4825 5.05303 88.5545 10.7869L576.929 70.2764C616.573 75.1055 646.379 108.762 646.379 148.699V616.791C646.379 664.211 604.896 700.947 557.824 695.213L69.4491 635.724C29.8051 630.895 0 597.238 0 557.301V89.2092Z" fill="#FF9A5B"/>
<mask id="mask0_971_372" style="mask-type:alpha" maskUnits="userSpaceOnUse" x="233" y="588" width="390" height="115">
<g clip-path="url(#clip0_971_372)">
<path d="M288.055 651.603C294.245 652.365 300.178 645.504 301.307 636.278C302.436 627.052 298.334 618.954 292.145 618.192C285.956 617.43 280.022 624.291 278.893 633.517C277.764 642.743 281.866 650.841 288.055 651.603Z" fill="#FBB03B"/>
<path d="M471.493 657.76C482.184 659.01 490.264 665.044 489.547 671.241C488.831 677.437 480.771 671.748 470.08 670.498C459.389 669.248 450.114 672.914 450.833 666.728C451.552 660.542 460.8 656.523 471.493 657.76Z" fill="#FBB03B"/>
<path d="M360.032 650.36C362.079 645.464 360.305 640.057 356.071 638.283C351.837 636.509 346.745 639.041 344.699 643.937C342.652 648.833 344.425 654.24 348.659 656.014C352.893 657.788 357.985 655.257 360.032 650.36Z" fill="#FBB03B"/>
<path d="M589.599 660.738C592.309 657.348 591.758 652.399 588.367 649.685C584.977 646.971 580.03 647.519 577.319 650.909C574.609 654.3 575.16 659.248 578.551 661.963C581.941 664.677 586.888 664.129 589.599 660.738Z" fill="#FBB03B"/>
<path d="M617.433 677.229C617.611 675.151 617.73 673.094 617.78 671.057C618.004 661.395 616.598 652.365 611.903 646.969C611.435 646.424 610.927 645.915 610.382 645.448C609.895 645.025 609.381 644.634 608.842 644.279C590.273 632.141 573.571 638.073 567.243 641.185C563.189 643.18 558.823 644.872 553.947 644.471C553.202 644.41 552.461 644.301 551.731 644.142C550.928 643.973 550.137 643.752 549.363 643.479C546.888 642.607 544.169 643.588 541.701 646.231C540.091 648.024 538.815 650.091 537.932 652.334C537.658 653.001 537.414 653.709 537.178 654.432C535.384 660.118 535.244 667.085 537.943 673.331C539.031 675.873 540.165 678.21 541.155 680.274C543.866 685.93 545.869 690.114 545.841 694.46L547.96 694.721C548.057 689.757 545.841 685.138 543.075 679.356C542.047 677.21 540.986 674.994 539.901 672.484C537.465 666.862 537.523 660.644 539.05 655.488C540.01 655.911 541.027 656.191 542.068 656.319C544.861 656.677 547.68 655.912 549.908 654.193C552.137 652.474 553.592 649.941 553.955 647.148C553.977 646.966 553.999 646.786 554.021 646.604C559.34 646.965 564.09 645.114 568.184 643.099C574.178 640.146 590.024 634.521 607.676 646.063C608.124 646.358 608.552 646.683 608.956 647.036C601.556 655.534 588.284 673.026 593.478 683.971C595.706 688.637 598.564 690.179 601.028 690.483C601.649 690.556 602.276 690.561 602.898 690.496C607.002 690.064 611.26 686.739 614.765 681.68C613.839 688.683 612.514 695.627 610.796 702.477L612.956 702.744C614.67 695.921 616.637 686.568 617.433 677.229ZM513.332 663.288C513.268 661.788 513.069 660.297 512.737 658.833C511.992 655.604 510.68 652.533 508.862 649.762C510.094 645.984 510.324 636.645 507.146 635.575C505.177 634.919 502.351 637.594 500.207 640.62C494.439 636.308 487.085 633.282 478.89 632.273C470.695 631.264 462.837 632.42 456.199 635.203C454.835 631.742 452.75 628.462 450.684 628.62C447.344 628.87 445.309 638.005 445.594 641.969C443.176 644.21 441.171 646.857 439.669 649.792C439 651.114 438.448 652.492 438.021 653.911C437.713 654.905 437.472 655.92 437.299 656.946C437.234 657.309 437.182 657.677 437.136 658.05C436.98 659.319 436.923 660.599 436.965 661.878C437.139 666.309 438.414 670.628 440.674 674.445C439.523 676.599 438.559 678.848 437.791 681.166L439.948 681.432C440.522 679.757 441.204 678.121 441.992 676.536C442.257 675.998 442.535 675.472 442.826 674.952C442.913 674.789 442.956 674.607 442.952 674.422C442.948 674.238 442.896 674.058 442.801 673.899C442.481 673.373 442.185 672.843 441.909 672.302C440.319 669.296 439.373 665.991 439.133 662.6C440.6 662.903 441.77 662.715 442.141 662.001C442.657 661.015 441.423 659.298 439.297 657.969C439.436 656.955 439.644 655.952 439.92 654.967C442.265 655.987 444.431 656.04 444.962 655.021C445.52 653.945 444.028 652.043 441.596 650.684C442.781 648.381 444.306 646.269 446.119 644.421C449.191 641.325 452.852 638.877 456.886 637.219C463.223 634.546 470.754 633.437 478.625 634.406C486.497 635.376 493.543 638.284 499.033 642.414C502.548 644.999 505.51 648.262 507.744 652.011C509.075 654.266 510.053 656.711 510.645 659.261C508.059 660.014 506.249 661.449 506.528 662.604C506.787 663.685 508.785 664.166 511.219 663.804C511.248 664.843 511.204 665.883 511.086 666.916C508.833 667.688 507.333 669.001 507.581 670.061C507.755 670.807 508.753 671.255 510.14 671.359C509.086 674.586 507.373 677.558 505.108 680.086C504.71 680.541 504.294 680.984 503.861 681.416C503.729 681.546 503.634 681.708 503.586 681.887C503.538 682.065 503.538 682.253 503.586 682.432C503.74 683.007 503.879 683.588 504.01 684.174C504.392 685.904 504.66 687.656 504.812 689.42L506.966 689.686C506.78 687.25 506.386 684.834 505.789 682.465C508.889 679.328 511.163 675.472 512.411 671.24C512.77 669.993 513.029 668.719 513.185 667.43C513.227 667.085 513.271 666.723 513.29 666.372C513.372 665.346 513.386 664.316 513.332 663.288V663.288ZM385.308 611.155C368.141 608.509 357.991 616.781 352.478 624.3C345.085 632.369 333.472 646.104 333.711 652.614C333.978 659.95 336.928 662.109 338.489 662.731C338.751 663.676 339.08 664.6 339.473 665.498C339.995 666.692 340.42 667.927 340.746 669.189L343.02 669.469C342.641 667.815 342.107 666.2 341.424 664.646C341.078 663.856 340.788 663.041 340.558 662.209C340.463 661.869 340.382 661.526 340.309 661.185C338.276 651.728 344.255 642.631 347.299 637.999C348.241 636.561 348.861 635.616 349.113 634.926C350.689 630.627 359.756 609.363 384.999 613.252C397.647 615.202 404.366 622.779 407.775 628.798C413.12 638.229 413.822 649.985 411.408 655.899C407.249 666.098 399.992 672.199 394.531 670.095C392.138 669.178 390.598 667.76 389.812 665.774C388.343 662.002 389.606 656.031 393.568 648.04C401.075 632.868 396.023 626.696 395.806 626.438C395.717 626.332 395.608 626.243 395.485 626.179C395.362 626.115 395.227 626.076 395.088 626.065C394.95 626.054 394.811 626.071 394.679 626.114C394.547 626.158 394.425 626.227 394.32 626.318C394.105 626.499 393.97 626.757 393.944 627.037C393.917 627.316 394.002 627.595 394.179 627.813C394.222 627.863 398.466 633.341 391.661 647.098C387.358 655.785 386.109 662.161 387.829 666.572C388.819 669.116 390.812 670.978 393.756 672.11C396.626 673.212 399.783 672.653 402.827 670.736C402.413 672.312 401.926 674.404 401.564 676.711L403.69 676.973C404.15 674.114 404.817 671.292 405.685 668.53C405.685 668.53 405.688 668.509 405.689 668.499C408.64 665.738 411.338 661.703 413.363 656.731C415.928 650.437 415.484 638.149 409.607 627.778C405.973 621.346 398.804 613.234 385.308 611.155ZM347.105 634.21C346.641 635.124 346.109 636.003 345.514 636.838C342.504 641.425 336.766 650.146 337.889 659.693C336.972 658.611 335.978 656.526 335.829 652.543C335.68 648.56 341.444 640.336 347.676 632.751C347.428 633.347 347.225 633.836 347.105 634.21ZM311.497 640.787C312.844 629.787 310.508 619.289 305.578 610.899C305.677 610.527 305.75 610.149 305.797 609.768C306.277 605.848 304.672 596.556 301.332 596.145C299.723 595.946 298.015 597.836 296.626 600.296C291.639 596.103 285.544 593.448 279.08 592.652C272.616 591.856 266.061 592.953 260.21 595.811C259.445 593.089 258.245 590.838 256.646 590.641C253.303 590.229 249.504 598.859 249.024 602.775C248.977 603.156 248.956 603.539 248.961 603.922C242.164 610.871 237.355 620.486 236.009 631.49C235.032 639.211 235.916 647.054 238.585 654.367V654.367C238.08 655.039 237.595 655.727 237.129 656.43L239.479 656.72C239.844 656.2 240.221 655.69 240.611 655.19C240.646 655.142 240.679 655.093 240.71 655.041C240.723 655.013 240.735 654.984 240.745 654.955L240.748 654.924L240.754 654.875C240.758 654.848 240.761 654.824 240.764 654.8C240.767 654.775 240.764 654.8 240.767 654.775C240.774 654.74 240.779 654.705 240.78 654.669L240.812 654.407L240.721 654.175L240.7 654.12C238.001 646.991 237.092 639.309 238.051 631.748C239.27 621.796 243.424 613.035 249.361 606.512C252.551 602.97 256.378 600.06 260.643 597.932C266.232 595.101 272.538 593.998 278.758 594.764C284.978 595.53 290.83 598.13 295.57 602.234C299.194 605.334 302.204 609.086 304.445 613.296C308.633 621.066 310.55 630.575 309.332 640.528C308.438 648.103 305.701 655.343 301.361 661.612C301.358 661.622 301.357 661.633 301.357 661.643C301.345 661.664 301.331 661.683 301.315 661.701L301.311 661.732C301.307 661.744 301.306 661.757 301.306 661.77C301.278 661.826 301.255 661.886 301.239 661.947C301.237 661.955 301.236 661.963 301.236 661.971C301.233 661.982 301.232 661.994 301.232 662.006C301.226 662.036 301.223 662.068 301.221 662.099L301.218 662.119C301.214 662.15 301.211 662.178 301.207 662.206C301.204 662.233 301.2 662.268 301.195 662.306C301.195 662.336 301.197 662.367 301.201 662.397L301.196 662.442C301.196 662.442 301.192 662.477 301.207 662.493C301.223 662.555 301.244 662.616 301.269 662.675C301.527 663.256 301.766 663.842 301.995 664.434L304.366 664.726C304.085 663.931 303.779 663.144 303.448 662.366C307.814 655.92 310.574 648.521 311.497 640.787V640.787Z" fill="#2D3030"/>
<path d="M289.13 634.502C287.972 634.359 286.763 636.432 286.433 639.128C286.103 641.824 286.776 644.132 287.934 644.275C289.092 644.417 290.304 642.344 290.634 639.645C290.965 636.946 290.291 634.645 289.13 634.502Z" fill="#2D3030"/>
<path d="M259.211 630.817C258.053 630.674 256.844 632.747 256.514 635.443C256.184 638.139 256.857 640.447 258.014 640.59C259.172 640.732 260.381 638.659 260.712 635.96C261.042 633.261 260.372 630.96 259.211 630.817Z" fill="#2D3030"/>
<path d="M277.126 650.523C276.846 650.489 276.564 650.567 276.342 650.74C276.12 650.914 275.976 651.168 275.942 651.448C275.925 651.676 275.861 651.897 275.756 652.099C275.65 652.301 275.505 652.48 275.329 652.625C275.152 652.769 274.948 652.876 274.729 652.94C274.51 653.003 274.281 653.021 274.055 652.993C273.828 652.965 273.61 652.892 273.413 652.777C273.215 652.663 273.043 652.509 272.907 652.326C272.771 652.143 272.673 651.935 272.619 651.713C272.566 651.491 272.558 651.261 272.596 651.036L273.687 642.118L274.142 642.174C274.427 642.209 274.713 642.13 274.939 641.953C275.164 641.777 275.311 641.518 275.345 641.234C275.38 640.949 275.301 640.663 275.124 640.437C274.948 640.211 274.689 640.065 274.405 640.03L271.414 639.661C271.129 639.626 270.843 639.706 270.617 639.882C270.392 640.058 270.245 640.317 270.211 640.601C270.176 640.886 270.255 641.172 270.432 641.398C270.608 641.624 270.867 641.77 271.151 641.805L271.592 641.86L270.5 650.778C270.483 651.005 270.42 651.227 270.314 651.429C270.209 651.631 270.064 651.81 269.887 651.954C269.711 652.099 269.507 652.206 269.288 652.269C269.069 652.333 268.839 652.351 268.613 652.323C268.387 652.295 268.168 652.222 267.971 652.107C267.774 651.993 267.602 651.839 267.466 651.656C267.329 651.473 267.231 651.265 267.178 651.043C267.124 650.821 267.116 650.591 267.154 650.366C267.172 650.094 267.085 649.826 266.911 649.616C266.738 649.406 266.49 649.271 266.22 649.238C265.95 649.204 265.677 649.276 265.458 649.437C265.239 649.599 265.09 649.838 265.042 650.106C264.954 650.859 265.093 651.622 265.44 652.297C265.787 652.972 266.327 653.528 266.992 653.895C267.656 654.262 268.415 654.422 269.17 654.356C269.926 654.29 270.645 654.001 271.235 653.524C271.692 654.13 272.32 654.585 273.037 654.833C273.755 655.08 274.529 655.108 275.262 654.914C275.995 654.719 276.654 654.31 277.153 653.74C277.653 653.169 277.972 652.463 278.068 651.71C278.085 651.57 278.074 651.428 278.035 651.293C277.997 651.157 277.932 651.03 277.844 650.92C277.757 650.81 277.648 650.718 277.525 650.65C277.401 650.581 277.266 650.538 277.126 650.523V650.523Z" fill="#2D3030"/>
<path d="M482.776 671.086C483.717 671.201 484.572 670.533 484.687 669.592C484.802 668.652 484.133 667.795 483.193 667.68C482.253 667.564 481.398 668.232 481.282 669.173C481.167 670.113 481.836 670.97 482.776 671.086Z" fill="#2D3030"/>
<path d="M457.812 668.011C458.753 668.127 459.608 667.458 459.723 666.518C459.838 665.577 459.17 664.721 458.229 664.605C457.289 664.489 456.434 665.158 456.319 666.098C456.203 667.039 456.872 667.895 457.812 668.011Z" fill="#2D3030"/>
<path d="M581.838 655.586C582.779 655.702 583.634 655.034 583.749 654.093C583.864 653.153 583.195 652.296 582.255 652.181C581.315 652.065 580.46 652.733 580.344 653.674C580.229 654.614 580.898 655.471 581.838 655.586Z" fill="#2D3030"/>
<path d="M571.877 651.231C572.817 651.347 573.673 650.678 573.788 649.738C573.903 648.797 573.234 647.941 572.294 647.825C571.354 647.709 570.498 648.378 570.383 649.319C570.268 650.259 570.937 651.115 571.877 651.231Z" fill="#2D3030"/>
<path d="M596.904 636.842C598.475 637.529 599.959 637.61 600.209 637.025C600.459 636.44 599.395 635.413 597.824 634.726C596.254 634.039 594.77 633.958 594.52 634.543C594.27 635.128 595.334 636.155 596.904 636.842Z" fill="#2D3030"/>
<path d="M583.776 634.095C585.471 633.827 586.76 633.097 586.659 632.469C586.557 631.841 585.106 631.547 583.415 631.818C581.724 632.089 580.432 632.815 580.533 633.443C580.634 634.072 582.085 634.366 583.776 634.095Z" fill="#2D3030"/>
<path d="M569.133 665.646C568.893 665.497 568.604 665.45 568.329 665.513C568.055 665.577 567.817 665.748 567.667 665.987C565.428 669.588 561.32 671 557.442 669.501C557.311 669.45 557.17 669.426 557.03 669.43C556.889 669.434 556.75 669.465 556.621 669.523C556.493 669.58 556.376 669.662 556.28 669.764C556.183 669.867 556.107 669.987 556.057 670.119C556.006 670.251 555.982 670.391 555.986 670.532C555.99 670.673 556.022 670.812 556.079 670.94C556.137 671.069 556.219 671.185 556.321 671.282C556.424 671.379 556.544 671.455 556.676 671.506C557.521 671.837 558.404 672.063 559.304 672.179C563.305 672.672 567.166 670.824 569.475 667.133C569.552 667.014 569.603 666.88 569.628 666.74C569.652 666.6 569.648 666.456 569.616 666.318C569.584 666.18 569.525 666.049 569.442 665.933C569.359 665.818 569.254 665.72 569.133 665.646Z" fill="#2D3030"/>
<path d="M374.147 648.92C373.811 648.878 373.469 648.938 373.167 649.09C372.864 649.243 372.613 649.482 372.446 649.777C372.279 650.073 372.203 650.411 372.229 650.749C372.254 651.088 372.379 651.411 372.588 651.679C372.797 651.946 373.08 652.146 373.402 652.252C373.725 652.358 374.071 652.367 374.398 652.276C374.725 652.186 375.017 652 375.239 651.743C375.46 651.486 375.6 651.169 375.641 650.832C375.697 650.381 375.57 649.925 375.29 649.567C375.01 649.208 374.599 648.975 374.147 648.92V648.92Z" fill="#2D3030"/>
<path d="M353.908 646.427C353.571 646.385 353.23 646.444 352.926 646.596C352.623 646.748 352.372 646.987 352.204 647.282C352.037 647.577 351.961 647.915 351.986 648.254C352.01 648.593 352.135 648.916 352.344 649.184C352.553 649.452 352.836 649.652 353.158 649.758C353.481 649.865 353.827 649.874 354.154 649.783C354.481 649.693 354.774 649.507 354.996 649.25C355.217 648.993 355.357 648.676 355.399 648.339C355.454 647.888 355.328 647.434 355.048 647.075C354.769 646.717 354.359 646.483 353.908 646.427V646.427Z" fill="#2D3030"/>
<path d="M367.218 659.117C366.938 659.082 366.656 659.16 366.434 659.334C366.211 659.507 366.066 659.762 366.031 660.042C365.984 660.424 365.807 660.779 365.53 661.047C365.253 661.315 364.892 661.479 364.508 661.513C364.392 661.523 364.275 661.522 364.159 661.508C363.716 661.453 363.313 661.224 363.038 660.872C362.763 660.52 362.639 660.073 362.692 659.63L363.11 656.214L363.551 656.268C363.835 656.302 364.121 656.223 364.347 656.046C364.572 655.87 364.718 655.612 364.754 655.328C364.788 655.044 364.708 654.758 364.532 654.532C364.356 654.307 364.097 654.16 363.814 654.124L360.809 653.754C360.668 653.737 360.525 653.747 360.388 653.785C360.252 653.823 360.124 653.887 360.012 653.974C359.844 654.106 359.718 654.284 359.651 654.487C359.584 654.69 359.579 654.908 359.636 655.114C359.693 655.32 359.81 655.505 359.972 655.644C360.134 655.784 360.334 655.872 360.546 655.898L360.984 655.952L360.566 659.368C360.511 659.812 360.283 660.215 359.931 660.49C359.579 660.765 359.133 660.889 358.689 660.834C358.574 660.82 358.46 660.793 358.35 660.754C357.984 660.629 357.673 660.382 357.468 660.055C357.263 659.728 357.176 659.34 357.223 658.957C357.24 658.685 357.153 658.417 356.98 658.207C356.806 657.997 356.559 657.862 356.289 657.829C356.019 657.795 355.746 657.867 355.527 658.028C355.308 658.189 355.159 658.429 355.11 658.696C354.999 659.619 355.228 660.55 355.754 661.316C356.279 662.082 357.066 662.631 357.966 662.859C358.069 664.621 359.226 666.083 360.794 666.276C362.362 666.469 363.837 665.332 364.362 663.647C365.29 663.643 366.185 663.301 366.879 662.685C367.573 662.069 368.019 661.222 368.133 660.3C368.166 660.023 368.089 659.743 367.918 659.521C367.747 659.3 367.495 659.155 367.218 659.117ZM360.976 664.871C360.142 664.768 359.521 663.96 359.409 662.928C359.808 662.879 360.196 662.762 360.557 662.583L360.476 663.245C360.453 663.432 360.505 663.62 360.621 663.769C360.737 663.917 360.907 664.014 361.094 664.037C361.281 664.06 361.47 664.008 361.618 663.892C361.766 663.776 361.862 663.606 361.885 663.419L361.959 662.815C362.262 663.062 362.601 663.26 362.965 663.401C362.598 664.339 361.804 664.973 360.966 664.87L360.976 664.871Z" fill="#2D3030"/>
<path d="M376.447 641.596C374.876 640.909 373.392 640.828 373.143 641.409C372.893 641.991 373.956 643.025 375.527 643.711C377.097 644.398 378.581 644.479 378.831 643.894C379.081 643.309 378.024 642.283 376.447 641.596Z" fill="#2D3030"/>
<path d="M357.714 639.337C357.57 638.718 356.103 638.523 354.433 638.905C352.764 639.288 351.524 640.101 351.664 640.723C351.805 641.346 353.279 641.538 354.949 641.152C356.619 640.767 357.855 639.957 357.714 639.337Z" fill="#2D3030"/>
<path d="M370.468 620.193C371.151 619.041 373.494 619.078 375.483 620.264C376.14 620.652 376.725 621.15 377.212 621.737C377.298 621.854 377.406 621.952 377.53 622.026C377.655 622.1 377.793 622.147 377.937 622.166C378.08 622.184 378.226 622.173 378.365 622.134C378.504 622.094 378.633 622.027 378.746 621.936C378.858 621.844 378.95 621.731 379.017 621.603C379.084 621.475 379.124 621.335 379.136 621.19C379.147 621.046 379.128 620.901 379.081 620.764C379.035 620.627 378.961 620.501 378.864 620.394C378.219 619.615 377.444 618.954 376.574 618.439C373.454 616.575 369.969 616.866 368.64 619.096C368.274 619.71 368.101 620.42 368.142 621.134C366.002 621.644 364.45 623.003 364.23 624.799C364.137 625.562 364.287 626.335 364.66 627.008C365.061 627.723 365.623 628.336 366.301 628.798C367.426 629.57 368.724 630.051 370.079 630.198L370.424 630.241C370.699 630.252 370.967 630.157 371.173 629.975C371.379 629.794 371.507 629.54 371.53 629.266C371.553 628.992 371.47 628.719 371.297 628.506C371.125 628.292 370.876 628.153 370.603 628.118L370.321 628.083C369.405 627.976 368.524 627.673 367.736 627.194C366.966 626.711 366.44 626.097 366.328 625.467C366.303 625.331 366.298 625.193 366.315 625.056C366.422 624.187 367.381 623.494 368.676 623.202C369.416 623.037 370.179 623 370.931 623.095C371.014 623.105 371.097 623.115 371.18 623.125C371.85 623.225 372.5 623.43 373.106 623.733C373.231 623.804 373.369 623.849 373.512 623.866C373.655 623.882 373.8 623.869 373.938 623.828C374.076 623.787 374.204 623.718 374.314 623.626C374.425 623.534 374.515 623.421 374.581 623.293C374.646 623.165 374.685 623.024 374.695 622.881C374.705 622.737 374.686 622.593 374.639 622.457C374.592 622.321 374.518 622.196 374.421 622.09C374.324 621.983 374.207 621.897 374.076 621.837C373.171 621.386 372.195 621.095 371.191 620.974C370.876 620.936 370.559 620.913 370.241 620.906C370.242 620.79 370.256 620.675 370.283 620.562C370.325 620.429 370.387 620.305 370.468 620.193V620.193Z" fill="#2D3030"/>
</g>
</mask>
<g mask="url(#mask0_971_372)">
<path d="M0.802612 88.8759C0.802612 41.456 42.2851 4.71978 89.3571 10.4537L577.732 69.9431C617.376 74.7722 647.181 108.428 647.181 148.365V616.458C647.181 663.878 605.699 700.614 558.627 694.88L70.2518 635.39C30.6077 630.561 0.802612 596.905 0.802612 556.968V88.8759Z" fill="#FFF8ED"/>
</g>
<ellipse cx="121.787" cy="132.111" rx="66.1511" ry="66.3546" fill="#664D9F"/>
<path d="M115.01 95.646C116.872 96.3672 118.692 97.2349 120.603 97.7753C123.255 98.5213 125.82 98.0037 128.165 96.5955C130.036 95.4728 131.782 95.528 133.599 96.7173C137.198 99.0732 140.853 101.349 144.445 103.718C145.087 104.146 145.612 104.728 145.973 105.412C149.136 111.72 152.243 118.057 155.364 124.386C156.08 125.836 155.84 126.618 154.417 127.431C151.197 129.28 147.987 131.134 144.757 132.963C144.571 133.048 144.416 133.19 144.314 133.368C144.212 133.547 144.168 133.753 144.189 133.958C144.205 139.442 144.209 144.926 144.198 150.409C144.215 150.669 144.205 150.931 144.168 151.189C144.049 151.771 143.685 152.12 143.075 152.089C142.465 152.059 142.128 151.709 142.069 151.103C142.051 150.89 142.056 150.677 142.056 150.462V120.485C142.056 120.342 142.056 120.2 142.056 120.057C142.081 119.261 142.456 118.826 143.117 118.828C143.778 118.83 144.189 119.282 144.193 120.059C144.204 122.98 144.193 125.899 144.193 128.812V130.812L153.461 125.484C153.376 125.271 153.311 125.077 153.22 124.896C150.172 118.715 147.121 112.536 144.068 106.358C143.962 106.097 143.793 105.867 143.575 105.69C140.763 103.861 137.933 102.055 135.065 100.215C134.985 100.417 134.91 100.576 134.853 100.746C132.334 108.394 123.958 112.019 116.709 108.597C116.453 108.476 116.201 108.344 115.951 108.198C115.383 107.848 115.194 107.284 115.453 106.75C115.713 106.215 116.313 106.068 116.969 106.31C118.27 106.784 119.56 107.383 120.906 107.61C126.21 108.504 131.69 104.772 132.972 99.5223C133.069 99.1284 133.033 98.8505 132.633 98.6545C132.281 98.4813 131.957 98.2492 131.54 97.9942C131.044 100.807 129.708 102.989 127.401 104.516C125.717 105.648 123.699 106.174 121.679 106.006C117.832 105.718 114.103 102.987 113.186 98.0665C112.713 98.3301 112.258 98.6264 111.826 98.9532C111.705 99.0579 111.746 99.4366 111.807 99.665C112.203 101.135 112.904 102.505 113.864 103.684C114.211 104.12 114.338 104.653 113.944 105.039C113.675 105.303 113.171 105.419 112.771 105.419C112.54 105.419 112.228 105.113 112.089 104.868C111.332 103.536 110.625 102.177 109.905 100.824C109.83 100.654 109.767 100.479 109.716 100.301C109.511 100.411 109.337 100.491 109.161 100.599C106.564 102.242 103.97 103.891 101.38 105.547C101.104 105.72 100.876 105.961 100.719 106.247C97.6163 112.507 94.5226 118.771 91.4377 125.041C91.3752 125.164 91.3335 125.298 91.2634 125.476L100.533 130.805V129.929C100.533 126.677 100.533 123.424 100.533 120.173C100.533 119.311 100.897 118.841 101.56 118.822C102.164 118.81 102.55 119.109 102.647 119.714C102.678 119.998 102.687 120.284 102.674 120.569V166.378H142.02V155.99C142.02 155.777 142.02 155.562 142.02 155.351C142.066 154.696 142.437 154.312 143.03 154.291C143.172 154.279 143.316 154.298 143.451 154.345C143.586 154.393 143.71 154.468 143.814 154.566C143.919 154.664 144.002 154.783 144.058 154.915C144.115 155.047 144.143 155.19 144.142 155.334C144.181 156.161 144.155 156.995 144.157 157.825C144.157 160.698 144.157 163.57 144.157 166.441C144.157 167.925 143.517 168.567 142.043 168.567H102.672C101.208 168.567 100.567 167.92 100.567 166.432C100.567 155.631 100.571 144.83 100.579 134.03C100.579 133.492 100.437 133.191 99.9517 132.919C96.7317 131.109 93.5515 129.26 90.3542 127.423C88.9298 126.605 88.6817 125.832 89.4072 124.378C92.5287 118.049 95.6489 111.719 98.7679 105.389C99.1051 104.68 99.6401 104.085 100.308 103.676C103.632 101.583 106.937 99.4632 110.26 97.3966C111.292 96.7535 112.392 96.2187 113.461 95.6345L115.01 95.646ZM115.512 98.1883C115.823 101.374 119.243 104.049 122.71 103.888C125.82 103.741 129.095 101.033 129.125 98.5479C124.526 101.094 120.003 100.535 115.512 98.1883Z" fill="#FFF8ED"/>
<defs>
<clipPath id="clip0_971_372">
<rect width="384.254" height="68.4357" fill="white" transform="matrix(0.9925 0.122241 -0.121503 0.992591 241.315 588)"/>
</clipPath>
</defs>
</svg>
