<svg width="137" height="137" viewBox="0 0 137 137" fill="none" xmlns="http://www.w3.org/2000/svg">
<ellipse cx="68.6103" cy="68.6618" rx="67.7101" ry="67.9184" fill="#FF9A5B"/>
<g clip-path="url(#clip0_1806_80633)">
<path d="M61.433 71.1518C61.433 71.1518 59.4673 85.4175 57.6819 98.4813C57.3391 98.5049 56.9983 98.5519 56.6617 98.6219C54.9826 98.9696 53.4611 99.8616 52.3304 101.161C51.1998 102.461 50.5224 104.096 50.4021 105.816C50.2819 107.537 50.7253 109.247 51.6645 110.686C52.6038 112.124 53.9869 113.211 55.6019 113.78C55.1636 117.045 54.8734 119.24 54.8392 119.619C54.6378 121.768 56.766 122.307 57.2291 120.09C57.3555 119.481 57.7557 117.162 58.249 114.216C58.7565 114.213 59.2625 114.159 59.7599 114.056C61.4416 113.709 62.9654 112.815 64.0971 111.513C65.2287 110.211 65.9056 108.573 66.0235 106.85C66.1415 105.126 65.6941 103.414 64.75 101.976C63.8059 100.538 62.4175 99.453 60.7982 98.8888C62.2747 88.9742 92.1042 19.6029 90.665 18.3646C89.2257 17.1262 69.726 54.7335 61.433 71.1518ZM63.8217 105.179C64.0445 106.295 63.9333 107.453 63.5021 108.508C63.0709 109.563 62.3392 110.467 61.3994 111.105C60.4596 111.743 59.3539 112.087 58.2221 112.094C57.0904 112.1 55.9834 111.769 55.0411 111.141C54.0988 110.514 53.3636 109.618 52.9283 108.568C52.4931 107.519 52.3774 106.361 52.5958 105.243C52.8143 104.124 53.3571 103.095 54.1556 102.284C54.9542 101.474 55.9726 100.92 57.0821 100.691C57.819 100.539 58.578 100.534 59.3155 100.678C60.0531 100.821 60.7549 101.109 61.3808 101.526C62.0066 101.943 62.5443 102.48 62.9631 103.106C63.382 103.733 63.6737 104.437 63.8217 105.179Z" fill="#FFF8ED"/>
<path d="M44.3778 86.2824L42.94 87.2435C41.895 86.1269 40.5474 85.3432 39.0629 84.989C37.5784 84.6349 36.0218 84.7256 34.5847 85.25C33.1475 85.7745 31.8924 86.7098 30.9739 87.9409C30.0553 89.172 29.5133 90.6452 29.4146 92.1792C29.3159 93.7132 29.6647 95.2412 30.4182 96.5751C31.1717 97.909 32.2969 98.9906 33.6555 99.687C35.0141 100.383 36.5468 100.664 38.065 100.494C39.5832 100.325 41.0207 99.7125 42.2006 98.7326C42.413 98.8897 42.5762 99.0073 42.6816 99.0817C44.638 100.451 45.9076 98.4672 44.1942 96.9497C44.1448 96.9049 44.0538 96.8266 43.9258 96.7218C44.9727 94.9839 45.3137 92.9087 44.8775 90.9294C44.8036 90.5923 44.7072 90.2607 44.5892 89.9367C55.7213 82.9705 67.8813 75.3348 67.8813 75.3348C79.4057 61.0151 105.621 27.7873 103.898 26.9728C102.175 26.1584 51.4423 82.5617 44.3778 86.2824ZM42.8139 91.3933C43.0581 92.5047 42.9692 93.6652 42.5583 94.7282C42.1475 95.7912 41.4332 96.7088 40.5057 97.3651C39.5783 98.0215 38.4793 98.387 37.3479 98.4155C36.2164 98.444 35.1031 98.1341 34.1489 97.5252C33.1947 96.9163 32.4423 96.0355 31.9869 94.9944C31.5315 93.9532 31.3936 92.7984 31.5905 91.6759C31.7874 90.5534 32.3104 89.5136 33.0933 88.688C33.8761 87.8625 34.8838 87.2882 35.9888 87.0378C37.471 86.7025 39.0226 86.973 40.3025 87.7898C41.5824 88.6066 42.4857 89.9027 42.8139 91.3933Z" fill="#FFF8ED"/>
<path d="M64.1525 71.6223C64.2331 71.9855 64.4189 72.3161 64.6865 72.5723C64.9541 72.8286 65.2914 72.9991 65.6558 73.0622C66.0202 73.1253 66.3955 73.0782 66.7342 72.927C67.0728 72.7757 67.3598 72.5269 67.5587 72.2122C67.7577 71.8974 67.8597 71.5307 67.852 71.1584C67.8443 70.786 67.7271 70.4248 67.5153 70.1202C67.3035 69.8155 67.0065 69.5813 66.6619 69.4469C66.3173 69.3126 65.9405 69.2841 65.5791 69.3652C65.3383 69.4192 65.1102 69.5205 64.9081 69.6633C64.706 69.8061 64.5337 69.9876 64.4012 70.1973C64.2686 70.407 64.1784 70.6408 64.1357 70.8853C64.0931 71.1299 64.0988 71.3803 64.1525 71.6223Z" fill="#FF9A5B"/>
</g>
<defs>
<clipPath id="clip0_1806_80633">
<rect width="43.0718" height="108.488" fill="white" transform="matrix(0.916346 0.400387 -0.398325 0.917244 68.1337 8.67468)"/>
</clipPath>
</defs>
</svg>
