<svg width="658" height="646" viewBox="0 0 658 646" fill="none" xmlns="http://www.w3.org/2000/svg">
<path opacity="0.2" d="M584.871 8.5099L58.8711 66.1018C25.6541 69.7387 0.5 97.7971 0.5 131.213V572.379C0.5 611.376 34.3639 641.734 73.129 637.49L599.129 579.898C632.346 576.261 657.5 548.203 657.5 514.787V73.6208C657.5 34.624 623.636 4.2655 584.871 8.5099Z" stroke="#224453"/>
<ellipse cx="119.293" cy="177.838" rx="67.293" ry="67.5" fill="#FF9A5B"/>
<path d="M79.2541 145.275V140.088C79.2541 139.901 79.4052 139.75 79.5916 139.75H124.56C124.746 139.75 124.897 139.901 124.897 140.088V145.275M79.2541 145.275C72.7913 166.955 70.8122 179.984 70.5514 204.858C70.5505 204.94 70.5795 205.022 70.6338 205.084C81.1026 217.031 104.995 218.989 124.897 210.3M79.2541 145.275H85.1983M124.897 210.3C129.153 208.461 131.045 206.354 133.159 199.94C133.171 199.906 133.177 199.868 133.177 199.832C133.157 176.191 130.782 164.646 124.897 145.275M124.897 210.3C121.881 185.252 121.921 171.01 124.897 145.275M124.897 145.275H94.5392M129.355 191.812L129.78 194.15M75.2205 199.037V202.225M78.4049 203.925V206.05M119.165 150.587V153.137M115.344 155.687V158.45M119.165 159.725V162.275M95.1761 160.787V162.275M100.271 160.787V162.275M90.0811 183.95C90.2195 180.958 91.6345 179.208 95.6771 176.277C95.9042 176.112 96.2308 176.281 96.2388 176.561C96.2735 177.776 96.4985 180.281 97.7236 181.4C99.1204 182.675 101.192 181.214 102.394 182.675C103.315 183.794 103.243 186.287 103.243 186.287M90.0811 183.95C89.2732 186.428 91.3548 187.137 103.243 186.287M90.0811 183.95C90.0811 183.95 85.7308 186.945 86.4721 189.9C86.5884 190.364 86.7456 190.789 86.9427 191.175M103.243 186.287C103.243 186.287 105.026 187.483 105.791 189.262C106.677 191.327 104.942 194.15 104.942 194.15M104.942 194.15C104.942 194.15 102.474 193.029 99.6343 192.662C95.8439 192.173 93.9023 194.362 90.5056 193.725C88.8424 193.413 87.6415 192.542 86.9427 191.175M104.942 194.15C104.942 194.15 107.335 195.519 107.701 197.337C108.068 199.156 108.918 202.225 107.065 202.225C104.517 202.225 103.277 200.836 99.6343 200.312C94.2996 199.545 86.8121 202.914 84.7737 199.037C82.6508 195 86.9427 191.175 86.9427 191.175M151.009 172.416C146.472 173.682 142.135 173.995 136.783 173.759C136.655 173.754 136.54 173.674 136.488 173.557C132.876 165.346 131.649 160.283 130.858 150.782C130.848 150.663 130.904 150.544 131.002 150.475C142.447 142.451 149.281 140.195 161.834 139.757C161.964 139.753 162.088 139.825 162.148 139.94C166.708 148.693 167.706 154.22 167.362 164.637C167.358 164.753 167.295 164.861 167.195 164.92C160.668 168.752 155.73 171.1 151.009 172.416ZM151.009 172.416C151.009 172.416 151.646 199.887 153.557 203.925C154.531 205.984 156.233 207.672 158.44 207.112C160.402 206.615 161.21 204.878 161.412 202.862C161.836 198.612 151.009 172.416 151.009 172.416ZM156.954 146.762C157.901 152.039 158.733 155.02 160.563 160.362M149.523 149.525C151.391 155.371 152.602 158.455 155.467 163.125M142.518 151.65C144.261 157.803 145.237 160.901 146.976 165.462M136.573 153.987C137.514 159.953 138.44 163.178 141.032 168.65M87.109 162.275C87.109 159.772 90.6998 157.2 91.277 156.803C91.3293 156.767 91.3688 156.719 91.395 156.661L93.2342 152.611C93.342 152.374 93.667 152.343 93.8173 152.556L95.9244 155.545C95.9877 155.634 96.0905 155.687 96.2003 155.687H100.784C100.864 155.687 100.942 155.659 101.003 155.607L104.598 152.548C104.817 152.362 105.154 152.518 105.154 152.805V157.228C105.154 157.329 105.198 157.423 105.274 157.49C105.855 157.993 108.338 160.263 108.338 162.275C108.338 164.554 106.995 165.822 105.154 167.162C102.819 168.862 93.0532 168.65 91.3548 167.8C88.9224 166.583 87.109 164.997 87.109 162.275Z" stroke="#FFF8ED" stroke-width="1.6875" stroke-linecap="round"/>
</svg>
