<svg width="647" height="706" viewBox="0 0 647 706" fill="none" xmlns="http://www.w3.org/2000/svg">
<path d="M0 89.2091C0 41.7892 41.4825 5.05303 88.5545 10.7869L576.929 70.2764C616.573 75.1055 646.379 108.762 646.379 148.699V616.791C646.379 664.211 604.896 700.947 557.824 695.213L69.4491 635.724C29.8051 630.894 0 597.238 0 557.301V89.2091Z" fill="#FF9A5B"/>
<ellipse cx="104.737" cy="139.879" rx="66.4334" ry="66.6378" fill="#FFF8ED"/>
<g clip-path="url(#clip0_971_357)">
<path fill-rule="evenodd" clip-rule="evenodd" d="M118.921 149.057C124.085 148.381 128.974 145.644 133.435 140.862C133.752 140.544 133.991 140.156 134.131 139.729C134.272 139.301 134.311 138.847 134.244 138.401C140.088 131.298 143.617 121.449 143.617 113.938C143.617 102.314 138.048 101.084 128.951 99.1696H128.813C128.544 98.6007 128.121 98.1195 127.593 97.781C127.065 97.4425 126.453 97.2603 125.826 97.2552C125.369 97.2366 124.912 97.3113 124.484 97.4749C124.056 97.6386 123.666 97.8878 123.336 98.2074C123.006 98.5271 122.744 98.9107 122.566 99.335C122.387 99.7593 122.296 100.216 122.297 100.676C122.297 102.452 123.787 103.821 125.826 103.821C126.559 103.805 127.27 103.567 127.866 103.137V103.137C136.826 105.051 139.278 105.597 139.278 113.938C139.278 120.496 135.871 129.383 130.876 135.803C130.437 135.799 130.002 135.895 129.605 136.084C129.209 136.273 128.859 136.55 128.584 136.895C125.865 139.632 121.793 143.045 116.767 143.045C111.878 143.045 107.669 139.632 105.087 136.895C104.473 136.273 103.662 135.887 102.795 135.803C97.7691 129.383 94.3928 120.496 94.3928 113.938C94.3928 105.597 96.6844 105.051 105.668 103.137C106.314 103.568 107.069 103.805 107.845 103.821C108.725 103.869 109.588 103.566 110.248 102.977C110.907 102.389 111.309 101.562 111.366 100.676C111.346 99.754 110.965 98.877 110.305 98.2362C109.646 97.5954 108.761 97.2429 107.845 97.2552C107.2 97.2602 106.568 97.4408 106.017 97.7779C105.465 98.1149 105.015 98.5958 104.713 99.1696V99.1696C95.4851 101.084 89.9165 102.314 89.9165 113.938C89.9165 121.449 93.5831 131.298 99.4191 138.54C99.3737 138.951 99.4111 139.367 99.5292 139.764C99.6474 140.16 99.8437 140.528 100.107 140.846C104.583 145.628 109.334 148.36 114.361 149.042L114.223 163.649C114.223 173.766 105.53 181.969 94.8053 181.969C84.0804 181.969 75.25 173.766 75.25 163.649V150.833C81.4985 149.88 86.2498 144.829 86.2498 138.671C86.2498 131.974 80.2763 126.37 73.0729 126.37C65.8696 126.37 59.9037 131.967 59.9037 138.671C59.9037 144.821 64.655 149.88 70.9035 150.833V163.687C70.9035 176.127 81.5978 186.106 94.8053 186.106C108.013 186.106 118.707 176.111 118.707 163.687V149.08L118.921 149.057Z" fill="#062D3E"/>
<path fill-rule="evenodd" clip-rule="evenodd" d="M73.0186 147.012C75.2698 147.063 77.4493 146.214 79.079 144.65C80.7087 143.086 81.6555 140.936 81.7116 138.67C81.7116 134.165 77.7699 130.475 73.0186 130.475C68.1298 130.475 64.3257 134.165 64.3257 138.67C64.3257 143.322 68.1451 147.012 73.0186 147.012Z" fill="#A38CD6"/>
</g>
<mask id="mask0_971_357" style="mask-type:alpha" maskUnits="userSpaceOnUse" x="232" y="588" width="390" height="116">
<g clip-path="url(#clip1_971_357)">
<path d="M287.254 651.938C293.443 652.7 299.376 645.839 300.506 636.612C301.635 627.386 297.533 619.289 291.343 618.527C285.154 617.764 279.221 624.626 278.092 633.852C276.962 643.078 281.064 651.175 287.254 651.938Z" fill="#FBB03B"/>
<path d="M470.691 658.095C481.382 659.345 489.462 665.379 488.746 671.575C488.029 677.772 479.97 672.083 469.279 670.833C458.587 669.583 449.313 673.248 450.032 667.063C450.75 660.877 459.998 656.858 470.691 658.095Z" fill="#FBB03B"/>
<path d="M359.23 650.695C361.277 645.799 359.504 640.392 355.27 638.618C351.036 636.844 345.944 639.375 343.897 644.272C341.85 649.168 343.623 654.575 347.857 656.349C352.092 658.123 357.183 655.591 359.23 650.695Z" fill="#FBB03B"/>
<path d="M588.797 661.073C591.508 657.683 590.956 652.734 587.566 650.02C584.175 647.306 579.229 647.854 576.518 651.244C573.807 654.634 574.358 659.583 577.749 662.297C581.14 665.011 586.086 664.463 588.797 661.073Z" fill="#FBB03B"/>
<path d="M616.632 677.564C616.809 675.486 616.928 673.429 616.978 671.392C617.202 661.73 615.796 652.7 611.101 647.303C610.634 646.758 610.125 646.25 609.58 645.783C609.093 645.359 608.579 644.969 608.041 644.613C589.472 632.476 572.769 638.408 566.442 641.519C562.388 643.515 558.022 645.206 553.145 644.805C552.4 644.745 551.66 644.635 550.929 644.476C550.126 644.308 549.335 644.087 548.562 643.814C546.087 642.942 543.368 643.923 540.9 646.565C539.29 648.359 538.013 650.426 537.13 652.669C536.856 653.335 536.612 654.044 536.377 654.767C534.582 660.453 534.443 667.42 537.142 673.666C538.23 676.208 539.364 678.545 540.353 680.609C543.064 686.265 545.067 690.448 545.039 694.794L547.159 695.055C547.255 690.091 545.04 685.473 542.274 679.691C541.246 677.545 540.184 675.329 539.099 672.819C536.664 667.197 536.722 660.979 538.248 655.823C539.209 656.246 540.226 656.526 541.267 656.653C544.059 657.011 546.879 656.247 549.107 654.528C551.335 652.809 552.79 650.275 553.153 647.483C553.176 647.3 553.198 647.121 553.22 646.938C558.538 647.3 563.288 645.449 567.383 643.434C573.376 640.48 589.222 634.856 606.874 646.398C607.322 646.693 607.75 647.018 608.154 647.371C600.754 655.869 587.482 673.361 592.677 684.306C594.904 688.972 597.762 690.514 600.226 690.817C600.847 690.891 601.474 690.895 602.096 690.831C606.2 690.398 610.458 687.074 613.964 682.015C613.037 689.018 611.712 695.961 609.994 702.812L612.155 703.078C613.868 696.256 615.835 686.903 616.632 677.564ZM512.53 663.622C512.466 662.123 512.267 660.632 511.935 659.168C511.19 655.939 509.878 652.868 508.061 650.097C509.293 646.319 509.523 636.98 506.345 635.909C504.375 635.254 501.55 637.929 499.406 640.954C493.637 636.643 486.284 633.617 478.089 632.608C469.894 631.598 462.035 632.754 455.398 635.538C454.034 632.077 451.948 628.797 449.882 628.955C446.543 629.205 444.508 638.34 444.792 642.304C442.375 644.545 440.369 647.192 438.867 650.127C438.198 651.448 437.647 652.827 437.219 654.245C436.912 655.24 436.671 656.254 436.498 657.281C436.432 657.644 436.38 658.012 436.335 658.384C436.179 659.654 436.121 660.934 436.163 662.212C436.338 666.644 437.613 670.963 439.872 674.78C438.722 676.934 437.757 679.182 436.989 681.501L439.147 681.766C439.72 680.091 440.403 678.456 441.191 676.871C441.456 676.333 441.733 675.807 442.025 675.287C442.112 675.124 442.155 674.942 442.151 674.757C442.146 674.573 442.094 674.392 442 674.234C441.679 673.708 441.384 673.178 441.107 672.637C439.517 669.631 438.572 666.326 438.331 662.934C439.798 663.238 440.969 663.049 441.34 662.336C441.856 661.349 440.621 659.633 438.496 658.304C438.634 657.29 438.843 656.287 439.119 655.302C441.464 656.322 443.629 656.375 444.16 655.356C444.718 654.28 443.227 652.378 440.794 651.018C441.979 648.715 443.504 646.604 445.318 644.755C448.39 641.66 452.051 639.211 456.085 637.554C462.422 634.881 469.953 633.772 477.824 634.741C485.695 635.71 492.741 638.618 498.231 642.748C501.746 645.333 504.708 648.597 506.942 652.345C508.274 654.6 509.252 657.046 509.843 659.596C507.257 660.348 505.448 661.784 505.726 662.938C505.985 664.02 507.984 664.501 510.417 664.139C510.447 665.178 510.403 666.218 510.285 667.251C508.032 668.023 506.531 669.336 506.779 670.395C506.954 671.141 507.952 671.59 509.338 671.694C508.284 674.921 506.571 677.893 504.307 680.421C503.908 680.875 503.492 681.319 503.059 681.751C502.928 681.88 502.833 682.043 502.784 682.221C502.736 682.4 502.736 682.588 502.785 682.767C502.938 683.342 503.077 683.922 503.208 684.509C503.59 686.238 503.858 687.991 504.011 689.755L506.164 690.02C505.978 687.585 505.585 685.169 504.988 682.8C508.087 679.663 510.362 675.806 511.609 671.575C511.968 670.327 512.227 669.053 512.383 667.765C512.426 667.42 512.47 667.058 512.488 666.707C512.57 665.681 512.584 664.65 512.53 663.622V663.622ZM384.506 611.49C367.339 608.844 357.19 617.115 351.676 624.635C344.283 632.703 332.671 646.439 332.909 652.949C333.176 660.285 336.127 662.443 337.688 663.066C337.949 664.01 338.278 664.935 338.671 665.833C339.193 667.027 339.619 668.261 339.944 669.524L342.219 669.804C341.84 668.15 341.305 666.535 340.623 664.981C340.276 664.19 339.987 663.376 339.756 662.544C339.661 662.203 339.581 661.861 339.507 661.519C337.475 652.063 343.454 642.966 346.498 638.334C347.44 636.896 348.059 635.95 348.312 635.261C349.887 630.962 358.955 609.697 384.197 613.587C396.846 615.536 403.565 623.114 406.973 629.133C412.319 638.564 413.02 650.32 410.607 656.234C406.448 666.433 399.191 672.534 393.729 670.43C391.337 669.513 389.796 668.095 389.011 666.108C387.542 662.337 388.804 656.365 392.766 648.375C400.273 633.203 395.222 627.031 395.005 626.773C394.916 626.666 394.807 626.578 394.683 626.514C394.56 626.45 394.425 626.411 394.287 626.4C394.148 626.389 394.009 626.405 393.877 626.449C393.745 626.492 393.623 626.562 393.519 626.653C393.304 626.834 393.169 627.092 393.142 627.371C393.116 627.651 393.201 627.93 393.378 628.147C393.421 628.198 397.665 633.676 390.86 647.433C386.557 656.12 385.308 662.496 387.028 666.907C388.018 669.45 390.011 671.312 392.954 672.445C395.824 673.547 398.982 672.988 402.025 671.071C401.612 672.647 401.125 674.739 400.762 677.046L402.888 677.308C403.348 674.449 404.015 671.627 404.884 668.865C404.884 668.865 404.886 668.844 404.888 668.834C407.839 666.072 410.537 662.037 412.562 657.066C415.127 650.772 414.683 638.484 408.805 628.112C405.171 621.681 398.003 613.569 384.506 611.49ZM346.304 634.544C345.839 635.459 345.307 636.337 344.712 637.172C341.702 641.76 335.965 650.48 337.087 660.028C336.17 658.946 335.177 656.86 335.028 652.877C334.878 648.894 340.643 640.671 346.874 633.086C346.626 633.681 346.423 634.171 346.304 634.544ZM310.696 641.122C312.042 630.122 309.707 619.623 304.776 611.234C304.875 610.862 304.948 610.484 304.995 610.102C305.475 606.183 303.87 596.891 300.531 596.479C298.921 596.281 297.214 598.17 295.825 600.631C290.837 596.438 284.742 593.783 278.278 592.986C271.814 592.19 265.259 593.288 259.409 596.146C258.644 593.423 257.443 591.172 255.844 590.976C252.501 590.564 248.702 599.194 248.223 603.11C248.175 603.49 248.154 603.874 248.159 604.257C241.362 611.206 236.554 620.821 235.207 631.824C234.231 639.545 235.114 647.389 237.783 654.701V654.701C237.279 655.374 236.794 656.062 236.327 656.765L238.678 657.055C239.042 656.535 239.419 656.025 239.809 655.525C239.845 655.477 239.878 655.427 239.908 655.376C239.921 655.348 239.933 655.319 239.943 655.289L239.947 655.258L239.953 655.21C239.956 655.183 239.959 655.158 239.962 655.134C239.965 655.11 239.962 655.134 239.965 655.11C239.973 655.075 239.977 655.039 239.978 655.003L240.01 654.741L239.92 654.51L239.898 654.455C237.2 647.325 236.29 639.643 237.25 632.083C238.468 622.131 242.622 613.369 248.56 606.847C251.749 603.305 255.577 600.394 259.842 598.267C265.431 595.436 271.737 594.333 277.957 595.099C284.176 595.865 290.029 598.465 294.769 602.569C298.392 605.669 301.403 609.421 303.643 613.631C307.831 621.401 309.749 630.91 308.531 640.862C307.636 648.438 304.899 655.677 300.559 661.947C300.556 661.957 300.555 661.967 300.555 661.978C300.543 661.998 300.529 662.018 300.513 662.036L300.509 662.067C300.506 662.079 300.504 662.092 300.505 662.105C300.476 662.161 300.454 662.22 300.438 662.282C300.435 662.29 300.434 662.298 300.435 662.306C300.432 662.317 300.43 662.329 300.43 662.34C300.425 662.371 300.421 662.402 300.419 662.433L300.416 662.454C300.413 662.485 300.409 662.513 300.406 662.54C300.403 662.568 300.398 662.602 300.394 662.64C300.394 662.671 300.396 662.702 300.4 662.732L300.394 662.777C300.394 662.777 300.39 662.811 300.406 662.827C300.422 662.889 300.442 662.95 300.467 663.01C300.725 663.591 300.965 664.177 301.193 664.768L303.564 665.06C303.284 664.265 302.978 663.479 302.646 662.701C307.012 656.254 309.772 648.856 310.696 641.122V641.122Z" fill="#2D3030"/>
<path d="M288.329 634.836C287.171 634.694 285.962 636.767 285.632 639.463C285.302 642.158 285.974 644.467 287.132 644.609C288.29 644.752 289.502 642.679 289.833 639.98C290.163 637.281 289.49 634.979 288.329 634.836Z" fill="#2D3030"/>
<path d="M258.409 631.151C257.251 631.009 256.043 633.082 255.713 635.778C255.383 638.473 256.055 640.782 257.213 640.924C258.371 641.067 259.58 638.994 259.91 636.295C260.24 633.595 259.571 631.294 258.409 631.151Z" fill="#2D3030"/>
<path d="M276.324 650.858C276.044 650.823 275.763 650.901 275.541 651.075C275.319 651.248 275.175 651.503 275.141 651.783C275.123 652.01 275.06 652.232 274.954 652.434C274.849 652.636 274.704 652.815 274.527 652.959C274.351 653.104 274.147 653.211 273.928 653.274C273.709 653.338 273.479 653.356 273.253 653.328C273.027 653.3 272.808 653.227 272.611 653.112C272.414 652.997 272.242 652.844 272.106 652.661C271.969 652.478 271.871 652.269 271.818 652.048C271.764 651.826 271.756 651.596 271.794 651.371L272.886 642.453L273.341 642.509C273.625 642.544 273.911 642.464 274.137 642.288C274.363 642.112 274.509 641.853 274.544 641.568C274.579 641.284 274.499 640.998 274.323 640.772C274.146 640.546 273.888 640.399 273.603 640.364L270.612 639.996C270.328 639.961 270.041 640.04 269.816 640.217C269.59 640.393 269.444 640.652 269.409 640.936C269.374 641.22 269.454 641.507 269.63 641.733C269.807 641.959 270.065 642.105 270.35 642.14L270.791 642.194L269.699 651.113C269.682 651.34 269.618 651.562 269.513 651.764C269.407 651.966 269.262 652.145 269.086 652.289C268.909 652.434 268.705 652.541 268.486 652.604C268.267 652.667 268.038 652.686 267.811 652.658C267.585 652.63 267.367 652.557 267.17 652.442C266.972 652.327 266.8 652.174 266.664 651.991C266.528 651.808 266.43 651.599 266.376 651.377C266.323 651.156 266.315 650.925 266.353 650.7C266.37 650.429 266.283 650.161 266.11 649.951C265.936 649.741 265.689 649.606 265.419 649.572C265.148 649.539 264.876 649.611 264.657 649.772C264.438 649.933 264.289 650.172 264.24 650.44C264.152 651.194 264.291 651.957 264.638 652.632C264.986 653.307 265.526 653.863 266.19 654.23C266.855 654.597 267.613 654.757 268.369 654.691C269.124 654.625 269.843 654.335 270.433 653.859C270.891 654.464 271.518 654.92 272.236 655.167C272.953 655.415 273.728 655.443 274.461 655.249C275.194 655.054 275.852 654.645 276.352 654.075C276.852 653.504 277.17 652.797 277.267 652.045C277.283 651.905 277.272 651.763 277.234 651.627C277.195 651.492 277.13 651.365 277.043 651.255C276.955 651.144 276.846 651.052 276.723 650.984C276.6 650.916 276.464 650.873 276.324 650.858V650.858Z" fill="#2D3030"/>
<path d="M481.975 671.42C482.915 671.536 483.77 670.868 483.886 669.927C484.001 668.986 483.332 668.13 482.392 668.014C481.451 667.899 480.596 668.567 480.481 669.508C480.366 670.448 481.034 671.304 481.975 671.42Z" fill="#2D3030"/>
<path d="M457.011 668.346C457.951 668.461 458.807 667.793 458.922 666.852C459.037 665.912 458.368 665.055 457.428 664.94C456.488 664.824 455.632 665.492 455.517 666.433C455.402 667.373 456.071 668.23 457.011 668.346Z" fill="#2D3030"/>
<path d="M581.037 655.921C581.977 656.037 582.833 655.368 582.948 654.428C583.063 653.487 582.394 652.631 581.454 652.515C580.514 652.399 579.658 653.068 579.543 654.008C579.428 654.949 580.097 655.805 581.037 655.921Z" fill="#2D3030"/>
<path d="M571.075 651.566C572.016 651.682 572.871 651.013 572.986 650.073C573.101 649.132 572.432 648.276 571.492 648.16C570.552 648.044 569.696 648.713 569.581 649.653C569.466 650.594 570.135 651.45 571.075 651.566Z" fill="#2D3030"/>
<path d="M596.103 637.177C597.673 637.864 599.157 637.945 599.407 637.36C599.657 636.775 598.593 635.748 597.023 635.061C595.452 634.374 593.969 634.293 593.719 634.878C593.469 635.463 594.532 636.49 596.103 637.177Z" fill="#2D3030"/>
<path d="M582.975 634.429C584.669 634.162 585.958 633.432 585.857 632.804C585.756 632.175 584.305 631.881 582.614 632.152C580.922 632.423 579.63 633.15 579.731 633.778C579.833 634.406 581.284 634.7 582.975 634.429Z" fill="#2D3030"/>
<path d="M568.331 665.981C568.091 665.832 567.803 665.784 567.528 665.848C567.253 665.912 567.015 666.082 566.866 666.322C564.627 669.923 560.519 671.335 556.641 669.835C556.509 669.785 556.369 669.761 556.228 669.765C556.087 669.768 555.948 669.8 555.82 669.857C555.691 669.915 555.575 669.997 555.478 670.099C555.381 670.202 555.305 670.322 555.255 670.454C555.205 670.585 555.181 670.726 555.185 670.867C555.189 671.007 555.22 671.146 555.278 671.275C555.335 671.404 555.417 671.52 555.52 671.617C555.622 671.714 555.743 671.79 555.874 671.84C556.72 672.171 557.602 672.398 558.503 672.514C562.504 673.007 566.365 671.159 568.674 667.468C568.75 667.348 568.802 667.215 568.826 667.075C568.85 666.935 568.846 666.791 568.814 666.653C568.782 666.514 568.723 666.384 568.64 666.268C568.557 666.153 568.452 666.055 568.331 665.981Z" fill="#2D3030"/>
<path d="M373.346 649.254C373.009 649.213 372.668 649.272 372.365 649.425C372.062 649.578 371.811 649.817 371.644 650.112C371.478 650.407 371.402 650.746 371.427 651.084C371.452 651.422 371.577 651.746 371.786 652.013C371.995 652.281 372.279 652.48 372.601 652.587C372.923 652.693 373.27 652.702 373.596 652.611C373.923 652.52 374.216 652.335 374.437 652.078C374.659 651.821 374.799 651.504 374.84 651.167C374.895 650.715 374.769 650.26 374.489 649.902C374.209 649.543 373.797 649.31 373.346 649.254V649.254Z" fill="#2D3030"/>
<path d="M353.107 646.762C352.77 646.72 352.428 646.778 352.125 646.93C351.822 647.083 351.57 647.321 351.403 647.617C351.235 647.912 351.159 648.25 351.184 648.589C351.209 648.927 351.334 649.251 351.542 649.519C351.751 649.787 352.035 649.987 352.357 650.093C352.679 650.2 353.026 650.209 353.353 650.118C353.68 650.028 353.972 649.842 354.194 649.585C354.416 649.328 354.556 649.011 354.597 648.674C354.652 648.223 354.526 647.768 354.247 647.41C353.967 647.051 353.557 646.818 353.107 646.762V646.762Z" fill="#2D3030"/>
<path d="M366.417 659.452C366.137 659.417 365.855 659.495 365.632 659.668C365.409 659.842 365.265 660.096 365.23 660.376C365.182 660.759 365.005 661.114 364.728 661.382C364.451 661.649 364.09 661.814 363.706 661.847C363.59 661.858 363.473 661.857 363.357 661.843C362.914 661.787 362.511 661.559 362.236 661.207C361.961 660.855 361.837 660.408 361.89 659.965L362.308 656.549L362.75 656.603C363.034 656.637 363.32 656.557 363.545 656.381C363.77 656.205 363.917 655.947 363.953 655.663C363.986 655.379 363.906 655.093 363.73 654.867C363.554 654.641 363.296 654.495 363.012 654.459L360.007 654.089C359.866 654.071 359.723 654.082 359.587 654.12C359.45 654.157 359.322 654.222 359.21 654.309C359.042 654.44 358.916 654.619 358.85 654.822C358.783 655.025 358.777 655.243 358.835 655.449C358.892 655.655 359.009 655.84 359.171 655.979C359.333 656.119 359.532 656.207 359.744 656.233L360.182 656.287L359.764 659.703C359.71 660.146 359.481 660.55 359.13 660.825C358.778 661.1 358.331 661.224 357.888 661.169C357.772 661.155 357.658 661.128 357.548 661.089C357.183 660.964 356.871 660.717 356.666 660.39C356.461 660.062 356.375 659.675 356.421 659.291C356.439 659.02 356.352 658.751 356.178 658.542C356.004 658.332 355.757 658.197 355.487 658.163C355.217 658.13 354.944 658.201 354.725 658.363C354.506 658.524 354.357 658.763 354.309 659.031C354.198 659.953 354.426 660.885 354.952 661.651C355.478 662.417 356.264 662.965 357.164 663.194C357.267 664.956 358.424 666.418 359.992 666.611C361.56 666.804 363.036 665.666 363.56 663.981C364.488 663.977 365.383 663.636 366.077 663.02C366.771 662.404 367.217 661.556 367.332 660.635C367.365 660.357 367.287 660.078 367.116 659.856C366.945 659.635 366.694 659.489 366.417 659.452ZM360.175 665.205C359.341 665.103 358.719 664.295 358.608 663.263C359.007 663.213 359.395 663.097 359.755 662.918L359.674 663.58C359.651 663.767 359.704 663.955 359.82 664.104C359.936 664.252 360.106 664.348 360.293 664.371C360.48 664.394 360.668 664.342 360.816 664.226C360.965 664.11 361.061 663.94 361.084 663.753L361.158 663.15C361.46 663.397 361.799 663.595 362.163 663.736C361.797 664.674 361.002 665.307 360.164 665.204L360.175 665.205Z" fill="#2D3030"/>
<path d="M375.645 641.93C374.075 641.244 372.591 641.162 372.341 641.744C372.092 642.326 373.155 643.359 374.725 644.046C376.296 644.733 377.779 644.814 378.029 644.229C378.279 643.644 377.223 642.618 375.645 641.93Z" fill="#2D3030"/>
<path d="M356.913 639.672C356.768 639.052 355.302 638.858 353.632 639.24C351.962 639.622 350.722 640.435 350.863 641.058C351.003 641.681 352.477 641.873 354.147 641.487C355.818 641.101 357.054 640.291 356.913 639.672Z" fill="#2D3030"/>
<path d="M369.667 620.527C370.35 619.376 372.693 619.413 374.681 620.599C375.338 620.986 375.924 621.485 376.411 622.072C376.496 622.189 376.604 622.287 376.729 622.361C376.853 622.434 376.992 622.482 377.135 622.5C377.279 622.519 377.424 622.508 377.563 622.469C377.702 622.429 377.832 622.362 377.944 622.27C378.056 622.179 378.149 622.066 378.216 621.938C378.283 621.81 378.323 621.669 378.334 621.525C378.345 621.381 378.327 621.236 378.28 621.099C378.233 620.962 378.159 620.836 378.062 620.728C377.417 619.95 376.642 619.288 375.772 618.774C372.653 616.909 369.168 617.201 367.838 619.431C367.473 620.045 367.299 620.755 367.341 621.469C365.2 621.979 363.649 623.338 363.429 625.134C363.335 625.897 363.485 626.67 363.858 627.342C364.26 628.058 364.822 628.671 365.5 629.133C366.625 629.904 367.923 630.385 369.278 630.533L369.623 630.575C369.897 630.587 370.165 630.492 370.371 630.31C370.578 630.129 370.706 629.874 370.729 629.6C370.752 629.327 370.668 629.054 370.496 628.84C370.323 628.626 370.074 628.487 369.802 628.452L369.519 628.417C368.604 628.311 367.722 628.008 366.935 627.529C366.165 627.045 365.638 626.431 365.526 625.802C365.501 625.666 365.497 625.527 365.514 625.391C365.62 624.522 366.579 623.828 367.875 623.536C368.615 623.371 369.378 623.335 370.13 623.429C370.213 623.439 370.295 623.45 370.378 623.46C371.048 623.56 371.698 623.765 372.305 624.068C372.43 624.139 372.568 624.184 372.711 624.2C372.854 624.217 372.998 624.204 373.136 624.163C373.274 624.121 373.402 624.053 373.513 623.961C373.623 623.869 373.714 623.755 373.779 623.627C373.845 623.499 373.884 623.359 373.894 623.216C373.904 623.072 373.885 622.928 373.838 622.792C373.79 622.656 373.716 622.531 373.62 622.424C373.523 622.318 373.406 622.232 373.275 622.172C372.369 621.721 371.393 621.429 370.389 621.309C370.074 621.271 369.757 621.248 369.439 621.241C369.441 621.125 369.455 621.009 369.482 620.896C369.523 620.764 369.585 620.64 369.667 620.527V620.527Z" fill="#2D3030"/>
</g>
</mask>
<g mask="url(#mask0_971_357)">
<path d="M0.00109863 89.2106C0.00109863 41.7907 41.4836 5.0545 88.5556 10.7884L576.931 70.2779C616.575 75.1069 646.38 108.763 646.38 148.7V616.792C646.38 664.212 604.897 700.948 557.825 695.215L69.4502 635.725C29.8062 630.896 0.00109863 597.24 0.00109863 557.303V89.2106Z" fill="#FFF8ED"/>
</g>
<defs>
<clipPath id="clip0_971_357">
<rect width="83.7898" height="88.8503" fill="white" transform="translate(59.8499 97.2551)"/>
</clipPath>
<clipPath id="clip1_971_357">
<rect width="384.254" height="68.4357" fill="white" transform="matrix(0.9925 0.122241 -0.121503 0.992591 240.514 588.335)"/>
</clipPath>
</defs>
</svg>
