<svg width="134" height="134" viewBox="0 0 134 134" fill="none" xmlns="http://www.w3.org/2000/svg">
<ellipse cx="66.7371" cy="67.0049" rx="66.4334" ry="66.6378" fill="#FFF8ED"/>
<g clip-path="url(#clip0_1806_80621)">
<path fill-rule="evenodd" clip-rule="evenodd" d="M80.9211 76.1826C86.0849 75.506 90.9737 72.7691 95.4347 67.9871C95.7521 67.6698 95.9908 67.2818 96.1315 66.8544C96.2722 66.427 96.3109 65.9722 96.2445 65.527C102.088 58.4232 105.617 48.5749 105.617 41.0637C105.617 29.4395 100.049 28.2094 90.9508 26.295H90.8133C90.5439 25.7261 90.121 25.245 89.5929 24.9065C89.0647 24.568 88.4526 24.3858 87.8265 24.3807C87.369 24.3621 86.9125 24.4368 86.4845 24.6004C86.0565 24.7641 85.6659 25.0132 85.3361 25.3329C85.0064 25.6526 84.7443 26.0361 84.5658 26.4605C84.3873 26.8848 84.296 27.3411 84.2974 27.8019C84.2974 29.5778 85.787 30.9463 87.8265 30.9463C88.5594 30.9308 89.2705 30.6923 89.8661 30.2621C98.8264 32.1764 101.278 32.7222 101.278 41.0637C101.278 47.6216 97.8715 56.5089 92.8757 62.9284C92.4367 62.9246 92.0025 63.0209 91.6056 63.2099C91.2087 63.399 90.8595 63.676 90.5841 64.0201C87.8647 66.757 83.7932 70.1705 78.7669 70.1705C73.8781 70.1705 69.6691 66.757 67.0872 64.0201C66.4732 63.3985 65.6626 63.0123 64.7956 62.9284C59.7693 56.5089 56.3929 47.6216 56.3929 41.0637C56.3929 32.7222 58.6846 32.1764 67.6678 30.2621C68.3144 30.6931 69.0694 30.9304 69.8448 30.9463C70.725 30.9948 71.5886 30.6916 72.248 30.1029C72.9074 29.5141 73.3092 28.6872 73.3663 27.8019C73.3462 26.8795 72.9649 26.0024 72.3054 25.3617C71.6458 24.7209 70.7614 24.3683 69.8448 24.3807C69.1997 24.3857 68.568 24.5663 68.0166 24.9034C67.4653 25.2404 67.0148 25.7213 66.7129 26.295C57.4853 28.2094 51.9166 29.4395 51.9166 41.0637C51.9166 48.5749 55.5832 58.4233 61.4192 65.6654C61.3738 66.0766 61.4112 66.4928 61.5294 66.8891C61.6475 67.2854 61.8439 67.6536 62.1067 67.9718C66.5831 72.7537 71.3344 75.4855 76.3607 76.1672L76.2232 90.7744C76.2232 100.892 67.5303 109.095 56.8054 109.095C46.0806 109.095 37.2501 100.892 37.2501 90.7744V77.9585C43.4986 77.0052 48.25 71.9541 48.25 65.796C48.25 59.0998 42.2764 53.4952 35.0731 53.4952C27.8697 53.4952 21.9038 59.0921 21.9038 65.796C21.9038 71.9465 26.6551 77.0052 32.9037 77.9585V90.8128C32.9037 103.252 43.598 113.231 56.8054 113.231C70.0129 113.231 80.7072 103.237 80.7072 90.8128V76.2056L80.9211 76.1826Z" fill="#062D3E"/>
<path fill-rule="evenodd" clip-rule="evenodd" d="M35.0186 74.1375C37.2698 74.1891 39.4493 73.3398 41.079 71.776C42.7087 70.2122 43.6555 68.0615 43.7116 65.796C43.7116 61.2908 39.7699 57.6006 35.0186 57.6006C30.1298 57.6006 26.3257 61.2908 26.3257 65.796C26.3257 70.4473 30.1451 74.1375 35.0186 74.1375Z" fill="#A38CD6"/>
</g>
<defs>
<clipPath id="clip0_1806_80621">
<rect width="83.7898" height="88.8503" fill="white" transform="translate(21.8499 24.3807)"/>
</clipPath>
</defs>
</svg>
