<svg width="166" height="156" viewBox="0 0 166 156" fill="none" xmlns="http://www.w3.org/2000/svg">
<g filter="url(#filter0_i_2137_630)">
<ellipse cx="84.5" cy="78" rx="81.5" ry="78" fill="#FF9A5B" fill-opacity="0.9"/>
</g>
<path d="M30.5151 60.5859V94H26.1548V60.5859H30.5151ZM41.2554 60.5859V64.2119H15.4375V60.5859H41.2554ZM67.4404 90.397V94H49.7466V90.397H67.4404ZM50.6416 60.5859V94H46.2124V60.5859H50.6416ZM65.0996 74.9521V78.5552H49.7466V74.9521H65.0996ZM67.2109 60.5859V64.2119H49.7466V60.5859H67.2109ZM90.7339 85.5547C90.7339 84.7744 90.6115 84.0859 90.3667 83.4893C90.1372 82.8773 89.7241 82.3265 89.1274 81.8369C88.5461 81.3473 87.7352 80.8807 86.6948 80.437C85.6698 79.9933 84.3693 79.542 82.7935 79.083C81.1411 78.5934 79.6494 78.0503 78.3184 77.4536C76.9873 76.8416 75.8475 76.1455 74.8989 75.3652C73.9504 74.585 73.2236 73.6899 72.7188 72.6802C72.2139 71.6704 71.9614 70.5153 71.9614 69.2148C71.9614 67.9144 72.2292 66.7134 72.7646 65.6118C73.3001 64.5103 74.0651 63.554 75.0596 62.7432C76.0693 61.917 77.2703 61.2744 78.6626 60.8154C80.0549 60.3564 81.6077 60.127 83.3213 60.127C85.8304 60.127 87.957 60.6089 89.7012 61.5728C91.4606 62.5213 92.7993 63.7682 93.7173 65.3135C94.6353 66.8434 95.0942 68.4805 95.0942 70.2246H90.688C90.688 68.9701 90.4202 67.8608 89.8848 66.897C89.3493 65.9178 88.5384 65.1528 87.4521 64.6021C86.3659 64.036 84.9889 63.7529 83.3213 63.7529C81.7454 63.7529 80.445 63.9901 79.4199 64.4644C78.3949 64.9386 77.6299 65.5812 77.125 66.3921C76.6354 67.203 76.3906 68.1286 76.3906 69.1689C76.3906 69.8727 76.536 70.5153 76.8267 71.0967C77.1326 71.6628 77.5993 72.1906 78.2266 72.6802C78.8691 73.1698 79.68 73.6211 80.6592 74.0342C81.6536 74.4473 82.8394 74.8451 84.2163 75.2275C86.1134 75.763 87.7505 76.3597 89.1274 77.0176C90.5044 77.6755 91.6366 78.4175 92.5239 79.2437C93.4266 80.0545 94.0921 80.9801 94.5205 82.0205C94.9642 83.0456 95.186 84.2083 95.186 85.5088C95.186 86.8704 94.9106 88.1021 94.3599 89.2036C93.8091 90.3052 93.0212 91.2461 91.9961 92.0264C90.971 92.8066 89.7394 93.411 88.3013 93.8394C86.8784 94.2524 85.2873 94.459 83.5278 94.459C81.9826 94.459 80.4603 94.2448 78.9609 93.8164C77.4769 93.388 76.1229 92.7454 74.8989 91.8887C73.6903 91.0319 72.7188 89.9762 71.9844 88.7217C71.2653 87.4518 70.9058 85.9831 70.9058 84.3154H75.312C75.312 85.4629 75.5339 86.4497 75.9775 87.2759C76.4212 88.0868 77.0256 88.7599 77.7905 89.2954C78.5708 89.8309 79.4505 90.2287 80.4297 90.4888C81.4242 90.7336 82.4569 90.856 83.5278 90.856C85.0731 90.856 86.3812 90.6418 87.4521 90.2134C88.5231 89.785 89.334 89.173 89.8848 88.3774C90.4508 87.5819 90.7339 86.641 90.7339 85.5547ZM113.178 60.5859V94H108.818V60.5859H113.178ZM123.918 60.5859V64.2119H98.1006V60.5859H123.918ZM150.104 90.397V94H132.41V90.397H150.104ZM133.305 60.5859V94H128.875V60.5859H133.305ZM147.763 74.9521V78.5552H132.41V74.9521H147.763ZM149.874 60.5859V64.2119H132.41V60.5859H149.874Z" fill="white"/>
<defs>
<filter id="filter0_i_2137_630" x="3" y="0" width="163" height="160" filterUnits="userSpaceOnUse" color-interpolation-filters="sRGB">
<feFlood flood-opacity="0" result="BackgroundImageFix"/>
<feBlend mode="normal" in="SourceGraphic" in2="BackgroundImageFix" result="shape"/>
<feColorMatrix in="SourceAlpha" type="matrix" values="0 0 0 0 0 0 0 0 0 0 0 0 0 0 0 0 0 0 127 0" result="hardAlpha"/>
<feOffset dy="4"/>
<feGaussianBlur stdDeviation="2"/>
<feComposite in2="hardAlpha" operator="arithmetic" k2="-1" k3="1"/>
<feColorMatrix type="matrix" values="0 0 0 0 0 0 0 0 0 0 0 0 0 0 0 0 0 0 0.25 0"/>
<feBlend mode="normal" in2="shape" result="effect1_innerShadow_2137_630"/>
</filter>
</defs>
</svg>
