<svg width="574" height="516" viewBox="0 0 574 516" fill="none" xmlns="http://www.w3.org/2000/svg">
<path d="M326.157 71.6249C342.023 16.3497 397.743 -3.81226 455.03 0.582531C514.49 5.14397 569.284 37.3304 573.631 96.8636C577.077 144.068 552.164 177.225 511.062 200.623C463.331 227.794 413.612 223.113 370.983 188.471C333.071 157.663 312.673 118.604 326.157 71.6249Z" fill="#A38CD6"/>
<path d="M33.8592 438.054C1.17392 402.533 -14.7335 350.171 17.9832 313.73C40.5854 288.554 67.2103 281.834 100.163 289.426C127.814 295.796 139.385 310.925 158.063 333.36C176.65 355.686 192.217 367.583 220.631 373.555C263.784 382.625 286.739 344.183 328.025 328.686C350.438 320.273 383.815 321.315 412.072 333.36C442.773 346.447 455.964 362.338 460.633 388.511C463.665 405.506 458.53 428.376 441.956 452.075C422.345 480.118 379.387 501.618 326.157 511.9C302.811 516.41 232.91 520.144 175.806 506.292C116.041 491.795 65.1746 472.086 33.8592 438.054Z" fill="#A38CD6"/>
</svg>
