<svg width="683" height="686" viewBox="0 0 683 686" fill="none" xmlns="http://www.w3.org/2000/svg">
<path d="M487.723 257.717C533.607 235.314 580.033 260.07 611.197 300.461C643.542 342.384 654.896 397.655 618.222 435.918C589.142 466.257 552.464 469.544 512.596 456.351C466.299 441.03 439.824 405.46 437.322 356.751C435.097 313.432 448.726 276.758 487.723 257.717Z" fill="#A38CD6"/>
<path d="M72.2895 282.832C76.2799 240.158 101.351 198.535 144.835 198.443C174.875 198.379 195.138 211.941 209.725 238.185C221.964 260.207 218.867 276.833 215.178 302.489C211.507 328.021 212.917 345.36 225.873 367.649C245.55 401.498 284.549 393.78 319.316 411.791C338.19 421.569 357.349 444.199 366.206 469.995C375.83 498.021 373.194 516.168 358.71 534.81C349.306 546.914 331.171 557.125 305.688 560.287C275.535 564.028 235.815 548.483 197.385 519.495C180.53 506.78 136.507 462.904 111.689 417.011C85.7136 368.98 68.4664 323.718 72.2895 282.832Z" fill="#A38CD6"/>
</svg>
