<svg width="752" height="767" viewBox="0 0 752 767" fill="none" xmlns="http://www.w3.org/2000/svg">
<path d="M200.827 457.9C146.452 476.619 97.9704 442.549 68.7028 393.106C38.3255 341.789 33.2509 278.443 79.518 240.728C116.203 210.823 157.654 212.204 200.399 232.445C250.037 255.951 274.729 299.358 270.813 354.149C267.33 402.876 247.042 441.992 200.827 457.9Z" fill="#FF9A5B"/>
<path d="M668.649 487.078C658.308 534.229 624.547 577.299 575.93 571.409C542.342 567.341 521.562 549.389 508.875 518.044C498.229 491.741 503.982 473.584 511.641 445.415C519.263 417.382 520.076 397.807 508.666 371.107C491.337 330.56 446.681 333.813 410.302 308.889C390.552 295.359 372.256 267.423 365.91 237.369C359.015 204.715 364.462 184.794 383.221 165.953C395.401 153.72 417.079 144.805 445.999 144.783C480.219 144.756 522.474 167.606 561.435 205.304C578.523 221.839 621.684 276.949 643.101 331.667C665.516 388.936 678.557 441.904 668.649 487.078Z" fill="#FF9A5B"/>
</svg>
