<svg width="511" height="459" viewBox="0 0 511 459" fill="none" xmlns="http://www.w3.org/2000/svg">
<path d="M290.226 63.8277C304.313 14.7481 353.788 -3.154 404.654 0.748195C457.449 4.79836 506.102 33.3771 509.961 86.2375C513.021 128.151 490.901 157.592 454.405 178.367C412.025 202.492 367.879 198.336 330.027 167.577C296.365 140.222 278.253 105.541 290.226 63.8277Z" fill="#A38CD6"/>
<path d="M30.6908 389.185C1.66905 357.645 -12.4553 311.153 16.5942 278.796C36.663 256.442 60.3037 250.475 89.563 257.216C114.114 262.872 124.389 276.306 140.973 296.226C157.476 316.049 171.299 326.613 196.528 331.915C234.844 339.969 255.226 305.836 291.884 292.076C311.785 284.606 341.422 285.531 366.511 296.226C393.77 307.846 405.483 321.955 409.629 345.195C412.321 360.285 407.761 380.592 393.045 401.635C375.632 426.535 337.49 445.624 290.226 454.754C269.496 458.759 207.43 462.073 156.727 449.774C103.661 436.902 58.4961 419.403 30.6908 389.185Z" fill="#A38CD6"/>
</svg>
