<svg width="768" height="772" viewBox="0 0 768 772" fill="none" xmlns="http://www.w3.org/2000/svg">
<path d="M548.44 290.197C600.116 264.966 652.402 292.847 687.5 338.337C723.928 385.552 736.716 447.8 695.412 490.894C662.661 525.062 621.353 528.764 576.452 513.905C524.311 496.65 494.494 456.59 491.676 401.732C489.17 352.945 504.519 311.641 548.44 290.197Z" fill="#A38CD6"/>
<path d="M80.5633 318.483C85.0574 270.421 113.294 223.544 162.267 223.44C196.099 223.368 218.92 238.642 235.348 268.2C249.132 293.002 245.644 311.726 241.489 340.621C237.355 369.376 238.943 388.904 253.535 414.006C275.695 452.128 319.617 443.435 358.773 463.721C380.03 474.733 401.607 500.22 411.583 529.272C422.422 560.836 419.453 581.274 403.141 602.268C392.549 615.9 372.125 627.401 343.425 630.962C309.466 635.175 264.732 617.668 221.451 585.02C202.468 570.701 152.887 521.286 124.936 469.6C95.682 415.505 76.2576 364.53 80.5633 318.483Z" fill="#A38CD6"/>
</svg>
