<svg width="668" height="681" viewBox="0 0 668 681" fill="none" xmlns="http://www.w3.org/2000/svg">
<path d="M178.68 406.845C130.4 423.465 87.3524 393.214 61.3654 349.313C34.3929 303.748 29.8872 247.502 70.9683 214.014C103.542 187.461 140.346 188.688 178.3 206.66C222.375 227.531 244.298 266.073 240.821 314.723C237.729 357.988 219.715 392.719 178.68 406.845Z" fill="#FF9A5B"/>
<path d="M594.066 432.752C584.883 474.618 554.907 512.86 511.739 507.631C481.916 504.018 463.466 488.079 452.2 460.247C442.747 436.893 447.855 420.77 454.656 395.759C461.424 370.868 462.146 353.487 452.014 329.78C436.628 293.777 396.978 296.666 364.675 274.536C347.14 262.522 330.894 237.717 325.259 211.032C319.137 182.038 323.974 164.35 340.63 147.621C351.445 136.759 370.693 128.843 396.371 128.823C426.756 128.8 464.275 149.088 498.869 182.561C514.042 197.243 552.365 246.176 571.381 294.761C591.284 345.61 602.863 392.642 594.066 432.752Z" fill="#FF9A5B"/>
</svg>
