<svg width="127" height="127" viewBox="0 0 127 127" fill="none" xmlns="http://www.w3.org/2000/svg">
<path d="M26.8084 67.8211C27.6827 68.1387 28.528 68.4328 29.3496 68.7041M100.642 52.9575C100.092 53.9065 99.6038 54.5926 99.0175 55.1782M29.3496 68.7041C38.5147 71.7304 44.7264 71.9202 55.3184 70.3718C55.5201 70.3423 55.7093 70.4853 55.7317 70.6879L57.1047 83.1452C57.1245 83.3247 57.2721 83.4617 57.4526 83.4641C72.5237 83.665 92.0601 76.9168 98.035 69.3388C98.0925 69.2659 98.1165 69.1754 98.1063 69.0831L96.7807 57.0568C96.7651 56.915 96.8351 56.7775 96.958 56.705C97.8224 56.1946 98.4639 55.7312 99.0175 55.1782M29.3496 68.7041C31.1083 63.137 34.4288 59.8294 38.2571 60.8311M40.2228 61.7093C39.5566 61.2887 38.8997 60.9992 38.2571 60.8311M38.2571 60.8311C42.3446 55.3528 47.9278 53.2371 52.5106 55.8114M55.0338 57.835C54.2419 56.9795 53.3949 56.3082 52.5106 55.8114M52.5106 55.8114C57.7487 48.7844 65.3619 46.9927 68.4052 51.5786M69.4122 53.9485C69.1842 53.0251 68.8417 52.2362 68.4052 51.5786M68.4052 51.5786C74.2133 48.6761 80.8909 49.2859 83.1304 53.5425M83.891 57.494C83.9817 55.9401 83.6992 54.6236 83.1304 53.5425M83.1304 53.5425C89.7424 49.3358 96.8097 49.494 99.0175 55.1782M61.551 71.315C64.0664 69.1038 67.2724 68.4664 69.8631 69.2032M74.4772 75.1213C74.3419 71.9587 72.3967 69.9238 69.8631 69.2032M69.8631 69.2032C73.5304 63.0468 81.3324 62.9744 81.8731 67.8794M25.8262 81.0815L26.0866 83.4441M27.9802 78.4528L28.1756 80.2247M30.1611 83.8917L30.3401 85.516M48.1115 74.5898L50.2419 74.355M52.6564 74.0889L52.8843 76.1562M95.1925 42.6477L95.3878 44.4197M98.7522 44.9456L98.9963 47.1606M105.744 68.472C95.1158 88.6422 45.5694 96.2123 23.8452 86.3346C23.7306 86.2825 23.6563 86.1753 23.6425 86.0501L20.7457 59.7687C20.7387 59.7057 20.7472 59.6448 20.7733 59.587C28.9849 41.4185 94.0823 25.9317 103.964 45.5007C103.985 45.5418 103.997 45.5869 104.001 45.6327C104.595 53.1815 105.189 60.7302 105.784 68.279C105.789 68.3461 105.776 68.4125 105.744 68.472Z" stroke="#FFF8ED" stroke-width="1.79688" stroke-linecap="round"/>
</svg>
