<svg width="215" height="214" viewBox="0 0 215 214" fill="none" xmlns="http://www.w3.org/2000/svg">
<path d="M46.0221 114.349C47.4916 114.883 48.9124 115.377 50.2933 115.833M170.123 89.3656C169.199 90.9607 168.379 92.114 167.394 93.0984M50.2933 115.833C65.7711 120.944 76.2378 121.242 94.1954 118.599C94.397 118.569 94.5871 118.712 94.6094 118.915L96.9687 140.32C96.9885 140.499 97.1358 140.636 97.3163 140.639C122.727 141.044 155.802 129.628 165.802 116.824C165.859 116.751 165.883 116.66 165.873 116.568L163.616 96.097C163.601 95.9552 163.671 95.8175 163.794 95.7455C165.317 94.8554 166.434 94.057 167.394 93.0984M50.2933 115.833C53.2494 106.476 58.8307 100.916 65.2655 102.6M68.5694 104.076C67.4496 103.369 66.3455 102.882 65.2655 102.6M65.2655 102.6C72.1358 93.3917 81.5203 89.8356 89.2232 94.1627M93.4642 97.5639C92.1332 96.126 90.7095 94.9976 89.2232 94.1627M89.2232 94.1627C98.0276 82.3515 110.824 79.3398 115.939 87.0479M117.632 91.0314C117.249 89.4793 116.673 88.1534 115.939 87.0479M115.939 87.0479C125.702 82.1694 136.926 83.1944 140.69 90.3489M141.968 96.9907C142.121 94.3789 141.646 92.1662 140.69 90.3489M140.69 90.3489C151.804 83.2782 163.683 83.5441 167.394 93.0984M104.419 120.222C108.647 116.505 114.035 115.434 118.39 116.672M126.145 126.619C125.918 121.303 122.648 117.883 118.39 116.672M118.39 116.672C124.554 106.324 137.668 106.202 138.577 114.447M44.3711 136.637L44.8088 140.609M47.9917 132.219L48.32 135.197M51.6573 141.361L51.9582 144.091M81.8289 125.726L85.4099 125.331M89.4682 124.884L89.8512 128.359M160.964 72.0367L161.293 75.0151M166.948 75.899L167.358 79.622M178.733 115.382C160.916 149.369 77.3905 162.108 40.9183 145.411C40.8038 145.358 40.7296 145.251 40.7158 145.126L35.8244 100.749C35.8175 100.686 35.8259 100.625 35.8518 100.567C49.5473 69.9905 159.182 43.8965 175.729 76.8747C175.75 76.9158 175.762 76.9609 175.766 77.0067C176.768 89.734 177.77 102.461 178.772 115.188C178.777 115.256 178.764 115.322 178.733 115.382Z" stroke="#FFF8ED" stroke-width="1.79688" stroke-linecap="round"/>
</svg>
