<svg width="182" height="161" viewBox="0 0 182 161" fill="none" xmlns="http://www.w3.org/2000/svg">
<path d="M50.3915 52.5384C73.9106 57.8519 87.0294 58.7053 110.256 54.7965M50.3915 52.5384C50.3915 52.5384 25.2385 64.3306 24.7354 66.3378C24.2324 68.345 23.3779 86.123 23.7293 87.6641C24.0807 89.2052 44.3547 87.6801 46.1155 88.6677C47.8763 89.6553 35.8027 128.811 37.5635 134.833C39.3242 140.855 112.771 147.88 114.532 141.858C116.292 135.837 108.495 89.3006 110.256 88.6677C112.016 88.0348 135.303 93.3417 135.409 91.9294C135.514 90.5171 137.421 67.5923 137.421 66.3378C137.421 65.0833 110.256 54.7965 110.256 54.7965M50.3915 52.5384C51.5393 51.87 62.0262 49.3611 66.9925 48.7749M110.256 54.7965C109.03 54.2285 100.663 51.904 97.1761 51.2839M80.3236 28.9539C77.8281 27.3754 76.8058 24.7796 77.5568 21.9288C78.321 19.028 80.6082 17.5201 83.5935 17.1617C87.1394 16.736 89.7047 18.7883 91.3909 21.9288C92.9677 24.8655 92.3372 27.2645 91.3909 30.4593C89.9138 35.4467 82.3359 40.2444 82.3359 40.2444M82.3359 40.2444C82.9387 40.2155 73.7533 45.4067 66.9925 48.7749M82.3359 40.2444C82.2493 40.4474 91.2623 47.2507 97.1761 51.2839M66.9925 48.7749C78.5629 48.7749 86.1088 49.7785 97.1761 51.2839M106.483 61.5707C106.483 61.5707 114.138 58.8099 116.795 54.7965C118.405 52.3657 116.987 49.5354 119.311 47.7713C121.074 46.4327 124.844 46.5168 124.844 46.5168M124.844 46.5168C124.844 46.5168 124.513 50.2803 124.844 51.033C125.176 51.7857 134.857 52.2875 135.409 51.5348C135.961 50.7821 136.163 43.506 135.66 43.0042C135.157 42.5024 126.102 42.5025 125.348 43.0042C124.593 43.506 124.844 46.5168 124.844 46.5168ZM59.1951 78.6318H62.465M65.7349 78.6318H62.465M62.465 78.6318L60.2012 90.1731M60.2012 90.1731H56.6798M60.2012 90.1731H64.4772M119.311 71.6066C119.202 74.1946 119.195 75.2409 119.311 76.1228M127.108 69.3486C127.099 70.6197 126.985 71.5579 126.354 74.1156M126.354 79.1336C126.459 80.6033 126.442 81.4274 126.354 82.8971M46.1155 126.052C46.2669 127.619 46.2741 128.498 46.1155 130.066M48.6308 132.324C49.9184 132.635 50.6901 132.625 52.1522 132.324M61.2073 106.732C61.2073 106.732 58.5715 102.265 55.9252 102.467C53.5002 102.652 52.44 104.324 52.1522 106.732C51.7816 109.835 57.4344 110.747 57.4344 112.001C57.4344 113.005 52.954 113.769 52.9069 116.768C52.8654 119.404 54.0434 120.846 56.6798 121.034C60.2012 121.284 63.4711 115.765 63.4711 115.765L87.3664 118.023C87.3664 118.023 91.6425 122.288 94.4093 122.288C97.1762 122.288 99.4226 119.063 98.4338 116.768C97.4451 114.473 93.4032 114.51 93.4032 113.507C93.4032 112.503 99.6838 111.665 98.9369 108.489C98.333 105.92 96.801 105.071 94.1578 104.976C91.161 104.869 88.8757 108.99 88.8757 108.99L61.2073 106.732ZM85.3542 84.6533C86.2111 84.7958 88.9746 79.7912 91.894 81.1408C94.0861 82.1542 94.1863 84.2222 93.6547 85.406C91.8287 89.4724 85.7211 94.2218 85.6058 94.1875C85.4904 94.1532 78.7371 86.5836 77.8083 85.406C76.6238 83.9043 77.1413 80.9262 79.569 80.3881C81.8328 79.8863 84.4974 84.5109 85.3542 84.6533Z" stroke="black" stroke-width="2.51562" stroke-linecap="round"/>
<line x1="181" y1="32.9998" x2="181" y2="128" stroke="black" stroke-width="2" stroke-linecap="round"/>
</svg>
