<svg width="192" height="192" viewBox="0 0 192 192" fill="none" xmlns="http://www.w3.org/2000/svg">
<path d="M24.5076 93.1605C31.6348 61.9865 118.043 24.2658 146.252 44.5289M24.5076 93.1605L33.3429 116.041C33.3878 116.157 33.4918 116.238 33.6142 116.251C55.7265 118.593 78.4264 115.171 98.445 107.615M24.5076 93.1605C26.1651 97.4384 29.2603 100.46 33.4157 102.413M146.252 44.5289C146.393 44.8454 146.519 45.1651 146.629 45.4877M146.252 44.5289L146.629 45.4877M33.4157 102.413C35.1973 82.2496 97.2573 39.8528 145.857 55.4399M33.4157 102.413C51.4438 110.888 89.4286 99.2595 116.558 82.9011C124.875 77.5891 129.275 74.2457 136.75 67.7734C141.001 63.6104 144.168 59.4338 145.857 55.4399M145.857 55.4399C147.339 51.9379 147.684 48.5763 146.629 45.4877M98.445 107.615C99.8744 110.915 103.79 112.259 105.572 111.865C107.353 111.471 109.718 105.007 108.988 103.136M98.445 107.615C96.4808 104.293 98.6425 99.1666 102.305 98.4601C105.39 97.8651 107.65 99.7071 108.988 103.136M108.988 103.136C128.751 93.7559 144.955 80.1983 153.89 64.3148C153.942 64.2223 153.95 64.1119 153.912 64.0147L146.629 45.4877M147.44 63.2334L147.737 66.3508M145.064 69.7799L142.689 72.5856M115.667 47.3345L120.121 46.711M123.091 43.9053L127.842 43.9053M38.4637 111.865L41.433 111.865M47.3718 111.865L50.0442 111.865M142.095 116.772L142.689 123.631M139.422 121.177L145.955 117.708M108.822 132.564C106.347 132.364 104.607 129.843 104.962 127.265C105.206 125.49 106.049 124.298 107.634 123.631C110.583 122.39 114.428 127.102 112.979 130.07C112.126 131.817 110.686 132.715 108.822 132.564ZM108.822 132.564C106.42 136.844 104.59 138.931 99.9136 141.738M108.822 132.564C109.499 136.431 109.69 138.663 108.988 142.993M99.9136 141.738C95.6054 139.77 92.4621 135.916 92.1933 130.694C91.8053 123.157 97.8188 117.626 104.962 116.772C113.035 115.808 120.882 121.554 120.402 130.07C120.023 136.815 115.093 141.922 108.988 142.993M99.9136 141.738C101.648 142.53 103.571 143.016 105.572 143.163C106.736 143.249 107.881 143.187 108.988 142.993M127.348 106.079C126.418 108.737 124.859 111.521 122.778 113.44C122.39 113.798 122.511 114.575 122.949 114.862C125.435 116.494 127.034 120.819 128.019 123.631C128.23 124.233 128.903 124.108 128.931 123.467C129.075 120.14 129.48 117.378 132.856 115.361C133.397 115.038 133.332 113.786 132.812 113.427C130.633 111.924 129.483 108.863 128.59 106.066C128.401 105.474 127.553 105.492 127.348 106.079ZM86.786 143.072C82.1217 145.311 81.9947 148.625 81.8531 152.711C81.8407 153.069 81.4337 153.154 81.3157 152.82C80.3136 149.982 78.487 144.253 75.3675 142.787C75.1068 142.665 75.0447 142.267 75.2723 142.078C77.8238 139.964 79.6564 136.539 80.5908 133.442C80.6919 133.107 81.1704 133.083 81.273 133.412C82.329 136.803 83.656 140.907 86.7506 142.192C87.0729 142.325 87.1065 142.918 86.786 143.072Z" stroke="#FFF8ED" stroke-width="1.70659" stroke-linecap="round"/>
</svg>
