<svg width="114" height="114" viewBox="0 0 114 114" fill="none" xmlns="http://www.w3.org/2000/svg">
<path d="M14.5806 55.4251C18.8209 36.8783 70.2291 14.4367 87.0116 26.4921M14.5806 55.4251L19.8077 68.9612C19.8525 69.0775 19.9566 69.158 20.079 69.1708C33.2091 70.5477 46.6835 68.5107 58.5692 64.0245M14.5806 55.4251C15.5667 57.9702 17.4082 59.7678 19.8804 60.93M87.0116 26.4921C87.0956 26.6804 87.1702 26.8705 87.2358 27.0625M87.0116 26.4921L87.2358 27.0625M19.8804 60.93C20.9404 48.9337 57.8625 23.7101 86.7767 32.9835M19.8804 60.93C30.6061 65.972 53.2049 59.0537 69.3455 49.3213C74.2936 46.161 76.9111 44.1718 81.3584 40.3212C83.8874 37.8444 85.7715 35.3596 86.7767 32.9835M86.7767 32.9835C87.6581 30.9 87.8638 28.9001 87.2358 27.0625M58.5692 64.0245C59.4196 65.9882 61.7491 66.7874 62.809 66.5532C63.869 66.3189 65.2759 62.4729 64.8417 61.3601M58.5692 64.0245C57.4006 62.0483 58.6866 58.9984 60.8658 58.5781C62.701 58.2241 64.0457 59.3199 64.8417 61.3601M64.8417 61.3601C76.5747 55.791 86.1994 47.747 91.5226 38.3228C91.5748 38.2303 91.5825 38.1199 91.5443 38.0227L87.2358 27.0625M87.7182 37.6202L87.8949 39.4748M86.305 41.515L84.8917 43.1842M68.8155 28.1612L71.4654 27.7903M73.232 26.1211L76.0586 26.1211M22.8837 66.5532L24.6503 66.5532M28.1835 66.5532L29.7735 66.5532M84.5383 69.4729L84.8917 73.5532M82.9484 72.093L86.8349 70.0293M64.7427 78.868C63.2707 78.7487 62.2352 77.2492 62.4462 75.7151C62.5913 74.6593 63.093 73.9498 64.0361 73.5532C65.7908 72.8152 68.078 75.6182 67.216 77.3843C66.7087 78.4236 65.8519 78.9579 64.7427 78.868ZM64.7427 78.868C63.3136 81.4146 62.2248 82.6557 59.4429 84.3258M64.7427 78.868C65.1456 81.1685 65.259 82.4962 64.8417 85.0727M59.4429 84.3258C56.8798 83.155 55.0096 80.8619 54.8497 77.7552C54.6189 73.2716 58.1966 69.9806 62.4462 69.4729C67.2495 68.8989 71.9177 72.3178 71.6325 77.3843C71.4066 81.397 68.4738 84.4355 64.8417 85.0727M59.4429 84.3258C60.4748 84.7971 61.6189 85.0865 62.809 85.1739C63.5016 85.2248 64.1832 85.1882 64.8417 85.0727M75.7646 63.1107C75.2118 64.6921 74.284 66.3483 73.0458 67.4904C72.8149 67.7034 72.8871 68.1654 73.1478 68.3364C74.627 69.3069 75.5778 71.8801 76.1642 73.5532C76.2898 73.9113 76.6898 73.837 76.7063 73.4558C76.7921 71.4763 77.0329 69.8331 79.042 68.6328C79.3636 68.4407 79.3248 67.6958 79.0155 67.4826C77.7193 66.5886 77.0352 64.7671 76.5039 63.1032C76.3914 62.7509 75.8866 62.7618 75.7646 63.1107ZM51.1458 85.3755C49.0364 86.5905 48.8035 88.271 48.7184 90.3026C48.7034 90.6605 48.3146 90.7373 48.1976 90.4029C47.6049 88.7094 46.6318 86.0425 45.1018 85.0932C44.8569 84.9412 44.795 84.5262 45.0143 84.3275C46.2861 83.1746 47.2353 81.4782 47.7931 79.8651C47.9076 79.5342 48.3957 79.5133 48.5003 79.8422C49.048 81.5648 49.7547 83.4702 51.1334 84.3464C51.4281 84.5337 51.4546 85.1977 51.1458 85.3755Z" stroke="#FFF8ED" stroke-width="1.70659" stroke-linecap="round"/>
</svg>
