<svg width="48" height="48" viewBox="0 0 48 48" fill="none" xmlns="http://www.w3.org/2000/svg">
<path d="M13.3235 11.0276C13.4147 10.7543 35.5038 10.7494 35.5364 10.8944C35.5691 11.0393 35.4701 12.7589 35.4701 12.7589V13.8243C35.4701 13.8243 41.8819 31.9851 40.841 32.9354C40.4292 33.3113 40.2728 33.4514 40.2227 33.4943C39.6623 34.1428 35.5217 36.7922 34.4755 36.8641C33.481 37.3302 13.5225 37.3302 10.4724 36.6643C9.34517 36.4182 8.25868 35.868 7.55486 34.6666C6.73906 33.2741 7.15694 30.6048 7.15694 30.6048C8.85082 24.0434 10.0622 20.2827 13.1246 13.2916C13.1246 13.2916 13.2323 11.3009 13.3235 11.0276Z" fill="#FACE50"/>
<path d="M35.4701 13.8243C35.4701 13.8243 41.8819 31.9851 40.841 32.9354C39.9658 33.7344 40.2443 33.468 40.2443 33.468M35.4701 13.8243V12.7589M35.4701 13.8243L34.7285 31.0043M34.4755 36.8641C33.481 37.3302 13.5225 37.3302 10.4724 36.6643C9.34517 36.4182 8.25868 35.868 7.55486 34.6666C6.73906 33.2741 7.15694 30.6048 7.15694 30.6048M34.4755 36.8641L34.671 32.3361M34.4755 36.8641C35.5365 36.7912 39.7802 34.0672 40.2443 33.468M7.15694 30.6048C8.85082 24.0434 10.0622 20.2827 13.1246 13.2916M7.15694 30.6048C7.97342 31.1908 8.9013 31.3548 12.5279 31.4642C19.8594 31.7561 27.4254 31.9136 34.7285 31.0043M13.1246 13.2916C13.1246 13.2916 13.2323 11.3009 13.3235 11.0276C13.4147 10.7543 35.5038 10.7494 35.5364 10.8944C35.5691 11.0393 35.4701 12.7589 35.4701 12.7589M13.1246 13.2916C18.1351 13.2988 20.9057 13.2289 25.7893 12.9897M35.4701 12.7589C34.1456 12.7737 33.4187 12.7904 32.1548 12.838M34.671 32.3361C37.0078 33.26 38.3183 33.3504 40.2443 33.468M34.671 32.3361L34.7285 31.0043M8.74831 32.7356V33.6678M10.0081 34.0008V34.933M34.144 13.8243C34.123 14.2549 34.118 14.466 34.144 14.69M32.7515 14.8898C32.7244 15.0831 32.7212 15.2573 32.7515 15.7554" stroke="black" stroke-width="0.75" stroke-linecap="round"/>
</svg>
