<svg width="49" height="47" viewBox="0 0 49 47" fill="none" xmlns="http://www.w3.org/2000/svg">
<path fill-rule="evenodd" clip-rule="evenodd" d="M24.5 2.69045L23.5543 8.19736C22.2856 15.5854 16.2486 21.376 8.54618 22.5929L2.80494 23.5L8.54618 24.4071C16.2486 25.624 22.2856 31.4146 23.5543 38.8026L24.5 44.3095L25.4457 38.8026C26.7144 31.4146 32.7514 25.624 40.4538 24.4071L46.1951 23.5L40.4538 22.5929C32.7514 21.376 26.7144 15.5854 25.4457 8.19736L24.5 2.69045ZM22.6779 8.05888L24.0618 0L24.9382 3.17405e-08L26.3221 8.05888C27.529 15.0866 33.2715 20.5947 40.5982 21.7522L49 23.0796V23.9203L40.5982 25.2478C33.2715 26.4053 27.529 31.9134 26.3221 38.9411L24.9382 47H24.0618L22.6779 38.9411C21.471 31.9134 15.7285 26.4053 8.40181 25.2478L0 23.9203L3.30912e-08 23.0796L8.40181 21.7522C15.7285 20.5947 21.471 15.0866 22.6779 8.05888Z" fill="#A38CD6"/>
</svg>
