<svg width="82" height="79" viewBox="0 0 82 79" fill="none" xmlns="http://www.w3.org/2000/svg">
<path fill-rule="evenodd" clip-rule="evenodd" d="M40.6219 5.36295L39.0587 14.5021C36.9614 26.7631 26.9819 36.373 14.2493 38.3926L4.75868 39.8979L14.2493 41.4033C26.9819 43.4229 36.9614 53.0328 39.0587 65.2938L40.6219 74.4329L42.1852 65.2938C44.2825 53.0328 54.262 43.4229 66.9946 41.4033L76.4852 39.8979L66.9946 38.3926C54.262 36.373 44.2825 26.7631 42.1852 14.5021L40.6219 5.36295ZM37.6098 14.2723L39.8975 0.897949L41.3464 0.897949L43.6341 14.2723C45.629 25.9352 55.1217 35.0763 67.2332 36.9974L81.1219 39.2003V40.5956L67.2332 42.7985C55.1217 44.7196 45.629 53.8607 43.6341 65.5236L41.3464 78.898H39.8975L37.6098 65.5236C35.6149 53.8607 26.1222 44.7196 14.0107 42.7985L0.121948 40.5956L0.121948 39.2003L14.0107 36.9974C26.1222 35.0763 35.6149 25.9352 37.6098 14.2723Z" fill="#A38CD6"/>
</svg>
