<svg width="332" height="359" viewBox="0 0 332 359" fill="none" xmlns="http://www.w3.org/2000/svg">
<g clip-path="url(#clip0_864_385)">
<path d="M170.079 16.4462C169.459 16.7562 168.84 17.1696 168.22 17.6863C165.743 19.5465 163.987 22.3367 161.922 24.817C158.309 29.4674 154.075 33.4978 149.429 36.7014C149.119 39.1816 147.054 41.1451 144.886 41.1451C144.783 43.0053 144.577 44.7621 144.473 46.6223C138.691 53.6496 134.148 62.1237 131.361 71.2179C130.225 71.3213 128.986 71.5279 127.85 71.7346C125.682 76.3851 123.617 80.9322 121.449 85.5826C120.21 85.8926 119.177 86.926 118.145 87.9595C116.08 90.1297 114.015 92.2999 112.879 95.1935C111.434 98.9138 111.847 103.358 110.401 107.078C109.575 109.041 108.336 110.695 107.717 112.658C107.2 114.312 107.304 116.275 108.233 117.619C108.026 118.136 107.717 118.549 107.51 119.066C104.516 120.616 101.935 123.199 100.283 126.61C99.4568 127.023 98.5276 127.436 97.7016 127.746C96.0496 130.123 94.3976 132.5 92.7456 134.877C91.1969 134.98 89.6482 135.187 88.0994 135.29C86.241 137.461 84.4857 139.631 82.6272 141.904C84.7955 142.421 86.8605 143.041 89.0287 143.661C89.2352 144.901 88.8222 146.245 87.9962 147.175C88.0994 150.172 88.2027 153.169 88.3059 156.166C87.5832 157.613 86.7572 159.163 86.0345 160.609L84.6922 163.296C84.3825 164.02 83.9695 164.743 83.6597 165.363C83.6597 165.467 83.5565 165.57 83.5565 165.57C80.9753 164.743 78.3941 164.64 75.8128 165.157C76.6388 167.843 77.5681 170.427 78.3941 173.114C76.0193 177.144 73.6446 181.278 71.2699 185.308C72.4056 187.065 71.0634 189.649 69.3082 190.269C67.5529 190.889 65.6944 190.062 63.9392 189.339C64.7652 192.956 63.9392 196.986 61.8742 199.776C63.1132 200.396 63.2165 202.463 62.597 203.807C61.9775 205.15 60.7385 205.977 59.8093 206.907C56.9183 209.801 55.3696 214.038 53.8208 218.068C52.8916 220.652 51.9624 223.235 51.0331 225.819C48.7616 232.123 43.5992 233.88 40.9147 239.977C40.605 240.7 41.431 243.284 41.844 245.247C41.3277 246.281 40.7082 247.211 40.192 248.244C39.9855 248.348 39.8823 248.348 39.6758 248.451C37.5075 249.278 35.1328 253.618 35.0296 253.618C35.0296 253.618 34.5133 255.272 34.4101 256.718L33.9971 256.615C33.9971 255.168 34.1003 253.721 34.2036 252.275C34.2036 251.758 34.3068 251.241 34.3068 250.724C34.5133 247.624 34.8231 244.421 35.2361 241.32C35.3393 240.7 35.3393 240.08 35.4426 239.563C35.5458 238.943 35.649 238.323 35.649 237.807C36.062 234.706 36.5783 231.606 36.9913 228.506C37.1978 227.472 37.301 226.542 37.5075 225.612C37.8173 223.545 38.2303 221.375 38.6433 219.308C38.8498 217.965 39.1595 216.621 39.4693 215.278C39.6758 214.038 39.9855 212.798 40.2952 211.558C40.2952 211.454 40.2952 211.351 40.3985 211.247C41.2245 207.217 42.257 203.187 43.1862 199.156C43.2895 198.95 43.2895 198.64 43.3927 198.33C43.5992 197.296 43.909 196.366 44.2187 195.333C44.4252 194.609 44.6317 193.886 44.7349 193.163C45.0447 191.922 45.4577 190.682 45.7674 189.442C46.3869 187.272 47.0064 185.205 47.6259 183.035C48.2454 180.968 48.8649 178.901 49.5876 176.731C50.0006 175.388 50.4136 174.147 50.8266 172.804C51.2396 171.46 51.6526 170.22 52.1689 168.877C58.467 150.275 66.1074 132.087 75.0901 114.829C76.4323 112.245 77.7746 109.661 79.1168 107.181C79.22 106.975 79.3233 106.768 79.4265 106.665C79.9428 105.631 80.5623 104.598 81.0785 103.668L82.111 101.911C85.7247 95.6068 89.5449 89.5096 93.4684 83.5157C95.2236 80.8288 97.0821 78.2452 98.9406 75.6617C99.3536 75.0416 99.8698 74.4215 100.283 73.8015C101.522 72.148 102.761 70.4945 104 68.841C107.717 64.0873 111.537 59.4368 115.564 55.0964C119.487 50.6527 123.824 46.519 128.16 42.4886C130.328 40.5251 132.6 38.6649 134.871 36.7014C136.007 35.7713 137.143 34.8412 138.278 34.0145L141.789 31.4309C143.028 30.6042 144.164 29.6741 145.403 28.9507C146.641 28.2273 147.88 27.4005 149.119 26.6771C151.597 25.2303 153.972 23.6802 156.657 22.4401C157.792 21.82 159.031 21.3033 160.167 20.6833C160.27 20.6833 160.374 20.5799 160.477 20.5799C161.716 19.9599 163.058 19.3398 164.4 18.9264C166.156 17.7897 168.117 17.0663 170.079 16.4462Z" fill="#EBE3CC"/>
<path d="M170.079 16.4462C169.459 16.7562 168.84 17.1696 168.22 17.6863C165.743 19.5465 163.987 22.3367 161.922 24.817C158.309 29.4674 154.075 33.4978 149.429 36.7014C149.119 39.1816 147.054 41.1451 144.886 41.1451C144.783 43.0053 144.577 44.7621 144.473 46.6223C138.691 53.6496 134.148 62.1237 131.361 71.2179C130.225 71.3213 128.986 71.5279 127.85 71.7346C125.682 76.3851 123.617 80.9322 121.449 85.5826C120.21 85.8926 119.177 86.926 118.145 87.9595C116.08 90.1297 114.015 92.2999 112.879 95.1935C111.434 98.9138 111.847 103.358 110.401 107.078C109.575 109.041 108.336 110.695 107.717 112.658C107.2 114.312 107.304 116.275 108.233 117.619C108.026 118.136 107.717 118.549 107.51 119.066C104.516 120.616 101.935 123.199 100.283 126.61C99.4568 127.023 98.5276 127.436 97.7016 127.746C96.0496 130.123 94.3976 132.5 92.7456 134.877C91.1969 134.98 89.6482 135.187 88.0994 135.29C86.241 137.461 84.4857 139.631 82.6272 141.904C84.7955 142.421 86.8605 143.041 89.0287 143.661C89.2352 144.901 88.8222 146.245 87.9962 147.175C88.0994 150.172 88.2027 153.169 88.3059 156.166C87.5832 157.613 86.7572 159.163 86.0345 160.609L84.6922 163.296C84.3825 164.02 83.9695 164.743 83.6597 165.363C83.6597 165.467 83.5565 165.57 83.5565 165.57C80.9753 164.743 78.3941 164.64 75.8128 165.157C76.6388 167.843 77.5681 170.427 78.3941 173.114C76.0193 177.144 73.6446 181.278 71.2699 185.308C72.4056 187.065 71.0634 189.649 69.3082 190.269C67.5529 190.889 65.6944 190.062 63.9392 189.339C64.7652 192.956 63.9392 196.986 61.8742 199.776C63.1132 200.396 63.2165 202.463 62.597 203.807C61.9775 205.15 60.7385 205.977 59.8093 206.907C56.9183 209.801 55.3696 214.038 53.8208 218.068C52.8916 220.652 51.9624 223.235 51.0331 225.819C48.7616 232.123 43.5992 233.88 40.9147 239.977C40.605 240.7 41.431 243.284 41.844 245.247C41.3277 246.281 40.7082 247.211 40.192 248.244C39.9855 248.348 39.8823 248.348 39.6758 248.451C37.5075 249.278 35.1328 253.618 35.0296 253.618C35.0296 253.618 34.5133 255.272 34.4101 256.718L33.9971 256.615C33.9971 255.168 34.1003 253.721 34.2036 252.275C34.2036 251.758 34.3068 251.241 34.3068 250.724C34.5133 247.624 34.8231 244.421 35.2361 241.32C35.3393 240.7 35.3393 240.08 35.4426 239.563C35.3393 238.013 35.2361 236.463 34.9263 234.913C34.6166 233.57 34.3068 232.226 34.5133 230.779C34.8231 228.712 36.2685 227.162 37.5075 225.509C37.9205 223.442 38.2303 221.272 38.6433 219.205C38.8498 217.861 39.1595 216.518 39.4693 215.175C39.6758 213.934 39.9855 212.694 40.2952 211.454C40.2952 211.351 40.2952 211.247 40.3985 211.144C39.9855 208.974 39.0563 207.01 37.9205 205.254C39.366 202.877 41.2245 200.707 43.2895 199.053C43.3927 198.846 43.3927 198.536 43.496 198.226C43.7025 197.193 44.0122 196.263 44.3219 195.229C44.5284 194.506 44.7349 193.783 44.8382 193.059C45.1479 191.819 45.5609 190.579 45.8707 189.339C44.8382 184.792 46.3869 179.521 49.5876 176.731C50.0006 175.388 50.4136 174.147 50.8266 172.804C51.2396 171.46 51.6526 170.22 52.1689 168.877C51.9624 168.05 51.9624 167.12 51.9624 166.293C52.3754 161.23 53.9241 156.372 56.5053 152.239C57.641 150.379 59.0865 148.725 59.9125 146.658C61.8742 142.111 61.2547 136.324 64.0425 132.397C65.1782 130.847 66.7269 129.71 67.4497 127.953C68.8952 124.75 67.7594 120.099 70.2374 118.032C70.9601 117.412 71.8894 117.205 72.5089 116.379C73.5414 114.829 72.4056 112.452 72.9219 110.592C73.6446 108.008 76.7421 107.905 79.1168 107.181C79.22 106.975 79.3233 106.768 79.4265 106.665C79.9428 105.631 80.5623 104.598 81.0785 103.668L82.111 101.911V101.807C82.3175 98.2937 84.8987 95.6068 86.8604 93.0233C88.8222 90.3363 90.3709 86.306 88.6157 83.4124C89.8547 84.1358 91.3001 82.5856 91.9196 81.0355C92.5391 79.4853 92.9521 77.6252 94.1911 76.9018C95.2236 76.2817 96.3593 76.5917 97.4951 76.3851C98.1146 76.2817 98.6308 75.9717 99.0438 75.6617C99.4568 75.0416 99.973 74.4215 100.386 73.8015C101.315 71.838 101.315 69.2544 99.8698 67.7043C102.864 66.8775 105.032 63.1572 104.516 59.6435C106.581 61.4003 109.265 58.8168 110.711 56.4399C114.015 51.3761 117.319 46.4156 120.623 41.3518C121.346 40.3184 122.068 39.1816 123.101 38.6649C125.062 37.6315 127.54 38.8716 129.399 37.6315C130.328 37.0114 130.844 35.8747 131.464 34.8412C135.387 28.9507 143.131 29.054 148.397 24.817C150.358 23.2668 151.907 20.9933 153.972 19.6498C156.037 18.203 158.825 17.6863 160.683 19.5465C160.477 19.9599 160.374 20.2699 160.167 20.5799C160.27 20.5799 160.374 20.4766 160.477 20.4766C161.716 19.8565 163.058 19.2365 164.4 18.8231C166.156 17.7897 168.117 17.0663 170.079 16.4462Z" fill="#EBE3CC"/>
<path d="M307.399 82.8956C306.78 83.2057 306.16 83.619 305.541 84.1357C303.063 85.9959 301.307 88.7862 299.346 91.2664C295.732 95.9168 291.499 99.9472 286.853 103.151C286.543 105.631 284.478 107.595 282.31 107.595C282.103 109.455 282 111.212 281.897 113.072C276.115 120.099 271.572 128.573 268.784 137.667C267.648 137.771 266.409 137.977 265.274 138.081C263.105 142.731 261.04 147.278 258.872 151.929C257.633 152.239 256.601 153.272 255.568 154.306C253.503 156.476 251.438 158.646 250.302 161.643C248.857 165.363 249.27 169.807 247.824 173.527C246.998 175.491 245.759 177.144 245.14 179.108C244.624 180.761 244.727 182.725 245.553 184.068C245.346 184.585 245.037 184.998 244.83 185.515C241.836 186.962 239.255 189.649 237.603 193.059C236.777 193.472 235.848 193.783 235.022 194.196C233.37 196.573 231.718 198.95 230.066 201.327C228.517 201.43 226.968 201.637 225.419 201.74C223.561 203.91 221.806 206.08 219.947 208.354C222.116 208.871 224.181 209.491 226.349 210.007C226.555 211.247 226.142 212.591 225.316 213.521C225.419 216.518 225.523 219.515 225.626 222.512C224.903 224.062 224.077 225.509 223.355 227.059C222.219 228.402 221.29 230.056 220.98 231.813C220.98 231.916 220.877 232.019 220.877 232.123C218.295 231.296 215.714 231.193 213.133 231.709C213.959 234.396 214.888 236.98 215.714 239.667C213.339 243.697 210.965 247.831 208.59 251.861C209.726 253.618 208.383 256.202 206.628 256.822C204.873 257.442 202.911 256.718 201.259 255.892C202.085 259.509 201.259 263.539 199.194 266.329C200.433 266.949 200.537 269.016 199.917 270.36C199.298 271.703 198.059 272.53 197.129 273.46C194.238 276.353 192.69 280.591 191.141 284.621C190.212 287.204 189.282 289.788 188.353 292.372C186.082 298.676 180.919 300.432 178.235 306.53C177.925 307.253 178.751 309.837 179.164 311.8C178.648 312.833 178.028 313.764 177.409 314.797C177.306 314.9 177.099 314.9 176.893 315.004C174.724 315.83 172.35 320.171 172.246 320.171C172.246 320.171 171.73 321.824 171.627 323.271L171.214 323.168C171.214 321.721 171.317 320.274 171.42 318.827C171.42 318.311 171.524 317.691 171.524 317.174C171.524 316.967 171.524 316.76 171.524 316.45C171.524 315.934 171.627 315.417 171.627 314.797C171.833 312.42 172.04 310.147 172.35 307.77C172.453 307.15 172.453 306.53 172.556 306.013C172.659 305.393 172.659 304.773 172.763 304.256C173.176 301.156 173.692 298.055 174.105 294.955C174.311 293.922 174.415 292.992 174.621 292.062C175.034 289.995 175.344 287.825 175.757 285.758C176.067 284.414 176.273 283.071 176.583 281.727C176.789 280.487 177.099 279.247 177.409 278.007C177.409 277.904 177.409 277.8 177.512 277.697C178.338 273.667 179.371 269.636 180.3 265.606C180.403 265.296 180.403 265.089 180.506 264.779C180.713 263.746 181.023 262.712 181.332 261.679C181.539 260.852 181.745 260.025 181.952 259.199C182.055 258.785 182.158 258.268 182.365 257.855C183.087 255.065 183.913 252.378 184.739 249.588C185.669 246.591 186.495 243.697 187.527 240.804C188.043 239.357 188.456 237.91 188.973 236.463C195.374 217.448 203.015 199.053 212.204 181.485C213.546 178.798 214.991 176.111 216.54 173.424C217.263 172.184 217.986 170.84 218.605 169.6C218.708 169.497 218.708 169.394 218.812 169.29C218.915 168.98 219.121 168.774 219.225 168.464C222.838 162.16 226.658 156.062 230.582 150.068C232.337 147.382 234.196 144.798 236.054 142.214C236.467 141.594 236.983 140.974 237.396 140.354C238.635 138.701 239.874 137.047 241.113 135.394C244.83 130.64 248.547 125.99 252.677 121.649C256.601 117.205 260.937 113.072 265.274 109.041C267.545 107.078 269.713 105.218 271.985 103.254C273.12 102.324 274.256 101.394 275.495 100.567L279.006 97.9837C280.245 97.1569 281.38 96.2269 282.619 95.5035C283.858 94.7801 285.097 93.9533 286.336 93.2299C288.814 91.7831 291.189 90.233 293.873 88.9929C295.009 88.3728 296.248 87.8561 297.384 87.236C297.487 87.236 297.59 87.1327 297.694 87.1327C298.933 86.5126 300.275 85.8926 301.617 85.4792C303.476 84.1357 305.437 83.5157 307.399 82.8956Z" fill="#EBE3CC"/>
<path d="M307.399 82.8956C306.78 83.2057 306.16 83.619 305.541 84.1357C303.063 85.9959 301.307 88.7862 299.346 91.2664C295.732 95.9168 291.499 99.9472 286.853 103.151C286.543 105.631 284.478 107.595 282.31 107.595C282.103 109.455 282 111.212 281.897 113.072C276.115 120.099 271.572 128.573 268.784 137.667C267.648 137.771 266.409 137.977 265.274 138.081C263.105 142.731 261.04 147.278 258.872 151.929C257.633 152.239 256.601 153.272 255.568 154.306C253.503 156.476 251.438 158.646 250.302 161.643C248.857 165.363 249.27 169.807 247.824 173.527C246.998 175.491 245.759 177.144 245.14 179.108C244.624 180.761 244.727 182.725 245.553 184.068C245.346 184.585 245.037 184.998 244.83 185.515C241.836 186.962 239.255 189.649 237.603 193.059C236.777 193.472 235.848 193.783 235.022 194.196C233.37 196.573 231.718 198.95 230.066 201.327C228.517 201.43 226.968 201.637 225.419 201.74C223.561 203.91 221.806 206.08 219.947 208.354C222.116 208.871 224.181 209.491 226.349 210.007C226.555 211.247 226.142 212.591 225.316 213.521C225.419 216.518 225.523 219.515 225.626 222.512C224.903 224.062 224.077 225.509 223.355 227.059C222.219 228.402 221.29 230.056 220.98 231.813C220.98 231.916 220.877 232.019 220.877 232.123C218.295 231.296 215.714 231.193 213.133 231.709C213.959 234.396 214.888 236.98 215.714 239.667C213.339 243.697 210.965 247.831 208.59 251.861C209.726 253.618 208.383 256.202 206.628 256.822C204.873 257.442 202.911 256.718 201.259 255.892C202.085 259.509 201.259 263.539 199.194 266.329C200.433 266.949 200.537 269.016 199.917 270.36C199.298 271.703 198.059 272.53 197.129 273.46C194.238 276.353 192.69 280.591 191.141 284.621C190.212 287.204 189.282 289.788 188.353 292.372C186.082 298.676 180.919 300.432 178.235 306.53C177.925 307.253 178.751 309.837 179.164 311.8C178.648 312.833 178.028 313.764 177.409 314.797C177.306 314.9 177.099 314.9 176.893 315.004C174.724 315.83 172.35 320.171 172.246 320.171C172.246 320.171 171.73 321.824 171.627 323.271L171.214 323.168C171.214 321.721 171.317 320.274 171.42 318.827C171.42 318.311 171.524 317.691 171.524 317.174C171.524 316.967 171.524 316.76 171.524 316.45C171.524 315.934 171.627 315.417 171.627 314.797C171.833 312.42 172.04 310.147 172.35 307.77C172.453 307.15 172.453 306.53 172.556 306.013C172.453 304.463 172.35 302.913 172.04 301.362C171.73 300.019 171.42 298.572 171.627 297.229C171.937 295.059 173.485 293.612 174.621 291.958C175.034 289.891 175.344 287.721 175.757 285.654C176.067 284.311 176.273 282.967 176.583 281.624C176.789 280.384 177.099 279.144 177.409 277.904C177.409 277.8 177.409 277.697 177.512 277.594C176.996 275.423 176.17 273.357 175.034 271.703C176.48 269.326 178.338 267.156 180.403 265.502C180.506 265.192 180.506 264.986 180.61 264.676C180.816 263.642 181.126 262.609 181.436 261.575C181.642 260.749 181.848 259.922 182.055 259.095C182.158 258.682 182.261 258.165 182.468 257.752C182.674 257.132 182.778 256.512 182.984 255.892C181.952 251.344 183.5 246.074 186.701 243.284C187.011 242.457 187.217 241.527 187.527 240.7C188.043 239.253 188.456 237.807 188.973 236.36C189.076 236.05 189.179 235.74 189.282 235.43C189.076 234.603 189.076 233.673 189.076 232.846C189.489 227.782 191.038 222.925 193.619 218.791C194.755 216.931 196.2 215.278 197.026 213.211C198.988 208.664 198.368 202.877 201.053 198.95C202.189 197.4 203.737 196.263 204.46 194.506C205.905 191.406 204.77 186.652 207.248 184.585C207.97 183.965 208.9 183.758 209.519 182.932C210.552 181.381 209.416 179.004 209.932 177.144C210.655 174.561 213.752 174.457 216.127 173.734C216.23 173.631 216.23 173.527 216.334 173.321C217.056 172.081 217.779 170.737 218.399 169.497C218.502 169.394 218.502 169.29 218.605 169.187C218.708 168.877 218.915 168.67 219.018 168.36V168.257C219.225 164.743 221.806 162.16 223.768 159.473C225.729 156.786 227.381 152.755 225.523 149.965C226.762 150.689 228.207 149.138 228.827 147.588C229.446 146.038 229.859 144.178 231.098 143.455C232.131 142.834 233.266 143.145 234.402 142.938C235.022 142.834 235.538 142.524 236.054 142.214C236.467 141.594 236.983 140.974 237.396 140.354C238.326 138.391 238.326 135.807 236.88 134.257C239.874 133.43 242.043 129.71 241.526 126.196C243.591 127.953 246.276 125.37 247.824 122.993C251.128 117.929 254.432 112.968 257.736 107.905C258.459 106.871 259.182 105.734 260.214 105.218C262.176 104.184 264.654 105.424 266.513 104.184C267.442 103.564 267.958 102.427 268.577 101.394C272.501 95.5035 280.245 95.6068 285.51 91.2664C287.472 89.7163 289.021 87.5461 291.086 86.0993C293.151 84.6525 295.938 84.1357 297.797 85.9959C297.59 86.3059 297.487 86.7193 297.281 87.0293C297.384 87.0293 297.487 86.926 297.59 86.926C298.829 86.3059 300.172 85.6859 301.514 85.2725C303.476 84.1357 305.437 83.5157 307.399 82.8956Z" fill="#EBE3CC"/>
<path d="M88.512 36.3914C88.099 36.598 87.686 36.9081 87.273 37.2181C85.7243 38.4582 84.4853 40.215 83.2463 41.7652C80.8716 44.7621 78.1871 47.3457 75.1929 49.4126C74.9864 50.9627 73.6442 52.3062 72.3019 52.3062C72.1987 53.4429 72.0955 54.5797 71.9922 55.8198C68.2752 60.3669 65.3843 65.7407 63.5258 71.6313C62.8031 71.7346 61.9771 71.838 61.2543 71.9413C59.9121 74.9382 58.4666 77.8318 57.1244 80.8288C56.2984 81.0355 55.6789 81.6555 55.0594 82.3789C53.7172 83.7224 52.3749 85.1692 51.6522 87.0294C50.7229 89.4062 51.0327 92.2998 50.1035 94.6767C49.5872 95.9168 48.7612 96.9503 48.3482 98.2937C48.0385 99.3272 48.0385 100.671 48.658 101.497C48.4515 101.807 48.3482 102.117 48.1417 102.427C46.18 103.358 44.528 105.114 43.4955 107.285C42.9793 107.491 42.3598 107.801 41.8435 108.008C40.8111 109.558 39.6753 111.108 38.6428 112.555C37.6104 112.658 36.6811 112.762 35.6486 112.865C34.5129 114.312 33.2739 115.655 32.1382 117.102C33.4804 117.516 34.9259 117.826 36.2681 118.239C36.3714 119.066 36.1649 119.892 35.6486 120.512L35.8551 126.3C35.3389 127.23 34.8226 128.16 34.4096 129.193C33.6869 130.02 33.0674 131.053 32.8609 132.294C32.8609 132.294 32.8609 132.397 32.7577 132.5C31.1057 131.983 29.4537 131.88 27.8017 132.19C28.318 133.947 28.9375 135.6 29.4537 137.254C27.905 139.838 26.3562 142.524 24.9108 145.108C25.6335 146.245 24.8075 147.898 23.6718 148.312C22.536 148.725 21.297 148.208 20.1613 147.692C20.6775 149.965 20.1613 152.549 18.8191 154.409C19.6451 154.822 19.6451 156.166 19.2321 156.992C18.8191 157.819 18.0963 158.336 17.3736 159.059C15.5151 160.919 14.4826 163.606 13.5534 166.19C12.9339 167.843 12.3144 169.497 11.7982 171.15C10.3527 175.181 7.04871 176.318 5.29348 180.245C5.08698 180.658 5.60323 182.311 5.91297 183.552C5.49998 184.172 5.19023 184.792 4.77724 185.515C4.67399 185.515 4.57074 185.618 4.46749 185.618C3.12526 186.135 1.57652 188.925 1.47328 188.925C1.47328 188.925 1.16353 189.959 1.06028 190.992L0.957031 190.786C0.957031 189.752 1.06028 188.719 1.06028 187.685C1.06028 187.169 1.16353 186.652 1.16353 186.135C1.16353 185.618 1.26678 184.998 1.26678 184.482C1.26678 183.965 1.37003 183.552 1.37003 183.035C1.37003 182.725 1.47328 182.415 1.47328 182.105C1.47328 181.691 1.57652 181.381 1.57652 180.968C1.57652 180.555 1.67977 180.038 1.78302 179.625C1.78302 179.211 1.88627 178.798 1.88627 178.488C2.09277 176.421 2.40251 174.457 2.81551 172.494C2.91876 171.874 3.02201 171.254 3.12526 170.634C3.33175 169.29 3.6415 167.947 3.848 166.603C4.15774 164.847 4.57074 163.09 4.88049 161.436C5.39673 158.853 6.01622 156.269 6.73896 153.686C6.94546 152.652 7.25521 151.619 7.56495 150.585C7.8747 149.552 8.0812 148.518 8.39094 147.485C8.80394 146.141 9.21693 144.798 9.52668 143.351C9.93968 142.008 10.3527 140.664 10.7657 139.321C11.2819 137.667 11.7982 135.911 12.4176 134.257C16.4444 122.269 21.4003 110.695 27.079 99.5338C27.905 97.8804 28.8342 96.2269 29.6602 94.5734C29.7634 94.47 29.8667 94.2634 29.8667 94.16C30.2797 93.4366 30.5894 92.8166 31.0024 92.0932C31.2089 91.7831 31.3122 91.4731 31.5187 91.1631C33.7901 87.1327 36.2681 83.2057 38.8493 79.382C39.9851 77.6252 41.1208 75.9717 42.3598 74.3182C42.6695 73.9048 42.9793 73.4914 43.1858 73.0781C44.0118 72.0446 44.7345 70.9079 45.5605 69.8744C47.9352 66.8775 50.4132 63.8806 52.9944 60.987C55.5756 58.0934 58.2601 55.5098 61.0478 52.8229C62.4933 51.5828 63.9388 50.3426 65.3843 49.1025C66.107 48.4825 66.8298 47.9658 67.6557 47.3457L69.9272 45.6922C70.7532 45.1755 71.476 44.5554 72.1987 44.0387C73.0247 43.522 73.7474 43.0053 74.5734 42.5919C76.1222 41.6618 77.6709 40.6284 79.4261 39.905C80.1488 39.4916 80.9748 39.1816 81.6976 38.7682C81.8008 38.7682 81.8008 38.6649 81.9041 38.6649C82.7301 38.2515 83.5561 37.8382 84.3821 37.6315C85.9308 37.3214 87.273 36.8047 88.512 36.3914Z" fill="#EBE3CC"/>
<path d="M88.512 36.3914C88.099 36.598 87.686 36.9081 87.273 37.2181C85.7243 38.4582 84.4853 40.215 83.2463 41.7652C80.8716 44.7621 78.1871 47.3457 75.1929 49.4126C74.9864 50.9627 73.6442 52.3062 72.3019 52.3062C72.1987 53.4429 72.0955 54.5797 71.9922 55.8198C68.2752 60.3669 65.3843 65.7407 63.5258 71.6313C62.8031 71.7346 61.9771 71.838 61.2543 71.9413C59.9121 74.9382 58.4666 77.8318 57.1244 80.8288C56.2984 81.0355 55.6789 81.6555 55.0594 82.3789C53.7172 83.7224 52.3749 85.1692 51.6522 87.0294C50.7229 89.4062 51.0327 92.2998 50.1035 94.6767C49.5872 95.9168 48.7612 96.9503 48.3482 98.2937C48.0385 99.3272 48.0385 100.671 48.658 101.497C48.4515 101.807 48.3482 102.117 48.1417 102.427C46.18 103.358 44.528 105.114 43.4955 107.285C42.9793 107.491 42.3598 107.801 41.8435 108.008C40.8111 109.558 39.6753 111.108 38.6428 112.555C37.6104 112.658 36.6811 112.762 35.6486 112.865C34.5129 114.312 33.2739 115.655 32.1382 117.102C33.4804 117.516 34.9259 117.826 36.2681 118.239C36.3714 119.066 36.1649 119.892 35.6486 120.512L35.8551 126.3C35.3389 127.23 34.8226 128.16 34.4096 129.193C33.6869 130.02 33.0674 131.053 32.8609 132.294C32.8609 132.294 32.8609 132.397 32.7577 132.5C31.1057 131.983 29.4537 131.88 27.8017 132.19C28.318 133.947 28.9375 135.6 29.4537 137.254C27.905 139.838 26.3562 142.524 24.9108 145.108C25.6335 146.245 24.8075 147.898 23.6718 148.312C22.536 148.725 21.297 148.208 20.1613 147.692C20.6775 149.965 20.1613 152.549 18.8191 154.409C19.6451 154.822 19.6451 156.166 19.2321 156.992C18.8191 157.819 18.0963 158.336 17.3736 159.059C15.5151 160.919 14.4826 163.606 13.5534 166.19C12.9339 167.843 12.3144 169.497 11.7982 171.15C10.3527 175.181 7.04871 176.318 5.29348 180.245C5.08698 180.658 5.60323 182.311 5.91297 183.552C5.49998 184.172 5.19023 184.792 4.77724 185.515C4.67399 185.515 4.57074 185.618 4.46749 185.618C3.12526 186.135 1.57652 188.925 1.47328 188.925C1.47328 188.925 1.16353 189.959 1.06028 190.992L0.957031 190.786C0.957031 189.752 1.06028 188.719 1.06028 187.685C1.06028 187.169 1.16353 186.652 1.16353 186.135C1.16353 185.618 1.26678 184.998 1.26678 184.482C1.26678 183.965 1.37003 183.552 1.37003 183.035C1.37003 182.725 1.47328 182.415 1.47328 182.105C1.47328 181.691 1.57652 181.381 1.57652 180.968C1.57652 180.555 1.67977 180.038 1.78302 179.625C1.67977 178.591 1.57652 177.558 1.47328 176.628C1.26678 175.801 1.06028 174.871 1.26678 174.044C1.47328 172.701 2.40251 171.667 3.2285 170.634C3.435 169.29 3.74475 167.947 3.95125 166.603C4.26099 164.847 4.67399 163.09 4.98373 161.436C4.67399 160.093 4.15774 158.749 3.33175 157.613C4.26099 156.062 5.39673 154.719 6.73896 153.686C6.94546 152.652 7.25521 151.619 7.56495 150.585C7.8747 149.552 8.0812 148.518 8.39094 147.485C7.77145 144.591 8.70069 141.181 10.7657 139.321C11.2819 137.667 11.7982 135.911 12.4176 134.257C12.2111 133.74 12.3144 133.12 12.3144 132.604C12.5209 129.4 13.5534 126.196 15.2054 123.613C15.9281 122.373 16.8573 121.339 17.3736 119.996C18.6126 117.102 18.1996 113.382 19.9548 110.798C20.6775 109.765 21.71 109.041 22.2263 107.905C23.1555 105.838 22.4328 102.841 24.0848 101.497C24.601 101.084 25.1172 100.981 25.5302 100.464C26.253 99.4305 25.427 97.8804 25.7367 96.7436C26.253 95.0901 28.2147 95.0901 29.6602 94.5734C29.7634 94.47 29.8667 94.2634 29.8667 94.16C30.2797 93.4366 30.5894 92.8166 31.0024 92.0932C31.2089 91.7831 31.3122 91.4731 31.5187 91.1631C31.5187 91.1631 31.5187 91.1631 31.5187 91.0597C31.6219 88.7862 33.2739 87.1327 34.5129 85.3759C35.7519 83.619 36.7844 81.0355 35.6486 79.1753C36.4746 79.692 37.4039 78.6586 37.7136 77.6252C38.0233 76.5917 38.3331 75.455 39.1591 74.9382C39.7786 74.5249 40.5013 74.7316 41.2241 74.6282C41.6371 74.5249 41.9468 74.4215 42.2565 74.1115C42.5663 73.6981 42.876 73.2848 43.0825 72.8714C43.702 71.6313 43.702 69.9778 42.7728 68.9444C44.7345 68.4276 46.0768 66.0508 45.767 63.7772C47.1092 64.914 48.7612 63.2605 49.7937 61.7104C51.9619 58.5067 54.0269 55.1998 56.1951 51.9961C56.6081 51.2727 57.1244 50.6527 57.7439 50.2393C58.9828 49.6192 60.6348 50.3426 61.7706 49.6192C62.3901 49.2059 62.6998 48.4825 63.1128 47.8624C65.694 44.0387 70.65 44.1421 73.9539 41.3518C75.1929 40.3184 76.2254 38.9749 77.5676 38.0448C78.9099 37.1148 80.6651 36.8047 81.8008 37.9415C81.6976 38.1482 81.5943 38.4582 81.4911 38.6649C81.5943 38.6649 81.5943 38.5616 81.6976 38.5616C82.5236 38.1482 83.3496 37.7348 84.1756 37.5281C85.9308 37.3214 87.273 36.8047 88.512 36.3914Z" fill="#EBE3CC"/>
<path d="M331.25 154.409C330.837 154.616 330.424 154.926 330.011 155.236C328.462 156.476 327.223 158.233 325.984 159.886C323.609 162.883 320.925 165.467 317.93 167.533C317.724 169.084 316.382 170.427 315.039 170.427C314.936 171.564 314.833 172.804 314.73 173.941C311.013 178.488 308.122 183.862 306.263 189.752C305.541 189.855 304.715 189.959 303.992 190.062C302.65 193.059 301.204 195.953 299.862 198.95C299.036 199.156 298.416 199.88 297.797 200.5C296.455 201.843 295.112 203.29 294.39 205.15C293.46 207.527 293.77 210.421 292.841 212.798C292.325 214.038 291.499 215.071 291.086 216.415C290.776 217.448 290.776 218.791 291.395 219.618C291.189 219.928 291.086 220.238 290.879 220.548C288.918 221.478 287.266 223.235 286.233 225.405C285.717 225.612 285.097 225.922 284.581 226.129C283.549 227.679 282.413 229.229 281.38 230.676C280.348 230.779 279.419 230.883 278.386 230.986C277.25 232.433 276.011 233.776 274.876 235.223C276.218 235.533 277.56 235.946 279.006 236.36C279.109 237.187 278.902 238.013 278.386 238.633C278.386 240.597 278.489 242.56 278.593 244.421C278.076 245.351 277.663 246.384 277.147 247.314C276.424 248.141 275.805 249.174 275.598 250.414C275.598 250.414 275.598 250.518 275.495 250.621C273.843 250.104 272.191 250.001 270.539 250.311C271.055 251.965 271.675 253.721 272.191 255.375C270.643 257.958 269.094 260.645 267.648 263.229C268.371 264.366 267.545 266.019 266.409 266.433C265.274 266.846 264.035 266.329 262.899 265.812C263.415 268.086 262.899 270.67 261.557 272.53C262.279 272.943 262.383 274.183 261.97 275.113C261.557 275.94 260.834 276.457 260.111 277.18C258.253 279.04 257.22 281.727 256.291 284.311C255.671 285.964 255.052 287.618 254.536 289.271C253.09 293.302 249.786 294.438 248.031 298.365C247.825 298.779 248.341 300.432 248.65 301.672C248.341 302.293 247.928 302.913 247.515 303.636C247.412 303.636 247.308 303.739 247.205 303.739C245.863 304.256 244.314 307.046 244.211 307.046C244.211 307.046 243.798 308.08 243.798 309.113L243.591 309.01C243.591 308.596 243.591 308.08 243.591 307.666C243.591 307.356 243.591 306.943 243.591 306.633C243.591 306.013 243.695 305.496 243.695 304.876C243.798 303.946 243.798 303.119 243.901 302.189C244.004 300.846 244.211 299.502 244.314 298.055C244.314 297.642 244.417 297.229 244.417 296.919C244.624 294.955 244.934 292.888 245.347 290.925C245.45 290.305 245.553 289.685 245.656 289.065C245.656 288.961 245.656 288.858 245.76 288.755C245.966 287.514 246.173 286.274 246.482 285.034C246.689 284.208 246.792 283.277 246.999 282.451C247.205 281.624 247.308 280.694 247.515 279.867C248.031 277.284 248.651 274.7 249.373 272.116C249.373 272.013 249.373 271.91 249.476 271.806C249.683 270.98 249.889 270.153 250.096 269.429C250.406 268.293 250.715 267.156 251.025 266.019C251.438 264.676 251.851 263.229 252.161 261.885C252.574 260.542 252.987 259.199 253.4 257.855C253.916 256.202 254.432 254.445 255.052 252.791C259.079 240.804 264.035 229.126 269.713 218.068C270.539 216.415 271.468 214.761 272.294 213.108C272.294 213.004 272.398 212.901 272.398 212.901C272.914 211.868 273.533 210.834 274.153 209.801C274.153 209.801 274.153 209.697 274.256 209.697C276.528 205.667 279.006 201.74 281.587 197.916C282.723 196.263 283.858 194.506 285.097 192.956C285.407 192.542 285.717 192.129 285.923 191.716C286.749 190.682 287.472 189.545 288.298 188.512C290.673 185.515 293.151 182.518 295.732 179.728C298.313 176.834 300.998 174.147 303.785 171.564C305.231 170.324 306.676 169.084 308.122 167.843C308.845 167.223 309.567 166.707 310.29 166.087L312.561 164.433C313.284 163.916 314.11 163.296 314.833 162.78C315.659 162.263 316.382 161.746 317.208 161.333C318.756 160.403 320.305 159.369 322.06 158.646C322.783 158.233 323.609 157.923 324.332 157.509C324.435 157.509 324.435 157.406 324.538 157.406C325.364 156.992 326.19 156.579 327.016 156.372C328.772 155.236 330.011 154.822 331.25 154.409Z" fill="#EBE3CC"/>
<path d="M331.25 154.409C330.837 154.616 330.424 154.926 330.011 155.236C328.462 156.476 327.223 158.233 325.984 159.886C323.609 162.883 320.925 165.467 317.93 167.533C317.724 169.084 316.382 170.427 315.039 170.427C314.936 171.564 314.833 172.804 314.73 173.941C311.013 178.488 308.122 183.862 306.263 189.752C305.541 189.855 304.715 189.959 303.992 190.062C302.65 193.059 301.204 195.953 299.862 198.95C299.036 199.156 298.416 199.88 297.797 200.5C296.455 201.843 295.112 203.29 294.39 205.15C293.46 207.527 293.77 210.421 292.841 212.798C292.325 214.038 291.499 215.071 291.086 216.415C290.776 217.448 290.776 218.791 291.395 219.618C291.189 219.928 291.086 220.238 290.879 220.548C288.918 221.478 287.266 223.235 286.233 225.405C285.717 225.612 285.097 225.922 284.581 226.129C283.549 227.679 282.413 229.229 281.38 230.676C280.348 230.779 279.419 230.883 278.386 230.986C277.25 232.433 276.011 233.776 274.876 235.223C276.218 235.533 277.56 235.946 279.006 236.36C279.109 237.187 278.902 238.013 278.386 238.633C278.386 240.597 278.489 242.56 278.593 244.421C278.076 245.351 277.663 246.384 277.147 247.314C276.424 248.141 275.805 249.174 275.598 250.414C275.598 250.414 275.598 250.518 275.495 250.621C273.843 250.104 272.191 250.001 270.539 250.311C271.055 251.965 271.675 253.721 272.191 255.375C270.643 257.958 269.094 260.645 267.648 263.229C268.371 264.366 267.545 266.019 266.409 266.433C265.274 266.846 264.035 266.329 262.899 265.812C263.415 268.086 262.899 270.67 261.557 272.53C262.279 272.943 262.383 274.183 261.97 275.113C261.557 275.94 260.834 276.457 260.111 277.18C258.253 279.04 257.22 281.727 256.291 284.311C255.671 285.964 255.052 287.618 254.536 289.271C253.09 293.302 249.786 294.438 248.031 298.365C247.825 298.779 248.341 300.432 248.65 301.672C248.341 302.293 247.928 302.913 247.515 303.636C247.412 303.636 247.308 303.739 247.205 303.739C245.863 304.256 244.314 307.046 244.211 307.046C244.211 307.046 243.798 308.08 243.798 309.113L243.591 309.01C243.591 308.596 243.591 308.08 243.591 307.666C243.591 307.356 243.591 306.943 243.591 306.633C243.591 306.013 243.695 305.496 243.695 304.876C243.798 303.946 243.798 303.119 243.901 302.189C244.004 300.846 244.211 299.502 244.314 298.055C244.211 297.022 244.211 295.989 244.004 295.059C243.798 294.232 243.591 293.302 243.695 292.475C243.901 291.132 244.83 290.098 245.656 289.065C245.656 288.961 245.656 288.858 245.76 288.755C245.966 287.514 246.173 286.274 246.482 285.034C246.689 284.208 246.792 283.277 246.999 282.451C247.205 281.624 247.308 280.694 247.515 279.867C247.205 278.524 246.689 277.18 245.863 276.043C246.792 274.493 247.928 273.15 249.27 272.116C249.27 272.013 249.27 271.91 249.373 271.806C249.58 270.98 249.786 270.153 249.993 269.429C250.302 268.293 250.612 267.156 250.922 266.019C250.302 263.126 251.232 259.715 253.297 257.855C253.813 256.202 254.329 254.445 254.949 252.791C254.742 252.275 254.742 251.655 254.845 251.138C255.052 247.934 256.084 244.731 257.736 242.147C258.459 240.907 259.388 239.873 259.905 238.53C261.144 235.636 260.731 231.916 262.486 229.332C263.209 228.299 264.241 227.576 264.757 226.439C265.687 224.372 264.964 221.375 266.616 220.032C267.132 219.618 267.648 219.515 268.061 218.998C268.784 217.965 267.958 216.518 268.268 215.278C268.681 213.624 270.746 213.521 272.191 213.004C272.191 212.901 272.294 212.798 272.294 212.798C272.811 211.764 273.43 210.731 274.05 209.697C274.05 209.697 274.05 209.594 274.153 209.594V209.491C274.256 207.217 275.908 205.564 277.147 203.807C278.386 202.05 279.419 199.466 278.283 197.71C279.109 198.226 280.038 197.193 280.348 196.159C280.761 195.126 280.967 193.989 281.793 193.472C282.413 193.059 283.136 193.266 283.858 193.162C284.271 193.059 284.581 192.956 284.891 192.646C285.201 192.232 285.51 191.819 285.717 191.406C286.233 190.166 286.233 188.512 285.407 187.479C287.369 186.962 288.711 184.585 288.401 182.311C289.744 183.448 291.395 181.795 292.428 180.245C294.596 177.041 296.661 173.734 298.829 170.53C299.242 169.807 299.759 169.187 300.378 168.774C301.617 168.153 303.269 168.877 304.405 168.05C305.024 167.637 305.334 166.913 305.747 166.293C308.225 162.573 313.284 162.573 316.588 159.783C317.827 158.749 318.86 157.406 320.202 156.476C321.544 155.546 323.299 155.236 324.538 156.372C324.435 156.579 324.332 156.786 324.229 157.096C324.332 157.096 324.332 156.992 324.435 156.992C325.261 156.579 326.087 156.166 326.913 155.959C328.772 155.236 330.011 154.822 331.25 154.409Z" fill="#EBE3CC"/>
<path d="M279.729 1.04811C273.741 3.42499 268.578 8.59214 264.035 13.966C248.651 32.1543 237.19 54.4764 220.98 71.7346C219.535 81.6555 213.753 90.7497 206.009 95.0901C202.086 96.8469 197.749 97.157 193.619 95.9168C195.375 98.2937 197.027 100.774 198.782 103.151C195.581 104.081 195.478 109.248 195.478 113.072C195.375 127.333 186.082 138.907 178.545 150.172C170.492 162.16 163.884 175.284 157.276 188.409C155.624 191.716 153.972 194.919 152.32 198.226C147.984 206.907 142.098 216.621 133.425 217.035C131.257 217.138 128.986 216.621 127.024 217.551C125.062 218.481 123.72 221.788 125.269 223.545C130.328 221.685 134.768 228.299 136.11 234.293C137.452 239.667 136.213 247.728 131.36 247.728C131.154 250.001 130.947 252.275 130.741 254.445C124.443 260.645 118.145 266.949 111.846 273.15C113.085 277.49 112.879 282.347 111.33 286.584C108.542 289.685 103.587 289.581 100.902 286.274C100.799 289.891 100.799 293.405 100.696 297.022C99.1468 297.229 97.8046 298.055 96.6689 299.192C97.8046 300.846 99.0436 302.499 100.179 304.153C96.9786 311.18 93.6746 318.311 90.4739 325.338C87.996 330.712 85.518 336.086 82.5238 341.046C80.975 343.526 78.6003 345.49 76.0191 344.146C76.0191 347.97 76.0191 352.104 77.0516 355.514C76.5353 356.444 75.9158 357.271 75.3996 358.201L74.0574 357.684C74.2639 349.107 75.0899 340.633 76.1223 332.262C76.0191 329.885 75.8126 327.508 75.2964 325.235C74.8834 323.271 74.3671 321.204 74.6769 319.137C75.0899 316.14 77.1548 313.97 78.9101 311.593C77.5678 310.767 76.0191 310.25 74.5736 310.147C77.7743 303.946 79.9426 297.022 80.8718 289.788C81.0783 288.135 81.1815 286.481 81.801 284.931C81.1815 283.587 80.4588 282.244 79.6328 281.004C81.6978 277.594 84.1758 274.597 87.0667 272.22C87.2732 268.499 86.344 264.779 84.279 261.885C85.8277 261.472 87.3765 260.955 88.9252 260.542C89.1317 258.578 89.9577 256.822 90.8869 255.168C90.3707 249.794 92.1259 244.007 95.4299 240.183C95.6364 236.153 95.0169 232.019 93.6746 228.299C97.9078 228.196 100.076 221.995 99.6631 217.138C99.2501 212.178 97.3916 207.32 98.3208 202.463C101.418 203.187 104.929 200.913 106.064 197.503C106.581 195.849 106.684 193.886 107.097 192.129C108.233 187.582 111.537 184.585 115.047 181.691C115.667 178.488 116.493 175.491 118.248 172.907C119.9 170.634 122.171 168.877 123.41 166.293C125.579 161.643 123.823 154.616 127.643 151.619C128.056 151.309 128.469 150.999 128.986 150.792C129.089 150.689 129.192 150.482 129.192 150.379C129.812 149.035 129.915 147.382 130.225 145.831C130.431 144.695 130.844 143.558 131.36 142.628C131.36 141.904 131.36 141.181 131.567 140.561C132.599 136.737 137.142 136.634 140.653 135.497C138.691 132.5 136.936 129.09 137.142 125.473C137.452 121.443 141.892 118.032 144.473 120.719C149.429 117.205 152.32 110.282 151.7 103.564C153.146 103.771 154.591 103.254 155.727 102.427C155.521 101.601 155.211 100.877 154.798 100.154C156.553 101.187 158.412 99.3272 159.444 97.2603C160.064 95.1934 160.167 92.9199 159.341 90.9564C160.477 91.1631 161.612 91.1631 162.748 90.853C162.851 90.7497 162.955 90.6464 163.161 90.543C163.574 90.233 164.09 90.1296 164.607 90.0263C166.259 89.0962 167.601 87.6494 168.427 85.6859C169.666 85.8926 170.905 85.9959 172.247 86.2026C172.35 86.0993 172.35 85.9959 172.453 85.8926C172.557 85.7892 172.557 85.6859 172.66 85.4792C172.35 83.9291 172.04 82.3789 171.731 80.8288C170.801 76.4884 169.975 71.6313 171.731 67.7042C173.589 63.5705 177.513 61.5037 180.92 59.0234C189.903 52.2028 195.168 40.6284 202.809 31.9476C206.319 27.9172 210.346 24.4036 214.785 21.7167C217.78 19.8565 221.084 18.4097 224.388 18.7197C226.04 18.9264 227.485 19.5465 228.827 20.5799C233.99 18.3064 239.668 16.7562 244.108 13.1392C246.999 10.7623 249.374 7.55871 252.368 5.38851C255.362 3.21831 259.595 2.49491 262.28 5.28516C262.073 5.80188 261.764 6.31859 261.454 6.93865C261.557 6.83531 261.764 6.83531 261.867 6.73196C263.829 5.90522 265.687 4.87179 267.649 4.25174C271.572 2.80494 275.496 1.46148 279.522 0.324707L279.729 1.04811Z" fill="#EBE3CC"/>
<g clip-path="url(#clip1_864_385)">
<path d="M286.928 -8.5582C286.308 -8.24817 285.689 -7.8348 285.069 -7.31808C282.591 -5.45791 280.836 -2.66765 278.771 -0.187425C275.157 4.46301 270.924 8.49337 266.278 11.697C265.968 14.1772 263.903 16.1407 261.735 16.1407C261.632 18.0009 261.425 19.7577 261.322 21.6179C255.54 28.6452 250.997 37.1194 248.21 46.2135C247.074 46.3169 245.835 46.5236 244.699 46.7302C242.531 51.3807 240.466 55.9278 238.298 60.5782C237.059 60.8882 236.026 61.9216 234.994 62.9551C232.929 65.1253 230.864 67.2955 229.728 70.1891C228.283 73.9094 228.696 78.3531 227.25 82.0735C226.424 84.037 225.185 85.6905 224.566 87.654C224.049 89.3075 224.153 91.271 225.082 92.6145C224.875 93.1312 224.566 93.5446 224.359 94.0613C221.365 95.6114 218.784 98.195 217.132 101.605C216.306 102.019 215.376 102.432 214.55 102.742C212.898 105.119 211.246 107.496 209.595 109.873C208.046 109.976 206.497 110.183 204.948 110.286C203.09 112.456 201.335 114.626 199.476 116.9C201.644 117.417 203.709 118.037 205.878 118.657C206.084 119.897 205.671 121.24 204.845 122.171C204.948 125.167 205.052 128.164 205.155 131.161C204.432 132.608 203.606 134.158 202.883 135.605L201.541 138.292C201.231 139.015 200.818 139.739 200.509 140.359C200.509 140.462 200.405 140.566 200.405 140.566C197.824 139.739 195.243 139.635 192.662 140.152C193.488 142.839 194.417 145.423 195.243 148.11C192.868 152.14 190.493 156.274 188.119 160.304C189.254 162.061 187.912 164.644 186.157 165.264C184.402 165.885 182.543 165.058 180.788 164.334C181.614 167.951 180.788 171.982 178.723 174.772C179.962 175.392 180.065 177.459 179.446 178.802C178.826 180.146 177.587 180.973 176.658 181.903C173.767 184.796 172.218 189.033 170.67 193.064C169.74 195.647 168.811 198.231 167.882 200.814C165.611 207.118 160.448 208.875 157.764 214.972C157.454 215.696 158.28 218.279 158.693 220.243C158.177 221.276 157.557 222.206 157.041 223.24C156.834 223.343 156.731 223.343 156.525 223.447C154.356 224.273 151.982 228.614 151.878 228.614C151.878 228.614 151.362 230.267 151.259 231.714L150.846 231.611C150.846 230.164 150.949 228.717 151.052 227.27C151.052 226.754 151.156 226.237 151.156 225.72C151.362 222.62 151.672 219.416 152.085 216.316C152.188 215.696 152.188 215.076 152.291 214.559C152.395 213.939 152.498 213.319 152.498 212.802C152.911 209.702 153.427 206.602 153.84 203.501C154.047 202.468 154.15 201.538 154.356 200.608C154.666 198.541 155.079 196.371 155.492 194.304C155.699 192.96 156.008 191.617 156.318 190.273C156.525 189.033 156.834 187.793 157.144 186.553C157.144 186.45 157.144 186.346 157.247 186.243C158.073 182.213 159.106 178.182 160.035 174.152C160.138 173.945 160.138 173.635 160.242 173.325C160.448 172.292 160.758 171.362 161.068 170.328C161.274 169.605 161.481 168.882 161.584 168.158C161.894 166.918 162.307 165.678 162.616 164.438C163.236 162.268 163.855 160.201 164.475 158.031C165.094 155.964 165.714 153.897 166.437 151.727C166.85 150.383 167.263 149.143 167.675 147.8C168.088 146.456 168.501 145.216 169.018 143.873C175.316 125.271 182.956 107.082 191.939 89.8242C193.281 87.2406 194.623 84.6571 195.966 82.1768C196.069 81.9702 196.172 81.7635 196.275 81.6601C196.792 80.6267 197.411 79.5933 197.927 78.6632L198.96 76.9063C202.574 70.6024 206.394 64.5052 210.317 58.5113C212.072 55.8244 213.931 53.2408 215.789 50.6573C216.202 50.0372 216.719 49.4172 217.132 48.7971C218.371 47.1436 219.61 45.4901 220.849 43.8366C224.566 39.0829 228.386 34.4324 232.412 30.092C236.336 25.6483 240.672 21.5146 245.009 17.4842C247.177 15.5207 249.449 13.6605 251.72 11.697C252.856 10.7669 253.991 9.83683 255.127 9.01009L258.638 6.42652C259.877 5.59978 261.012 4.66969 262.251 3.94629C263.49 3.22289 264.729 2.39615 265.968 1.67275C268.446 0.225946 270.821 -1.3242 273.506 -2.56431C274.641 -3.18437 275.88 -3.70108 277.016 -4.32114C277.119 -4.32114 277.222 -4.42448 277.326 -4.42448C278.565 -5.04454 279.907 -5.6646 281.249 -6.07797C283.004 -7.21474 284.966 -7.93814 286.928 -8.5582Z" fill="#FF9A5B"/>
<path d="M286.928 -8.5582C286.308 -8.24817 285.689 -7.8348 285.069 -7.31808C282.591 -5.45791 280.836 -2.66765 278.771 -0.187425C275.157 4.46301 270.924 8.49337 266.278 11.697C265.968 14.1772 263.903 16.1407 261.735 16.1407C261.632 18.0009 261.425 19.7577 261.322 21.6179C255.54 28.6452 250.997 37.1194 248.21 46.2135C247.074 46.3169 245.835 46.5236 244.699 46.7302C242.531 51.3807 240.466 55.9278 238.298 60.5782C237.059 60.8882 236.026 61.9216 234.994 62.9551C232.929 65.1253 230.864 67.2955 229.728 70.1891C228.283 73.9094 228.696 78.3531 227.25 82.0735C226.424 84.037 225.185 85.6905 224.566 87.654C224.049 89.3075 224.153 91.271 225.082 92.6145C224.875 93.1312 224.566 93.5446 224.359 94.0613C221.365 95.6114 218.784 98.195 217.132 101.605C216.306 102.019 215.376 102.432 214.55 102.742C212.898 105.119 211.246 107.496 209.595 109.873C208.046 109.976 206.497 110.183 204.948 110.286C203.09 112.456 201.335 114.626 199.476 116.9C201.644 117.417 203.709 118.037 205.878 118.657C206.084 119.897 205.671 121.24 204.845 122.171C204.948 125.167 205.052 128.164 205.155 131.161C204.432 132.608 203.606 134.158 202.883 135.605L201.541 138.292C201.231 139.015 200.818 139.739 200.509 140.359C200.509 140.462 200.405 140.566 200.405 140.566C197.824 139.739 195.243 139.635 192.662 140.152C193.488 142.839 194.417 145.423 195.243 148.11C192.868 152.14 190.493 156.274 188.119 160.304C189.254 162.061 187.912 164.644 186.157 165.264C184.402 165.885 182.543 165.058 180.788 164.334C181.614 167.951 180.788 171.982 178.723 174.772C179.962 175.392 180.065 177.459 179.446 178.802C178.826 180.146 177.587 180.973 176.658 181.903C173.767 184.796 172.218 189.033 170.67 193.064C169.74 195.647 168.811 198.231 167.882 200.814C165.611 207.118 160.448 208.875 157.764 214.972C157.454 215.696 158.28 218.279 158.693 220.243C158.177 221.276 157.557 222.206 157.041 223.24C156.834 223.343 156.731 223.343 156.525 223.447C154.356 224.273 151.982 228.614 151.878 228.614C151.878 228.614 151.362 230.267 151.259 231.714L150.846 231.611C150.846 230.164 150.949 228.717 151.052 227.27C151.052 226.754 151.156 226.237 151.156 225.72C151.362 222.62 151.672 219.416 152.085 216.316C152.188 215.696 152.188 215.076 152.291 214.559C152.188 213.009 152.085 211.459 151.775 209.909C151.465 208.565 151.156 207.222 151.362 205.775C151.672 203.708 153.117 202.158 154.356 200.504C154.769 198.438 155.079 196.267 155.492 194.201C155.699 192.857 156.008 191.514 156.318 190.17C156.525 188.93 156.834 187.69 157.144 186.45C157.144 186.346 157.144 186.243 157.247 186.14C156.834 183.97 155.905 182.006 154.769 180.249C156.215 177.872 158.073 175.702 160.138 174.049C160.242 173.842 160.242 173.532 160.345 173.222C160.551 172.188 160.861 171.258 161.171 170.225C161.377 169.502 161.584 168.778 161.687 168.055C161.997 166.815 162.41 165.575 162.72 164.334C161.687 159.787 163.236 154.517 166.437 151.727C166.85 150.383 167.263 149.143 167.675 147.8C168.088 146.456 168.501 145.216 169.018 143.873C168.811 143.046 168.811 142.116 168.811 141.289C169.224 136.225 170.773 131.368 173.354 127.234C174.49 125.374 175.935 123.721 176.761 121.654C178.723 117.107 178.104 111.32 180.891 107.392C182.027 105.842 183.576 104.706 184.299 102.949C185.744 99.7451 184.608 95.0947 187.086 93.0278C187.809 92.4078 188.738 92.2011 189.358 91.3744C190.39 89.8242 189.254 87.4473 189.771 85.5872C190.493 83.0036 193.591 82.9002 195.966 82.1768C196.069 81.9702 196.172 81.7635 196.275 81.6601C196.792 80.6267 197.411 79.5933 197.927 78.6632L198.96 76.9063V76.803C199.166 73.2894 201.748 70.6024 203.709 68.0189C205.671 65.332 207.22 61.3016 205.465 58.408C206.704 59.1314 208.149 57.5812 208.769 56.0311C209.388 54.481 209.801 52.6208 211.04 51.8974C212.072 51.2773 213.208 51.5874 214.344 51.3807C214.963 51.2773 215.48 50.9673 215.893 50.6573C216.306 50.0372 216.822 49.4172 217.235 48.7971C218.164 46.8336 218.164 44.25 216.719 42.6999C219.713 41.8731 221.881 38.1528 221.365 34.6391C223.43 36.396 226.114 33.8124 227.56 31.4355C230.864 26.3717 234.168 21.4112 237.472 16.3474C238.194 15.314 238.917 14.1772 239.95 13.6605C241.911 12.6271 244.389 13.8672 246.248 12.6271C247.177 12.007 247.693 10.8703 248.313 9.83683C252.236 3.94629 259.98 4.04963 265.246 -0.187425C267.207 -1.73757 268.756 -4.01111 270.821 -5.35457C272.886 -6.80137 275.674 -7.31808 277.532 -5.45791C277.326 -5.04454 277.222 -4.73451 277.016 -4.42448C277.119 -4.42448 277.222 -4.52783 277.326 -4.52783C278.565 -5.14788 279.907 -5.76794 281.249 -6.18131C283.004 -7.21474 284.966 -7.93814 286.928 -8.5582Z" fill="#FF9A5B"/>
<path d="M424.248 57.8912C423.628 58.2013 423.009 58.6146 422.389 59.1313C419.911 60.9915 418.156 63.7818 416.194 66.262C412.581 70.9124 408.348 74.9428 403.701 78.1464C403.392 80.6267 401.327 82.5902 399.158 82.5902C398.952 84.4503 398.849 86.2072 398.745 88.0673C392.964 95.0947 388.421 103.569 385.633 112.663C384.497 112.766 383.258 112.973 382.122 113.076C379.954 117.727 377.889 122.274 375.721 126.924C374.482 127.234 373.45 128.268 372.417 129.301C370.352 131.471 368.287 133.642 367.151 136.638C365.706 140.359 366.119 144.803 364.673 148.523C363.847 150.486 362.608 152.14 361.989 154.103C361.473 155.757 361.576 157.72 362.402 159.064C362.195 159.581 361.886 159.994 361.679 160.511C358.685 161.957 356.104 164.644 354.452 168.055C353.626 168.468 352.696 168.778 351.87 169.191C350.219 171.568 348.567 173.945 346.915 176.322C345.366 176.425 343.817 176.632 342.268 176.736C340.41 178.906 338.655 181.076 336.796 183.349C338.964 183.866 341.029 184.486 343.198 185.003C343.404 186.243 342.991 187.587 342.165 188.517C342.268 191.514 342.372 194.51 342.475 197.507C341.752 199.058 340.926 200.504 340.203 202.055C339.068 203.398 338.138 205.051 337.829 206.808C337.829 206.912 337.725 207.015 337.725 207.118C335.144 206.292 332.563 206.188 329.982 206.705C330.808 209.392 331.737 211.975 332.563 214.662C330.188 218.693 327.814 222.826 325.439 226.857C326.575 228.614 325.232 231.197 323.477 231.817C321.722 232.437 319.76 231.714 318.108 230.887C318.934 234.504 318.108 238.535 316.043 241.325C317.282 241.945 317.385 244.012 316.766 245.355C316.146 246.699 314.907 247.525 313.978 248.455C311.087 251.349 309.538 255.586 307.99 259.616C307.061 262.2 306.131 264.784 305.202 267.367C302.931 273.671 297.768 275.428 295.084 281.525C294.774 282.249 295.6 284.832 296.013 286.796C295.497 287.829 294.877 288.759 294.258 289.793C294.154 289.896 293.948 289.896 293.741 289.999C291.573 290.826 289.198 295.166 289.095 295.166C289.095 295.166 288.579 296.82 288.476 298.267L288.063 298.163C288.063 296.717 288.166 295.27 288.269 293.823C288.269 293.306 288.372 292.686 288.372 292.169C288.372 291.963 288.372 291.756 288.372 291.446C288.372 290.929 288.476 290.413 288.476 289.793C288.682 287.416 288.889 285.142 289.198 282.765C289.302 282.145 289.302 281.525 289.405 281.008C289.508 280.388 289.508 279.768 289.611 279.252C290.024 276.151 290.541 273.051 290.954 269.951C291.16 268.917 291.263 267.987 291.47 267.057C291.883 264.99 292.193 262.82 292.606 260.753C292.915 259.41 293.122 258.066 293.432 256.723C293.638 255.483 293.948 254.243 294.258 253.003C294.258 252.899 294.258 252.796 294.361 252.693C295.187 248.662 296.219 244.632 297.149 240.601C297.252 240.291 297.252 240.085 297.355 239.775C297.562 238.741 297.871 237.708 298.181 236.674C298.388 235.848 298.594 235.021 298.801 234.194C298.904 233.781 299.007 233.264 299.214 232.851C299.936 230.06 300.762 227.374 301.588 224.583C302.518 221.586 303.344 218.693 304.376 215.799C304.892 214.352 305.305 212.906 305.822 211.459C312.223 192.444 319.863 174.049 329.053 156.48C330.395 153.793 331.84 151.106 333.389 148.42C334.112 147.179 334.834 145.836 335.454 144.596C335.557 144.493 335.557 144.389 335.66 144.286C335.764 143.976 335.97 143.769 336.073 143.459C339.687 137.155 343.507 131.058 347.431 125.064C349.186 122.377 351.045 119.794 352.903 117.21C353.316 116.59 353.832 115.97 354.245 115.35C355.484 113.696 356.723 112.043 357.962 110.389C361.679 105.636 365.396 100.985 369.526 96.6448C373.45 92.2011 377.786 88.0673 382.122 84.037C384.394 82.0735 386.562 80.2133 388.834 78.2498C389.969 77.3197 391.105 76.3896 392.344 75.5629L395.854 72.9793C397.093 72.1525 398.229 71.2225 399.468 70.4991C400.707 69.7757 401.946 68.9489 403.185 68.2255C405.663 66.7787 408.038 65.2286 410.722 63.9885C411.858 63.3684 413.097 62.8517 414.233 62.2316C414.336 62.2316 414.439 62.1283 414.543 62.1283C415.781 61.5082 417.124 60.8882 418.466 60.4748C420.324 59.1313 422.286 58.5113 424.248 57.8912Z" fill="#FF9A5B"/>
<path d="M424.248 57.8912C423.628 58.2013 423.009 58.6146 422.389 59.1313C419.911 60.9915 418.156 63.7818 416.194 66.262C412.581 70.9124 408.348 74.9428 403.701 78.1464C403.392 80.6267 401.327 82.5902 399.158 82.5902C398.952 84.4503 398.849 86.2072 398.745 88.0673C392.964 95.0947 388.421 103.569 385.633 112.663C384.497 112.766 383.258 112.973 382.122 113.076C379.954 117.727 377.889 122.274 375.721 126.924C374.482 127.234 373.45 128.268 372.417 129.301C370.352 131.471 368.287 133.642 367.151 136.638C365.706 140.359 366.119 144.803 364.673 148.523C363.847 150.486 362.608 152.14 361.989 154.103C361.473 155.757 361.576 157.72 362.402 159.064C362.195 159.581 361.886 159.994 361.679 160.511C358.685 161.957 356.104 164.644 354.452 168.055C353.626 168.468 352.696 168.778 351.87 169.191C350.219 171.568 348.567 173.945 346.915 176.322C345.366 176.425 343.817 176.632 342.268 176.736C340.41 178.906 338.655 181.076 336.796 183.349C338.964 183.866 341.029 184.486 343.198 185.003C343.404 186.243 342.991 187.587 342.165 188.517C342.268 191.514 342.372 194.51 342.475 197.507C341.752 199.058 340.926 200.504 340.203 202.055C339.068 203.398 338.138 205.051 337.829 206.808C337.829 206.912 337.725 207.015 337.725 207.118C335.144 206.292 332.563 206.188 329.982 206.705C330.808 209.392 331.737 211.975 332.563 214.662C330.188 218.693 327.814 222.826 325.439 226.857C326.575 228.614 325.232 231.197 323.477 231.817C321.722 232.437 319.76 231.714 318.108 230.887C318.934 234.504 318.108 238.535 316.043 241.325C317.282 241.945 317.385 244.012 316.766 245.355C316.146 246.699 314.907 247.525 313.978 248.455C311.087 251.349 309.538 255.586 307.99 259.616C307.061 262.2 306.131 264.784 305.202 267.367C302.931 273.671 297.768 275.428 295.084 281.525C294.774 282.249 295.6 284.832 296.013 286.796C295.497 287.829 294.877 288.759 294.258 289.793C294.154 289.896 293.948 289.896 293.741 289.999C291.573 290.826 289.198 295.166 289.095 295.166C289.095 295.166 288.579 296.82 288.476 298.267L288.063 298.163C288.063 296.717 288.166 295.27 288.269 293.823C288.269 293.306 288.372 292.686 288.372 292.169C288.372 291.963 288.372 291.756 288.372 291.446C288.372 290.929 288.476 290.413 288.476 289.793C288.682 287.416 288.889 285.142 289.198 282.765C289.302 282.145 289.302 281.525 289.405 281.008C289.302 279.458 289.198 277.908 288.889 276.358C288.579 275.015 288.269 273.568 288.476 272.224C288.785 270.054 290.334 268.607 291.47 266.954C291.883 264.887 292.193 262.717 292.606 260.65C292.915 259.306 293.122 257.963 293.432 256.62C293.638 255.379 293.948 254.139 294.258 252.899C294.258 252.796 294.258 252.693 294.361 252.589C293.845 250.419 293.019 248.352 291.883 246.699C293.328 244.322 295.187 242.152 297.252 240.498C297.355 240.188 297.355 239.981 297.458 239.671C297.665 238.638 297.975 237.604 298.284 236.571C298.491 235.744 298.697 234.918 298.904 234.091C299.007 233.677 299.11 233.161 299.317 232.747C299.523 232.127 299.627 231.507 299.833 230.887C298.801 226.34 300.349 221.07 303.55 218.279C303.86 217.453 304.066 216.523 304.376 215.696C304.892 214.249 305.305 212.802 305.822 211.355C305.925 211.045 306.028 210.735 306.131 210.425C305.925 209.599 305.925 208.668 305.925 207.842C306.338 202.778 307.887 197.921 310.468 193.787C311.603 191.927 313.049 190.273 313.875 188.207C315.837 183.659 315.217 177.872 317.902 173.945C319.037 172.395 320.586 171.258 321.309 169.502C322.754 166.401 321.619 161.647 324.097 159.581C324.819 158.961 325.749 158.754 326.368 157.927C327.401 156.377 326.265 154 326.781 152.14C327.504 149.556 330.601 149.453 332.976 148.73C333.079 148.626 333.079 148.523 333.182 148.316C333.905 147.076 334.628 145.733 335.247 144.493C335.351 144.389 335.351 144.286 335.454 144.183C335.557 143.872 335.764 143.666 335.867 143.356V143.252C336.073 139.739 338.655 137.155 340.616 134.468C342.578 131.781 344.23 127.751 342.372 124.961C343.611 125.684 345.056 124.134 345.676 122.584C346.295 121.034 346.708 119.174 347.947 118.45C348.98 117.83 350.115 118.14 351.251 117.933C351.871 117.83 352.387 117.52 352.903 117.21C353.316 116.59 353.832 115.97 354.245 115.35C355.174 113.386 355.174 110.803 353.729 109.253C356.723 108.426 358.891 104.706 358.375 101.192C360.44 102.949 363.125 100.365 364.673 97.9883C367.977 92.9245 371.281 87.964 374.585 82.9002C375.308 81.8668 376.031 80.73 377.063 80.2133C379.025 79.1799 381.503 80.42 383.361 79.1799C384.291 78.5598 384.807 77.423 385.426 76.3896C389.35 70.4991 397.093 70.6024 402.359 66.262C404.321 64.7119 405.87 62.5417 407.935 61.0949C410 59.6481 412.787 59.1313 414.646 60.9915C414.439 61.3015 414.336 61.7149 414.13 62.0249C414.233 62.0249 414.336 61.9216 414.439 61.9216C415.678 61.3015 417.02 60.6815 418.363 60.2681C420.324 59.1313 422.286 58.5113 424.248 57.8912Z" fill="#FF9A5B"/>
<path d="M205.361 11.387C204.948 11.5936 204.535 11.9037 204.122 12.2137C202.573 13.4538 201.334 15.2106 200.095 16.7608C197.72 19.7577 195.036 22.3413 192.042 24.4082C191.835 25.9583 190.493 27.3018 189.151 27.3018C189.048 28.4385 188.944 29.5753 188.841 30.8154C185.124 35.3625 182.233 40.7363 180.375 46.6269C179.652 46.7302 178.826 46.8336 178.103 46.9369C176.761 49.9338 175.315 52.8274 173.973 55.8244C173.147 56.0311 172.528 56.6511 171.908 57.3745C170.566 58.718 169.224 60.1648 168.501 62.025C167.572 64.4019 167.882 67.2954 166.952 69.6723C166.436 70.9124 165.61 71.9459 165.197 73.2893C164.887 74.3228 164.887 75.6662 165.507 76.493C165.3 76.803 165.197 77.113 164.991 77.423C163.029 78.3531 161.377 80.11 160.344 82.2802C159.828 82.4869 159.209 82.7969 158.692 83.0036C157.66 84.5537 156.524 86.1038 155.492 87.5506C154.459 87.654 153.53 87.7573 152.497 87.8607C151.362 89.3075 150.123 90.6509 148.987 92.0977C150.329 92.5111 151.775 92.8211 153.117 93.2345C153.22 94.0612 153.014 94.888 152.497 95.508L152.704 101.295C152.188 102.225 151.672 103.155 151.259 104.189C150.536 105.016 149.916 106.049 149.71 107.289C149.71 107.289 149.71 107.392 149.607 107.496C147.955 106.979 146.303 106.876 144.651 107.186C145.167 108.943 145.786 110.596 146.303 112.25C144.754 114.833 143.205 117.52 141.76 120.104C142.482 121.24 141.656 122.894 140.521 123.307C139.385 123.721 138.146 123.204 137.01 122.687C137.526 124.961 137.01 127.544 135.668 129.405C136.494 129.818 136.494 131.161 136.081 131.988C135.668 132.815 134.945 133.332 134.222 134.055C132.364 135.915 131.331 138.602 130.402 141.186C129.783 142.839 129.163 144.493 128.647 146.146C127.202 150.176 123.898 151.313 122.142 155.24C121.936 155.654 122.452 157.307 122.762 158.547C122.349 159.167 122.039 159.787 121.626 160.511C121.523 160.511 121.42 160.614 121.316 160.614C119.974 161.131 118.425 163.921 118.322 163.921C118.322 163.921 118.012 164.954 117.909 165.988L117.806 165.781C117.806 164.748 117.909 163.714 117.909 162.681C117.909 162.164 118.012 161.647 118.012 161.131C118.012 160.614 118.116 159.994 118.116 159.477C118.116 158.961 118.219 158.547 118.219 158.03C118.219 157.72 118.322 157.41 118.322 157.1C118.322 156.687 118.425 156.377 118.425 155.964C118.425 155.55 118.529 155.034 118.632 154.62C118.632 154.207 118.735 153.793 118.735 153.483C118.942 151.417 119.251 149.453 119.664 147.49C119.768 146.869 119.871 146.249 119.974 145.629C120.181 144.286 120.49 142.942 120.697 141.599C121.007 139.842 121.42 138.085 121.729 136.432C122.246 133.848 122.865 131.265 123.588 128.681C123.794 127.648 124.104 126.614 124.414 125.581C124.724 124.547 124.93 123.514 125.24 122.481C125.653 121.137 126.066 119.794 126.376 118.347C126.789 117.003 127.202 115.66 127.615 114.316C128.131 112.663 128.647 110.906 129.267 109.253C133.293 97.2649 138.249 85.6905 143.928 74.5294C144.754 72.876 145.683 71.2225 146.509 69.569C146.612 69.4656 146.716 69.259 146.716 69.1556C147.129 68.4322 147.438 67.8122 147.851 67.0888C148.058 66.7787 148.161 66.4687 148.368 66.1587C150.639 62.1283 153.117 58.2013 155.698 54.3776C156.834 52.6208 157.97 50.9673 159.209 49.3138C159.518 48.9004 159.828 48.4871 160.035 48.0737C160.861 47.0403 161.583 45.9035 162.409 44.87C164.784 41.8731 167.262 38.8762 169.843 35.9826C172.425 33.089 175.109 30.5054 177.897 27.8185C179.342 26.5784 180.788 25.3382 182.233 24.0981C182.956 23.4781 183.679 22.9614 184.505 22.3413L186.776 20.6878C187.602 20.1711 188.325 19.5511 189.048 19.0343C189.874 18.5176 190.596 18.0009 191.422 17.5875C192.971 16.6574 194.52 15.624 196.275 14.9006C196.998 14.4873 197.824 14.1772 198.546 13.7638C198.65 13.7638 198.65 13.6605 198.753 13.6605C199.579 13.2471 200.405 12.8338 201.231 12.6271C202.78 12.317 204.122 11.8003 205.361 11.387Z" fill="#FF9A5B"/>
<path d="M205.361 11.387C204.948 11.5936 204.535 11.9037 204.122 12.2137C202.573 13.4538 201.334 15.2106 200.095 16.7608C197.72 19.7577 195.036 22.3413 192.042 24.4082C191.835 25.9583 190.493 27.3018 189.151 27.3018C189.048 28.4385 188.944 29.5753 188.841 30.8154C185.124 35.3625 182.233 40.7363 180.375 46.6269C179.652 46.7302 178.826 46.8336 178.103 46.9369C176.761 49.9338 175.315 52.8274 173.973 55.8244C173.147 56.0311 172.528 56.6511 171.908 57.3745C170.566 58.718 169.224 60.1648 168.501 62.025C167.572 64.4019 167.882 67.2954 166.952 69.6723C166.436 70.9124 165.61 71.9459 165.197 73.2893C164.887 74.3228 164.887 75.6662 165.507 76.493C165.3 76.803 165.197 77.113 164.991 77.423C163.029 78.3531 161.377 80.11 160.344 82.2802C159.828 82.4869 159.209 82.7969 158.692 83.0036C157.66 84.5537 156.524 86.1038 155.492 87.5506C154.459 87.654 153.53 87.7573 152.497 87.8607C151.362 89.3075 150.123 90.6509 148.987 92.0977C150.329 92.5111 151.775 92.8211 153.117 93.2345C153.22 94.0612 153.014 94.888 152.497 95.508L152.704 101.295C152.188 102.225 151.672 103.155 151.259 104.189C150.536 105.016 149.916 106.049 149.71 107.289C149.71 107.289 149.71 107.392 149.607 107.496C147.955 106.979 146.303 106.876 144.651 107.186C145.167 108.943 145.786 110.596 146.303 112.25C144.754 114.833 143.205 117.52 141.76 120.104C142.482 121.24 141.656 122.894 140.521 123.307C139.385 123.721 138.146 123.204 137.01 122.687C137.526 124.961 137.01 127.544 135.668 129.405C136.494 129.818 136.494 131.161 136.081 131.988C135.668 132.815 134.945 133.332 134.222 134.055C132.364 135.915 131.331 138.602 130.402 141.186C129.783 142.839 129.163 144.493 128.647 146.146C127.202 150.176 123.898 151.313 122.142 155.24C121.936 155.654 122.452 157.307 122.762 158.547C122.349 159.167 122.039 159.787 121.626 160.511C121.523 160.511 121.42 160.614 121.316 160.614C119.974 161.131 118.425 163.921 118.322 163.921C118.322 163.921 118.012 164.954 117.909 165.988L117.806 165.781C117.806 164.748 117.909 163.714 117.909 162.681C117.909 162.164 118.012 161.647 118.012 161.131C118.012 160.614 118.116 159.994 118.116 159.477C118.116 158.961 118.219 158.547 118.219 158.03C118.219 157.72 118.322 157.41 118.322 157.1C118.322 156.687 118.425 156.377 118.425 155.964C118.425 155.55 118.529 155.034 118.632 154.62C118.529 153.587 118.425 152.553 118.322 151.623C118.116 150.796 117.909 149.866 118.116 149.04C118.322 147.696 119.251 146.663 120.077 145.629C120.284 144.286 120.594 142.942 120.8 141.599C121.11 139.842 121.523 138.085 121.833 136.432C121.523 135.088 121.007 133.745 120.181 132.608C121.11 131.058 122.246 129.715 123.588 128.681C123.794 127.648 124.104 126.614 124.414 125.581C124.724 124.547 124.93 123.514 125.24 122.481C124.62 119.587 125.55 116.177 127.615 114.316C128.131 112.663 128.647 110.906 129.267 109.253C129.06 108.736 129.163 108.116 129.163 107.599C129.37 104.396 130.402 101.192 132.054 98.6083C132.777 97.3682 133.706 96.3348 134.222 94.9913C135.461 92.0977 135.048 88.3774 136.804 85.7938C137.526 84.7604 138.559 84.037 139.075 82.9002C140.004 80.8334 139.282 77.8364 140.934 76.493C141.45 76.0796 141.966 75.9762 142.379 75.4595C143.102 74.4261 142.276 72.876 142.586 71.7392C143.102 70.0857 145.064 70.0857 146.509 69.569C146.612 69.4656 146.716 69.259 146.716 69.1556C147.129 68.4322 147.438 67.8122 147.851 67.0888C148.058 66.7787 148.161 66.4687 148.368 66.1587C148.368 66.1587 148.368 66.1587 148.368 66.0553C148.471 63.7818 150.123 62.1283 151.362 60.3715C152.601 58.6146 153.633 56.0311 152.497 54.1709C153.323 54.6876 154.253 53.6542 154.562 52.6208C154.872 51.5873 155.182 50.4506 156.008 49.9338C156.627 49.5205 157.35 49.7272 158.073 49.6238C158.486 49.5205 158.796 49.4171 159.105 49.1071C159.415 48.6937 159.725 48.2804 159.931 47.867C160.551 46.6269 160.551 44.9734 159.622 43.94C161.583 43.4233 162.926 41.0464 162.616 38.7728C163.958 39.9096 165.61 38.2561 166.643 36.706C168.811 33.5023 170.876 30.1954 173.044 26.9917C173.457 26.2683 173.973 25.6483 174.593 25.2349C175.832 24.6149 177.484 25.3382 178.619 24.6148C179.239 24.2015 179.549 23.4781 179.962 22.858C182.543 19.0343 187.499 19.1377 190.803 16.3474C192.042 15.314 193.074 13.9705 194.417 13.0405C195.759 12.1104 197.514 11.8003 198.65 12.9371C198.546 13.1438 198.443 13.4538 198.34 13.6605C198.443 13.6605 198.443 13.5572 198.546 13.5572C199.372 13.1438 200.198 12.7304 201.024 12.5237C202.78 12.3171 204.122 11.8003 205.361 11.387Z" fill="#FF9A5B"/>
<path d="M396.578 -23.9563C390.589 -21.5794 385.427 -16.4123 380.884 -11.0385C365.5 7.14988 354.039 29.4719 337.829 46.7302C336.384 56.6511 330.602 65.7453 322.858 70.0857C318.935 71.8425 314.598 72.1525 310.468 70.9124C312.224 73.2893 313.876 75.7695 315.631 78.1464C312.43 79.0765 312.327 84.2437 312.327 88.0673C312.224 102.329 302.931 113.903 295.394 125.167C287.341 137.155 280.733 150.28 274.125 163.404C272.473 166.711 270.821 169.915 269.169 173.222C264.832 181.903 258.947 191.617 250.274 192.03C248.106 192.134 245.835 191.617 243.873 192.547C241.911 193.477 240.569 196.784 242.118 198.541C247.177 196.681 251.617 203.295 252.959 209.289C254.301 214.662 253.062 222.723 248.209 222.723C248.003 224.997 247.796 227.27 247.59 229.44C241.292 235.641 234.993 241.945 228.695 248.145C229.934 252.486 229.728 257.343 228.179 261.58C225.391 264.68 220.435 264.577 217.751 261.27C217.648 264.887 217.648 268.401 217.544 272.018C215.996 272.224 214.653 273.051 213.518 274.188C214.653 275.841 215.892 277.495 217.028 279.148C213.827 286.176 210.524 293.306 207.323 300.334C204.845 305.707 202.367 311.081 199.373 316.042C197.824 318.522 195.449 320.485 192.868 319.142C192.868 322.966 192.868 327.099 193.9 330.51C193.384 331.44 192.765 332.267 192.248 333.197L190.906 332.68C191.113 324.102 191.939 315.628 192.971 307.258C192.868 304.881 192.661 302.504 192.145 300.23C191.732 298.267 191.216 296.2 191.526 294.133C191.939 291.136 194.004 288.966 195.759 286.589C194.417 285.762 192.868 285.246 191.422 285.142C194.623 278.942 196.791 272.018 197.721 264.784C197.927 263.13 198.03 261.477 198.65 259.926C198.03 258.583 197.308 257.24 196.482 255.999C198.547 252.589 201.025 249.592 203.916 247.215C204.122 243.495 203.193 239.775 201.128 236.881C202.677 236.468 204.225 235.951 205.774 235.538C205.981 233.574 206.807 231.817 207.736 230.164C207.22 224.79 208.975 219.003 212.279 215.179C212.485 211.149 211.866 207.015 210.524 203.295C214.757 203.191 216.925 196.991 216.512 192.134C216.099 187.173 214.24 182.316 215.17 177.459C218.267 178.182 221.778 175.909 222.913 172.498C223.43 170.845 223.533 168.881 223.946 167.125C225.082 162.578 228.386 159.581 231.896 156.687C232.516 153.483 233.342 150.486 235.097 147.903C236.749 145.629 239.02 143.872 240.259 141.289C242.427 136.638 240.672 129.611 244.492 126.614C244.905 126.304 245.318 125.994 245.835 125.787C245.938 125.684 246.041 125.477 246.041 125.374C246.661 124.031 246.764 122.377 247.074 120.827C247.28 119.69 247.693 118.553 248.209 117.623C248.209 116.9 248.209 116.177 248.416 115.557C249.448 111.733 253.991 111.63 257.502 110.493C255.54 107.496 253.785 104.085 253.991 100.468C254.301 96.4381 258.741 93.0278 261.322 95.7147C266.278 92.201 269.169 85.2771 268.549 78.5598C269.995 78.7665 271.44 78.2498 272.576 77.423C272.37 76.5963 272.06 75.8729 271.647 75.1495C273.402 76.1829 275.261 74.3227 276.293 72.2559C276.912 70.189 277.016 67.9155 276.19 65.952C277.325 66.1586 278.461 66.1587 279.597 65.8486C279.7 65.7453 279.803 65.6419 280.01 65.5386C280.423 65.2286 280.939 65.1252 281.455 65.0219C283.107 64.0918 284.45 62.645 285.276 60.6815C286.515 60.8882 287.754 60.9915 289.096 61.1982C289.199 61.0948 289.199 60.9915 289.302 60.8882C289.406 60.7848 289.406 60.6815 289.509 60.4748C289.199 58.9247 288.889 57.3745 288.58 55.8244C287.65 51.484 286.824 46.6268 288.58 42.6998C290.438 38.5661 294.362 36.4993 297.769 34.019C306.751 27.1984 312.017 15.624 319.658 6.9432C323.168 2.91282 327.195 -0.600832 331.634 -3.28775C334.629 -5.14792 337.933 -6.59472 341.236 -6.28469C342.888 -6.078 344.334 -5.45795 345.676 -4.42452C350.839 -6.69806 356.517 -8.2482 360.957 -11.8652C363.848 -14.2421 366.223 -17.4457 369.217 -19.6159C372.211 -21.7861 376.444 -22.5095 379.129 -19.7193C378.922 -19.2025 378.613 -18.6858 378.303 -18.0658C378.406 -18.1691 378.613 -18.1691 378.716 -18.2725C380.678 -19.0992 382.536 -20.1326 384.498 -20.7527C388.421 -22.1995 392.345 -23.5429 396.371 -24.6797L396.578 -23.9563Z" fill="#FF9A5B"/>
</g>
</g>
<defs>
<clipPath id="clip0_864_385">
<rect width="330.293" height="357.876" fill="white" transform="translate(0.957031 0.42807)"/>
</clipPath>
<clipPath id="clip1_864_385">
<rect width="330.293" height="357.876" fill="white" transform="translate(117.806 -24.5764)"/>
</clipPath>
</defs>
</svg>
