<svg width="422" height="254" viewBox="0 0 422 254" fill="none" xmlns="http://www.w3.org/2000/svg">
<path d="M90.4433 234.027C87.1265 227.743 82.597 222.191 77.1367 217.719C71.6765 213.247 65.4023 209.95 58.7048 208.033C56.9656 202.736 56.3351 197.15 56.8547 191.643C57.3743 186.136 59.0323 180.833 61.7193 176.084C75.5232 152.328 104.865 147.898 129.263 156.76L130.736 157.297C128.363 162.177 127.251 167.622 127.504 173.125C128.399 187.033 147.136 200.445 156.904 186.525C166.342 173.071 154.147 160.974 142.216 154.037C144.137 151.291 146.28 148.718 148.624 146.344C161.211 133.777 181.064 125.702 199.707 127.183C198.156 134.07 198.611 141.128 202.606 147.484C208.84 157.464 226.796 159.997 232.647 148.72C240.409 133.841 221.83 124.369 209.537 121.23C212.389 115.468 216.157 110.247 220.691 105.774C228.575 98.1 238.137 92.4434 248.625 89.2482C259.113 86.0531 270.243 85.4065 281.141 87.3591C284.345 87.9474 287.515 88.7455 290.628 89.7487C288.692 96.4828 288.026 104.087 291.782 110.379C293.536 113.25 296.088 115.53 299.1 116.915C302.112 118.301 305.443 118.728 308.649 118.14C311.59 117.401 314.112 115.528 315.696 112.908C317.281 110.288 317.805 107.121 317.162 104.061C315.789 96.9301 309.6 91.302 303.709 87.8604C302.376 87.0751 301.008 86.3608 299.619 85.6745C300.929 82.726 302.447 79.8833 304.162 77.1688C316.056 58.2692 336.558 45.9169 358.274 42.5121C360.524 42.1513 362.788 41.9271 365.052 41.7746C366.588 46.064 368.527 50.2002 370.84 54.1242C378.401 66.9186 394.626 85.122 411.012 80.6908C426.327 76.5489 422.112 59.0047 413.495 50.0412C402.584 38.6273 384.977 34.8851 370.115 34.8803C369.407 34.8845 368.72 34.8963 368.019 34.915C364.944 24.5643 364.353 13.6675 366.294 3.15891C366.713 0.839342 362.779 -0.0596394 362.29 2.25821C360.028 13.0791 360.273 24.3528 363.006 35.1868C333.648 37.6521 305.243 55.3955 293.118 82.9779C266.168 72.9928 233.709 80.8591 214.224 101.43C209.124 106.785 204.976 113.014 201.958 119.847C185.061 118.149 168.234 122.262 154.149 131.532C146.545 136.476 139.928 142.828 134.627 150.274L133.905 149.962C116.737 143.12 96.8821 141.817 79.9652 149.196C57.8274 158.885 44.6766 183.954 49.5897 206.34C45.6805 206.039 41.7623 206.271 37.9388 207.03C17.78 211.004 2.92619 228.691 0.483568 249.263C-0.149726 254.574 7.99714 255.303 8.61642 249.999C10.6066 233.18 23.0514 218.459 39.5163 215.227C43.7812 214.388 48.1753 214.323 52.4996 215.035C55.4496 221.346 59.8059 226.888 65.2099 231.203C71.3437 236.209 78.7731 239.231 86.5156 239.867C87.2248 239.938 87.935 239.816 88.5747 239.515C89.2144 239.214 89.761 238.744 90.1593 238.151C90.5576 237.559 90.7936 236.866 90.8435 236.142C90.8934 235.418 90.7553 234.689 90.4433 234.027ZM395.152 45.8508C401.159 47.8359 406.551 51.4713 410.732 56.3537C415.834 62.672 417.973 72.1726 408.238 74.5297C393.561 78.0922 378.471 58.0096 372.663 46.5485C371.855 44.8799 371.047 43.2114 370.359 41.5028C378.773 41.4572 387.165 42.9291 395.152 45.8508ZM309.998 105.255C311.079 114.034 300.146 110.914 297.485 106.383C295.386 102.797 295.873 97.8985 296.774 94.1785C296.913 93.5368 297.074 92.9027 297.249 92.2618C303.673 95.1214 309.334 99.3745 310.047 105.213L309.998 105.255ZM217.02 131.714C222.357 134.296 231.766 143.609 222.537 147.548C221.129 148.136 219.612 148.419 218.078 148.381C216.544 148.342 215.027 147.982 213.619 147.324C212.211 146.665 210.943 145.722 209.893 144.552C208.843 143.382 208.034 142.01 207.514 140.521C206.142 136.545 205.948 132.271 206.957 128.242C210.435 128.99 213.827 130.141 217.069 131.672L217.02 131.714ZM145.366 165.125C147.017 166.336 148.422 167.867 149.498 169.628C150.573 171.389 151.298 173.345 151.629 175.378C152.448 182.33 146.205 185.999 140.523 182.383C132.569 177.292 134.075 168.49 138.149 160.518C140.723 161.761 143.161 163.292 145.415 165.083L145.366 165.125ZM64.1755 218.833C69.315 221.419 73.9176 225.025 77.7082 229.437C72.3613 227.221 67.6906 223.533 64.2246 218.791L64.1755 218.833Z" fill="#FF9A5B"/>
</svg>
