<svg width="195" height="172" viewBox="0 0 195 172" fill="none" xmlns="http://www.w3.org/2000/svg">
<path d="M50.7202 37.001C55.191 33.6849 69.3093 33.2111 73.5447 37.001M50.7202 37.001V46.0018C56.1322 49.318 68.399 49.3152 73.5447 46.4756V37.001M50.7202 37.001C57.0734 40.0802 68.4657 40.4515 73.5447 37.001M22.8005 80.1103C23.5006 74.1845 24.4096 68.9501 25.5425 64.7142C26.4929 61.1612 37.4174 51.9864 47.4259 47.8968C52.8379 52.6341 68.368 54.529 77.5449 48.8442C86.036 54.2171 89.409 57.7404 93.5457 64.7142C97.6823 71.6879 95.1928 152.354 95.1928 152.354C82.0155 161.829 37.3076 162.539 22.2483 151.643C21.7259 144.689 21.355 137.409 21.1499 130.089M22.8005 80.1103C31.6181 83.339 41.2225 84.0082 63.6617 83.9002V134.352C53.3083 139.327 28.8366 136.01 21.1499 130.089M22.8005 80.1103C21.1325 94.2296 20.6505 112.274 21.1499 130.089M77.5449 58.5557C79.2368 59.3832 79.9824 60.2751 81.3096 61.8718M77.5449 64.7142C78.8593 66.6019 79.7167 67.2028 81.3096 68.0303M88.1335 137.432C88.5298 138.578 88.6076 139.41 88.1335 141.695M82.7214 148.09C84.5105 148.245 85.3671 147.663 86.9569 146.906M27.4248 142.879C27.1552 144.036 27.1753 144.875 27.4248 146.906M114.017 86.7426C118.488 83.4265 131.43 82.479 135.665 86.2688M114.017 86.7426V93.1379C120.37 96.9277 130.018 96.6909 135.665 93.1379V86.2688M114.017 86.7426C120.37 89.8218 130.586 89.7193 135.665 86.2688M110.723 103.086C109.844 104.021 109.397 104.57 108.84 105.692M112.135 108.771L110.723 110.192M143.901 143.827C144.546 145.952 144.692 146.787 144.842 148.09M137.312 149.512C138.849 149.753 139.593 149.846 140.842 149.985M108.37 30.6055C109.662 32.5481 109.72 33.6371 108.37 35.5797M110.723 96.6909C116.135 101.428 130.253 101.902 139.43 96.2172C140.606 95.4883 147.043 101.498 149.313 106.639C150.254 108.771 152.004 150.696 150.254 152.354C146.254 156.144 113.546 160.644 102.958 151.643C100.365 149.439 102.487 108.534 102.958 106.639C104.148 101.846 110.182 96.2171 110.723 96.6909ZM104.84 21.8416C98.7312 21.777 93.5457 26.5877 93.5457 32.7374C93.5457 38.8871 98.7312 43.6978 104.84 43.6332C110.883 43.5692 115.899 38.8207 115.899 32.7374C115.899 26.6541 110.883 21.9056 104.84 21.8416ZM127.9 12.3669C124.328 12.2337 121.312 15.1642 121.311 18.7623C121.311 22.2295 123.987 25.0292 127.429 25.1576C131.001 25.2909 134.018 22.3603 134.018 18.7623C134.018 15.295 131.342 12.4953 127.9 12.3669ZM129.503 38.8958C125.095 38.8557 121.174 42.2774 121.311 46.7123C121.445 51.0221 125.22 54.0939 129.503 54.0551C133.744 54.0167 137.415 50.9792 137.547 46.7123C137.684 42.3191 133.869 38.9355 129.503 38.8958ZM141.312 117.477V134.607C141.312 134.87 141.118 135.095 140.859 135.138C129.212 137.038 122.547 136.941 111.148 134.446C110.901 134.392 110.723 134.173 110.723 133.921V118.154C110.723 117.827 111.016 117.577 111.34 117.622C122.811 119.215 129.457 119.09 140.668 116.949C141 116.885 141.312 117.139 141.312 117.477Z" stroke="black" stroke-width="2.6875" stroke-linecap="round"/>
<line x1="194" y1="49.0001" x2="194" y2="144" stroke="black" stroke-width="2" stroke-linecap="round"/>
</svg>
