<svg width="130" height="115" viewBox="0 0 130 115" fill="none" xmlns="http://www.w3.org/2000/svg">
<path fill-rule="evenodd" clip-rule="evenodd" d="M57.8221 9.97553L56.9267 15.3144C55.7254 22.477 50.0095 28.0908 42.7167 29.2706L37.2808 30.15L42.7167 31.0294C50.0095 32.2092 55.7254 37.8231 56.9267 44.9857L57.8221 50.3245L58.7174 44.9857C59.9187 37.8231 65.6346 32.2092 72.9274 31.0294L78.3634 30.15L72.9274 29.2706C65.6346 28.0908 59.9187 22.477 58.7174 15.3144L57.8221 9.97553ZM56.0968 15.1801L57.4071 7.36719L58.237 7.36719L59.5473 15.1801C60.69 21.9933 66.1271 27.3333 73.0641 28.4556L81.0191 29.7425V30.5575L73.0641 31.8445C66.1271 32.9667 60.69 38.3067 59.5473 45.1199L58.237 52.9329H57.4071L56.0968 45.1199C54.9542 38.3067 49.5171 32.9667 42.58 31.8445L34.625 30.5575L34.625 29.7425L42.58 28.4556C49.5171 27.3333 54.9542 21.9933 56.0968 15.1801Z" fill="#FFF8ED"/>
<path fill-rule="evenodd" clip-rule="evenodd" d="M92.515 66.2778L91.8435 70.1606C90.9425 75.3698 86.6556 79.4526 81.186 80.3106L77.109 80.9502L81.186 81.5898C86.6556 82.4478 90.9425 86.5306 91.8435 91.7398L92.515 95.6226L93.1865 91.7398C94.0875 86.5306 98.3744 82.4478 103.844 81.5898L107.921 80.9502L103.844 80.3106C98.3744 79.4526 94.0875 75.3698 93.1865 70.1606L92.515 66.2778ZM91.2211 70.063L92.2038 64.3809L92.8262 64.3809L93.8089 70.063C94.6659 75.0181 98.7437 78.9017 103.947 79.7179L109.913 80.6538V81.2466L103.947 82.1825C98.7437 82.9987 94.6659 86.8823 93.8089 91.8374L92.8262 97.5195H92.2038L91.2211 91.8374C90.3641 86.8823 86.2862 82.9987 81.0834 82.1825L75.1172 81.2466L75.1172 80.6538L81.0834 79.7179C86.2863 78.9017 90.3641 75.0181 91.2211 70.063Z" fill="#FFF8ED"/>
<path fill-rule="evenodd" clip-rule="evenodd" d="M31.3885 73.661L31.0368 75.6994C30.5649 78.4342 28.3193 80.5777 25.4543 81.0282L23.3187 81.3639L25.4543 81.6997C28.3193 82.1502 30.5649 84.2936 31.0368 87.0285L31.3885 89.0669L31.7403 87.0285C32.2122 84.2936 34.4577 82.1502 37.3228 81.6997L39.4583 81.3639L37.3228 81.0282C34.4577 80.5777 32.2122 78.4342 31.7403 75.6994L31.3885 73.661ZM30.7108 75.6482L31.2255 72.665L31.5515 72.665L32.0663 75.6482C32.5152 78.2496 34.6512 80.2885 37.3765 80.717L40.5017 81.2083V81.5195L37.3765 82.0109C34.6512 82.4394 32.5152 84.4783 32.0663 87.0797L31.5515 90.0628H31.2255L30.7108 87.0797C30.2619 84.4783 28.1259 82.4394 25.4006 82.0109L22.2754 81.5195L22.2754 81.2083L25.4006 80.717C28.1259 80.2885 30.2619 78.2496 30.7108 75.6482Z" fill="#FFF8ED"/>
<path d="M65.5542 56.2919L66.0678 59.2349C66.5272 61.8671 68.8866 63.9547 71.9333 64.4248L75.3396 64.9503L71.9172 65.392C68.8561 65.787 66.4284 67.8158 65.8818 70.4357L65.2706 73.3649L64.7569 70.4219C64.2975 67.7897 61.9382 65.702 58.8915 65.232L55.4851 64.7064L58.9076 64.2647C61.9686 63.8697 64.3964 61.8409 64.943 59.221L65.5542 56.2919Z" fill="#FF9A5B"/>
<path d="M120.073 0.12195L120.586 3.06494C121.046 5.69716 123.405 7.78477 126.452 8.25484L129.858 8.7804L126.436 9.22208C123.375 9.61711 120.947 11.6459 120.4 14.2658L119.789 17.195L119.275 14.252C118.816 11.6197 116.457 9.53213 113.41 9.06206L110.004 8.5365L113.426 8.09483C116.487 7.69979 118.915 5.67098 119.462 3.05112L120.073 0.12195Z" fill="#FF9A5B"/>
<path d="M10.2105 97.5927L10.7241 100.536C11.1835 103.168 13.5428 105.255 16.5895 105.726L19.9959 106.251L16.5734 106.693C13.5124 107.088 11.0847 109.117 10.538 111.736L9.92682 114.666L9.41319 111.723C8.9538 109.09 6.59445 107.003 3.54777 106.533L0.141385 106.007L3.56384 105.566C6.6249 105.17 9.05263 103.142 9.59927 100.522L10.2105 97.5927Z" fill="#FF9A5B"/>
</svg>
