<svg width="30" height="30" viewBox="0 0 30 30" fill="none" xmlns="http://www.w3.org/2000/svg">
<path d="M5.93745 17.4625C5.76245 19.5 7.37494 21.25 9.42494 21.25H22.7375C24.5375 21.25 26.1125 19.775 26.25 17.9875L26.9249 8.61255C27.0749 6.53755 25.4999 4.85004 23.4124 4.85004H7.27496" stroke="#171717" stroke-width="1.5" stroke-miterlimit="10" stroke-linecap="round" stroke-linejoin="round"/>
<path d="M2.5 2.50003H4.67501C6.02501 2.50003 7.0875 3.66253 6.975 5.00003L6.35 12.5625" stroke="#171717" stroke-width="1.5" stroke-miterlimit="10" stroke-linecap="round" stroke-linejoin="round"/>
<path d="M20.3125 27.5C21.1754 27.5 21.875 26.8005 21.875 25.9375C21.875 25.0746 21.1754 24.375 20.3125 24.375C19.4496 24.375 18.75 25.0746 18.75 25.9375C18.75 26.8005 19.4496 27.5 20.3125 27.5Z" stroke="#171717" stroke-width="1.5" stroke-miterlimit="10" stroke-linecap="round" stroke-linejoin="round"/>
<path d="M10.3125 27.5C11.1754 27.5 11.875 26.8005 11.875 25.9375C11.875 25.0746 11.1754 24.375 10.3125 24.375C9.44956 24.375 8.75 25.0746 8.75 25.9375C8.75 26.8005 9.44956 27.5 10.3125 27.5Z" stroke="#171717" stroke-width="1.5" stroke-miterlimit="10" stroke-linecap="round" stroke-linejoin="round"/>
<path d="M11.25 10H26.25" stroke="#171717" stroke-width="1.5" stroke-miterlimit="10" stroke-linecap="round" stroke-linejoin="round"/>
</svg>
