<svg width="30" height="35" viewBox="0 0 30 35" fill="none" xmlns="http://www.w3.org/2000/svg">
<path d="M15.15 15.9125C15.125 15.9125 15.0875 15.9125 15.0625 15.9125C15.025 15.9125 14.975 15.9125 14.9375 15.9125C12.1 15.825 9.97498 13.6125 9.97498 10.8875C9.97498 8.11251 12.2375 5.85001 15.0125 5.85001C17.7875 5.85001 20.05 8.11251 20.05 10.8875C20.0375 13.625 17.9 15.825 15.1875 15.9125C15.1625 15.9125 15.1625 15.9125 15.15 15.9125ZM15 7.71251C13.25 7.71251 11.8375 9.13751 11.8375 10.875C11.8375 12.5875 13.175 13.975 14.875 14.0375C14.9125 14.025 15.0375 14.025 15.1625 14.0375C16.8375 13.95 18.15 12.575 18.1625 10.875C18.1625 9.13751 16.75 7.71251 15 7.71251Z" fill="#171717"/>
<path d="M15 27.4375C11.6375 27.4375 8.42504 26.1875 5.93754 23.9125C5.71254 23.7125 5.61254 23.4125 5.63754 23.125C5.80004 21.6375 6.72504 20.25 8.26254 19.225C11.9875 16.75 18.025 16.75 21.7375 19.225C23.275 20.2625 24.2 21.6375 24.3625 23.125C24.4 23.425 24.2875 23.7125 24.0625 23.9125C21.575 26.1875 18.3625 27.4375 15 27.4375ZM7.60004 22.875C9.67504 24.6125 12.2875 25.5625 15 25.5625C17.7125 25.5625 20.325 24.6125 22.4 22.875C22.175 22.1125 21.575 21.375 20.6875 20.775C17.6125 18.725 12.4 18.725 9.30004 20.775C8.41254 21.375 7.82504 22.1125 7.60004 22.875Z" fill="#171717"/>
<path d="M15 27.4375C7.5875 27.4375 1.5625 21.4125 1.5625 14C1.5625 6.5875 7.5875 0.5625 15 0.5625C22.4125 0.5625 28.4375 6.5875 28.4375 14C28.4375 21.4125 22.4125 27.4375 15 27.4375ZM15 2.4375C8.625 2.4375 3.4375 7.625 3.4375 14C3.4375 20.375 8.625 25.5625 15 25.5625C21.375 25.5625 26.5625 20.375 26.5625 14C26.5625 7.625 21.375 2.4375 15 2.4375Z" fill="#171717"/>
</svg>
