<svg xmlns="http://www.w3.org/2000/svg" xmlns:xlink="http://www.w3.org/1999/xlink" width="1080" zoomAndPan="magnify" viewBox="0 0 810 809.999993" height="1080" preserveAspectRatio="xMidYMid meet" version="1.0"><defs><g/><clipPath id="745a9828d5"><path d="M 125.414062 352 L 397.664062 352 L 397.664062 497.375 L 125.414062 497.375 Z M 125.414062 352 " clip-rule="nonzero"/></clipPath></defs><path fill="#fff8ed" d="M 270.695312 318.621094 C 271.019531 319.109375 271.292969 319.628906 271.566406 320.144531 C 271.972656 319.925781 272.382812 319.710938 272.816406 319.546875 C 272.925781 319.492188 273.0625 319.4375 273.171875 319.382812 C 275.621094 318.457031 278.125 318.402344 281.09375 319.328125 C 284.386719 320.390625 286.972656 322.675781 288.441406 325.507812 C 289.914062 328.339844 290.292969 331.769531 289.261719 335.0625 C 287.625 340.152344 283.707031 344.289062 278.589844 347.910156 C 273.878906 351.285156 268.191406 354.199219 262.527344 357.140625 C 260.730469 358.066406 258.5 357.355469 257.574219 355.558594 C 254.632812 349.898438 251.722656 344.234375 249.816406 338.738281 C 247.746094 332.832031 246.929688 327.167969 248.535156 322.078125 C 249.597656 318.785156 251.882812 316.199219 254.714844 314.726562 C 257.546875 313.257812 260.976562 312.875 264.269531 313.910156 C 267.210938 314.917969 269.253906 316.414062 270.695312 318.621094 Z M 265.875 326.867188 C 265.578125 325.019531 265.195312 323.628906 264.570312 322.675781 L 264.570312 322.648438 C 264.078125 321.886719 263.261719 321.34375 262.039062 320.960938 C 260.675781 320.527344 259.261719 320.691406 258.089844 321.316406 C 256.921875 321.914062 255.96875 322.976562 255.53125 324.335938 C 254.46875 327.683594 255.179688 331.824219 256.757812 336.34375 C 258.144531 340.289062 260.214844 344.589844 262.417969 348.917969 C 266.71875 346.660156 270.886719 344.371094 274.316406 341.921875 C 278.207031 339.144531 281.175781 336.179688 282.238281 332.832031 C 282.671875 331.46875 282.507812 330.054688 281.882812 328.882812 C 281.285156 327.710938 280.222656 326.761719 278.859375 326.324219 C 277.609375 325.917969 276.628906 325.917969 275.785156 326.242188 L 275.59375 326.324219 C 274.585938 326.761719 273.472656 327.710938 272.191406 329.019531 C 270.777344 330.488281 268.433594 330.515625 266.992188 329.101562 C 266.339844 328.503906 265.984375 327.683594 265.875 326.867188 Z M 265.875 326.867188 " fill-opacity="1" fill-rule="evenodd"/><g clip-path="url(#745a9828d5)"><path fill="#000000" d="M 368.3125 471.199219 C 367.441406 471.550781 366.542969 471.90625 365.617188 472.203125 C 367.65625 474.925781 369.617188 478.710938 370.109375 483.609375 C 370.296875 485.488281 368.910156 487.175781 367.03125 487.339844 C 365.152344 487.53125 363.464844 486.140625 363.300781 484.238281 C 362.785156 479.066406 359.980469 475.714844 358.128906 474.054688 C 356.6875 474.300781 355.21875 474.464844 353.773438 474.546875 C 356.6875 477.511719 358.675781 480.941406 359.980469 485.460938 C 360.5 487.230469 362.1875 488.699219 364.226562 489.492188 C 365.289062 489.898438 366.433594 490.089844 367.496094 490.035156 C 368.421875 489.980469 369.320312 489.679688 370.027344 489.136719 C 371.222656 488.210938 372.121094 486.441406 372.257812 483.554688 C 372.667969 474.980469 369.808594 472.097656 368.3125 471.199219 Z M 373.375 442.042969 C 372.53125 448.277344 370.652344 457.015625 366.515625 464.472656 C 369.15625 463.304688 371.660156 461.832031 373.890625 460.0625 C 378.765625 456.226562 382.546875 449.503906 385.324219 442.179688 L 385.40625 441.988281 C 381.8125 442.179688 377.8125 442.207031 373.375 442.042969 Z M 338.832031 379.378906 C 335.320312 379.378906 332.460938 383.925781 332.460938 389.503906 C 332.460938 395.085938 335.320312 399.632812 338.832031 399.632812 C 342.34375 399.632812 345.199219 395.085938 345.199219 389.503906 C 345.199219 383.898438 342.34375 379.378906 338.832031 379.378906 Z M 353.667969 445.992188 C 351.789062 445.992188 350.261719 447.515625 350.261719 449.394531 C 350.261719 451.269531 351.789062 452.796875 353.667969 452.796875 C 355.542969 452.796875 357.070312 451.269531 357.070312 449.394531 C 357.070312 447.515625 355.542969 445.992188 353.667969 445.992188 Z M 344.21875 436.980469 C 342.34375 436.980469 340.816406 438.503906 340.816406 440.382812 C 340.816406 442.261719 342.34375 443.785156 344.21875 443.785156 C 346.097656 443.785156 347.621094 442.261719 347.621094 440.382812 C 347.621094 438.503906 346.097656 436.980469 344.21875 436.980469 Z M 341.089844 449.257812 C 339.210938 449.257812 337.6875 450.78125 337.6875 452.660156 C 337.6875 454.539062 339.210938 456.0625 341.089844 456.0625 C 342.96875 456.0625 344.492188 454.539062 344.492188 452.660156 C 344.492188 450.78125 342.96875 449.257812 341.089844 449.257812 Z M 309.105469 380.085938 C 305.59375 380.085938 302.734375 384.632812 302.734375 390.214844 C 302.734375 395.792969 305.59375 400.339844 309.105469 400.339844 C 312.617188 400.339844 315.472656 395.820312 315.472656 390.214844 C 315.472656 384.605469 312.617188 380.085938 309.105469 380.085938 Z M 210.5625 408.589844 C 210.5625 408.613281 214.78125 418.550781 211.1875 420.265625 C 207.511719 422.035156 204.273438 416.265625 204.246094 416.265625 C 203.320312 414.605469 201.226562 414.03125 199.566406 414.984375 C 198.449219 415.609375 197.824219 416.753906 197.824219 417.953125 C 197.796875 418.660156 197.414062 423.179688 193.359375 423.667969 C 189.875 424.078125 190.089844 413.242188 190.089844 413.214844 C 190.117188 411.335938 188.621094 409.757812 186.714844 409.730469 C 184.8125 409.703125 183.257812 411.203125 183.230469 413.105469 C 183.230469 413.160156 182.851562 431.863281 194.148438 430.5 C 198.722656 429.957031 201.308594 427.480469 202.777344 424.894531 C 205.554688 427.097656 209.445312 428.703125 214.101562 426.472656 C 223.683594 421.898438 216.878906 406.054688 216.851562 406 C 216.144531 404.257812 214.128906 403.414062 212.386719 404.125 C 210.671875 404.832031 209.855469 406.820312 210.5625 408.589844 Z M 259.289062 402.570312 C 256.785156 409.105469 253.355469 421.871094 250.796875 434.964844 C 248.453125 446.863281 246.875 458.894531 247.394531 466.488281 C 247.609375 469.808594 248.808594 472.097656 250.550781 473.566406 C 251.695312 474.546875 253.136719 475.199219 254.714844 475.609375 C 256.457031 476.042969 258.363281 476.152344 260.296875 476.042969 C 266.09375 475.636719 272.027344 473.046875 275.023438 469.539062 C 281.992188 461.289062 278.535156 447.214844 275.648438 438.042969 C 272.054688 426.609375 266.011719 414.167969 259.289062 402.570312 Z M 306.355469 438.667969 C 305.621094 440.410156 303.605469 441.226562 301.863281 440.492188 C 300.121094 439.757812 299.304688 437.742188 300.039062 436 C 300.039062 435.972656 303.742188 427.316406 313.867188 423.371094 C 315.636719 422.6875 317.625 423.558594 318.304688 425.328125 C 318.984375 427.097656 318.113281 429.085938 316.34375 429.765625 C 314.683594 430.417969 313.269531 431.210938 312.070312 432.054688 C 313.296875 435.402344 316.726562 441.308594 321.136719 447.40625 C 325.136719 452.933594 329.875 458.539062 334.503906 462.460938 C 336.515625 464.175781 338.9375 465.453125 341.605469 466.324219 L 341.742188 466.378906 C 345.199219 467.496094 349.066406 467.902344 353.011719 467.714844 C 353.964844 467.660156 354.890625 467.578125 355.84375 467.441406 C 355.925781 467.359375 356.007812 467.304688 356.089844 467.222656 C 362.867188 460.363281 365.535156 449.039062 366.570312 441.5 C 349.175781 438.53125 349.175781 421.382812 350.726562 411.308594 C 340.027344 412.699219 330.609375 414.332031 330.582031 414.359375 C 328.730469 414.6875 326.933594 413.460938 326.609375 411.582031 C 326.28125 409.730469 327.507812 407.933594 329.382812 407.609375 C 329.4375 407.609375 346.589844 404.585938 361.179688 403.253906 C 360.226562 398.488281 358.15625 389.914062 354.375 380.140625 C 351.652344 373.117188 345.554688 367.046875 337.359375 363.238281 C 329.519531 359.589844 319.828125 358.011719 309.320312 359.535156 C 289.3125 362.5 277.855469 388.878906 276.628906 391.765625 C 276.140625 393.34375 274.53125 394.378906 272.84375 394.132812 C 272.816406 394.132812 267.511719 393.289062 263.480469 396.203125 C 271.128906 408.996094 278.125 423.070312 282.210938 435.945312 C 286.101562 448.277344 289.476562 463.058594 280.277344 473.945312 C 276.167969 478.792969 268.273438 482.359375 260.785156 482.875 C 258.144531 483.066406 255.503906 482.875 253.082031 482.25 C 250.496094 481.597656 248.128906 480.480469 246.140625 478.792969 C 243.039062 476.179688 240.941406 472.285156 240.558594 466.925781 C 239.988281 458.675781 241.621094 446.019531 244.070312 433.632812 C 247.175781 417.816406 251.640625 402.191406 254.363281 396.71875 C 254.578125 396.285156 254.796875 395.875 255.042969 395.46875 C 253.027344 392.226562 250.960938 389.070312 248.917969 386.101562 C 239.035156 371.675781 229.863281 361.058594 226.242188 359.726562 C 219.191406 362.746094 216.796875 383 216.714844 383.707031 C 216.550781 385.203125 215.433594 386.457031 213.882812 386.730469 L 184.046875 391.847656 C 182.277344 392.171875 180.535156 391.113281 180.074219 389.371094 C 179.449219 387.054688 175.582031 381.664062 170.902344 378.289062 C 169.160156 377.039062 167.363281 376.113281 165.726562 375.894531 C 164.449219 375.703125 163.167969 376.003906 162.054688 376.984375 C 160.039062 378.78125 158.269531 382.5625 157.097656 389.234375 C 155.300781 399.441406 153.207031 414.875 151.164062 431.289062 C 158.976562 433.441406 162.707031 436.382812 162.734375 436.410156 C 164.230469 437.578125 164.503906 439.730469 163.359375 441.226562 C 162.191406 442.722656 160.039062 442.996094 158.542969 441.851562 C 158.542969 441.851562 155.957031 439.8125 150.320312 438.125 C 149.914062 441.5 149.503906 444.929688 149.097656 448.304688 C 157.207031 449.691406 161.425781 453.503906 161.453125 453.503906 C 162.871094 454.753906 163.007812 456.933594 161.753906 458.347656 C 160.5 459.765625 158.324219 459.902344 156.910156 458.648438 C 156.910156 458.648438 154.078125 456.089844 148.304688 455.054688 C 144.984375 483.582031 145.910156 476.070312 145.882812 476.207031 C 145.691406 478.085938 144.003906 479.472656 142.128906 479.28125 C 140.25 479.09375 138.859375 477.402344 139.050781 475.527344 C 139.078125 475.390625 138.097656 483.121094 141.417969 454.730469 C 138.425781 454.917969 135.023438 455.519531 131.128906 456.769531 C 129.332031 457.34375 127.398438 456.363281 126.828125 454.566406 C 126.257812 452.769531 127.238281 450.835938 129.035156 450.238281 C 133.988281 448.632812 138.371094 447.976562 142.207031 447.867188 C 142.644531 444.140625 143.105469 440.410156 143.542969 436.679688 C 139.59375 436.082031 134.804688 435.753906 129.117188 436.054688 C 127.238281 436.136719 125.605469 434.695312 125.523438 432.789062 C 125.414062 430.910156 126.882812 429.277344 128.761719 429.195312 C 134.804688 428.867188 140.003906 429.222656 144.386719 429.902344 C 146.429688 413.570312 148.523438 398.242188 150.292969 388.089844 C 151.761719 379.761719 154.324219 374.667969 157.480469 371.894531 C 160.285156 369.417969 163.441406 368.679688 166.625 369.144531 C 169.484375 369.550781 172.289062 370.914062 174.875 372.792969 C 179.367188 376.03125 183.339844 381.039062 185.382812 384.714844 L 210.234375 380.46875 C 211.324219 373.773438 215.054688 356.105469 224.609375 353.082031 C 225.425781 352.839844 226.296875 352.8125 227.25 353 C 232.230469 354.007812 243.445312 366.039062 254.578125 382.320312 C 256.347656 384.90625 258.144531 387.628906 259.914062 390.402344 C 263.890625 387.734375 268.40625 387.246094 271.210938 387.246094 C 274.695312 379.734375 287.273438 355.941406 308.371094 352.839844 C 320.238281 351.097656 331.316406 352.917969 340.300781 357.113281 C 350.074219 361.683594 357.421875 369.0625 360.796875 377.746094 C 364.964844 388.5 367.140625 397.972656 368.09375 402.816406 L 368.554688 402.789062 C 370.542969 402.707031 372.75 402.542969 374.789062 402.410156 C 377.429688 402.21875 379.851562 402.054688 382.277344 402.027344 C 391.832031 401.890625 397.601562 403.878906 397.765625 414.441406 C 397.875 421.464844 395.941406 433.660156 391.777344 444.683594 C 388.617188 453.039062 384.128906 460.878906 378.164062 465.5625 C 377.078125 466.433594 375.90625 467.222656 374.734375 467.984375 C 377.238281 470.84375 379.527344 475.714844 379.117188 483.992188 C 378.847656 489.191406 376.914062 492.648438 374.164062 494.71875 C 372.3125 496.105469 370.164062 496.8125 367.957031 496.976562 C 365.890625 497.113281 363.738281 496.757812 361.75 495.996094 C 357.886719 494.5 354.539062 491.394531 353.394531 487.476562 C 352.414062 484.046875 350.917969 481.488281 348.765625 479.308594 C 346.507812 477.050781 343.402344 475.0625 339.292969 472.886719 C 335.863281 471.742188 332.761719 470.054688 330.09375 467.820312 C 325.027344 463.519531 319.882812 457.476562 315.582031 451.515625 C 311.933594 446.480469 308.886719 441.445312 306.980469 437.578125 C 306.546875 438.207031 306.355469 438.667969 306.355469 438.667969 Z M 306.355469 438.667969 " fill-opacity="1" fill-rule="evenodd"/></g><path fill="#000000" d="M 168.042969 408.804688 C 170.574219 408.398438 173.296875 412.234375 174.113281 417.378906 C 174.929688 422.527344 173.566406 427.015625 171.035156 427.425781 C 168.503906 427.832031 165.78125 423.996094 164.964844 418.851562 C 164.121094 413.707031 165.511719 409.214844 168.042969 408.804688 Z M 168.042969 408.804688 " fill-opacity="1" fill-rule="evenodd"/><path fill="#000000" d="M 232.148438 398.707031 C 234.679688 398.296875 237.402344 402.136719 238.21875 407.28125 C 239.035156 412.425781 237.675781 416.917969 235.144531 417.324219 C 232.613281 417.734375 229.890625 413.894531 229.074219 408.75 C 228.230469 403.605469 229.617188 399.113281 232.148438 398.707031 Z M 232.148438 398.707031 " fill-opacity="1" fill-rule="evenodd"/><g fill="#000000" fill-opacity="1"><g transform="translate(415.403218, 459.43529)"><g><path d="M 10.921875 0 C 11.777344 0 12.402344 -0.625 12.402344 -1.480469 L 12.402344 -1.636719 C 12.011719 -7.800781 11.855469 -13.726562 11.855469 -19.890625 L 11.855469 -23.476562 C 26.753906 -31.199219 33.304688 -39.46875 33.304688 -45.785156 C 33.304688 -51.949219 27.222656 -56.082031 16.535156 -56.082031 L 15.210938 -56.082031 C 14.820312 -56.082031 14.351562 -56.082031 13.882812 -56.003906 C 13.960938 -56.394531 14.039062 -56.707031 14.039062 -57.253906 C 14.273438 -58.1875 13.492188 -58.96875 12.558594 -58.96875 C 11.699219 -58.96875 11.074219 -58.421875 10.996094 -57.5625 L 10.765625 -55.691406 C 8.503906 -55.378906 6.238281 -54.835938 3.820312 -54.132812 C 3.121094 -53.898438 2.730469 -53.429688 2.730469 -52.570312 C 2.730469 -52.414062 2.730469 -52.261719 2.808594 -52.183594 C 3.042969 -51.480469 3.589844 -51.089844 4.289062 -51.089844 C 4.523438 -51.089844 4.679688 -51.089844 4.757812 -51.167969 C 6.628906 -51.714844 8.503906 -52.183594 10.375 -52.492188 C 9.4375 -43.523438 8.890625 -34.554688 8.734375 -25.429688 C 6.085938 -24.101562 3.277344 -22.855469 0.3125 -21.683594 C -0.390625 -21.449219 -0.703125 -20.902344 -0.703125 -20.203125 C -0.703125 -19.96875 -0.703125 -19.734375 -0.625 -19.65625 C -0.3125 -18.953125 0.15625 -18.640625 0.859375 -18.640625 C 1.636719 -18.640625 7.800781 -21.527344 8.65625 -21.917969 C 8.65625 -15.054688 8.734375 -8.269531 9.28125 -1.402344 C 9.359375 -0.546875 9.984375 0 10.84375 0 Z M 11.855469 -27.066406 C 12.089844 -35.722656 12.636719 -44.226562 13.570312 -52.882812 C 14.742188 -52.960938 15.757812 -53.039062 16.769531 -53.039062 C 25.585938 -53.039062 30.1875 -49.996094 30.1875 -45.550781 C 30.1875 -40.558594 24.335938 -33.695312 11.855469 -27.066406 Z M 11.855469 -27.066406 "/></g></g></g><g fill="#000000" fill-opacity="1"><g transform="translate(447.617241, 459.43529)"><g><path d="M -0.234375 -11.074219 C 0.46875 -10.609375 1.246094 -10.375 2.105469 -10.375 C 4.992188 -10.375 8.347656 -13.726562 10.140625 -16.613281 C 9.90625 -12.949219 11.621094 -10.375 14.351562 -10.375 C 17.472656 -10.375 21.996094 -13.726562 26.988281 -22.855469 C 27.066406 -23.164062 27.144531 -23.398438 27.144531 -23.554688 C 27.144531 -24.179688 26.832031 -24.648438 26.285156 -24.960938 C 26.128906 -25.039062 25.894531 -25.117188 25.585938 -25.117188 C 24.960938 -25.117188 24.492188 -24.882812 24.179688 -24.335938 C 21.683594 -19.34375 17.082031 -13.570312 14.820312 -13.570312 C 13.960938 -13.570312 13.492188 -14.273438 13.492188 -16.378906 C 13.492188 -17.394531 13.570312 -18.640625 13.882812 -20.203125 C 14.117188 -21.839844 14.429688 -23.476562 14.976562 -24.960938 C 15.367188 -26.128906 14.664062 -27.144531 13.492188 -27.144531 C 12.949219 -27.144531 12.480469 -26.832031 12.089844 -26.207031 C 10.21875 -22.621094 7.175781 -16.691406 3.976562 -14.351562 C 3.277344 -13.804688 2.730469 -13.570312 2.183594 -13.570312 C 1.324219 -13.570312 0.9375 -14.195312 0.9375 -15.523438 C 0.9375 -19.578125 5.539062 -28.625 13.882812 -28.625 C 14.742188 -28.625 15.445312 -29.328125 15.445312 -30.1875 C 15.445312 -31.042969 14.742188 -31.746094 13.882812 -31.746094 C 4.132812 -31.746094 -2.105469 -21.839844 -2.105469 -15.523438 C -2.105469 -13.570312 -1.480469 -11.933594 -0.234375 -11.074219 Z M -0.234375 -11.074219 "/></g></g></g><g fill="#000000" fill-opacity="1"><g transform="translate(470.93924, 459.43529)"><g><path d="M 3.121094 -9.984375 C 3.976562 -9.984375 4.601562 -10.765625 4.601562 -11.621094 C 4.367188 -15.910156 4.289062 -19.96875 4.289062 -23.945312 C 4.289062 -33.382812 4.835938 -42.199219 6.007812 -50.855469 L 24.179688 -51.324219 C 25.039062 -51.324219 25.738281 -52.027344 25.738281 -52.882812 C 25.738281 -53.742188 25.039062 -54.445312 24.101562 -54.445312 L 6.394531 -53.976562 C 6.941406 -57.40625 7.566406 -60.761719 8.191406 -64.117188 C 8.425781 -65.050781 7.722656 -65.988281 6.707031 -65.988281 C 5.929688 -65.988281 5.382812 -65.597656 5.148438 -64.738281 C 4.445312 -61.230469 3.820312 -57.640625 3.277344 -53.976562 L -10.996094 -53.507812 C -11.855469 -53.507812 -12.480469 -52.960938 -12.480469 -52.105469 L -12.480469 -51.949219 C -12.480469 -51.089844 -11.777344 -50.386719 -10.921875 -50.386719 L 2.808594 -50.777344 C 1.714844 -42.199219 1.171875 -33.226562 1.171875 -23.945312 C 1.171875 -19.890625 1.246094 -15.835938 1.480469 -11.464844 C 1.480469 -10.609375 2.183594 -9.984375 3.042969 -9.984375 Z M 3.121094 -9.984375 "/></g></g></g><g fill="#000000" fill-opacity="1"><g transform="translate(485.603263, 459.43529)"><g><path d="M -0.234375 -11.074219 C 0.46875 -10.609375 1.246094 -10.375 2.105469 -10.375 C 4.992188 -10.375 8.347656 -13.726562 10.140625 -16.613281 C 9.90625 -12.949219 11.621094 -10.375 14.351562 -10.375 C 17.472656 -10.375 21.996094 -13.726562 26.988281 -22.855469 C 27.066406 -23.164062 27.144531 -23.398438 27.144531 -23.554688 C 27.144531 -24.179688 26.832031 -24.648438 26.285156 -24.960938 C 26.128906 -25.039062 25.894531 -25.117188 25.585938 -25.117188 C 24.960938 -25.117188 24.492188 -24.882812 24.179688 -24.335938 C 21.683594 -19.34375 17.082031 -13.570312 14.820312 -13.570312 C 13.960938 -13.570312 13.492188 -14.273438 13.492188 -16.378906 C 13.492188 -17.394531 13.570312 -18.640625 13.882812 -20.203125 C 14.117188 -21.839844 14.429688 -23.476562 14.976562 -24.960938 C 15.367188 -26.128906 14.664062 -27.144531 13.492188 -27.144531 C 12.949219 -27.144531 12.480469 -26.832031 12.089844 -26.207031 C 10.21875 -22.621094 7.175781 -16.691406 3.976562 -14.351562 C 3.277344 -13.804688 2.730469 -13.570312 2.183594 -13.570312 C 1.324219 -13.570312 0.9375 -14.195312 0.9375 -15.523438 C 0.9375 -19.578125 5.539062 -28.625 13.882812 -28.625 C 14.742188 -28.625 15.445312 -29.328125 15.445312 -30.1875 C 15.445312 -31.042969 14.742188 -31.746094 13.882812 -31.746094 C 4.132812 -31.746094 -2.105469 -21.839844 -2.105469 -15.523438 C -2.105469 -13.570312 -1.480469 -11.933594 -0.234375 -11.074219 Z M -0.234375 -11.074219 "/></g></g></g><g fill="#000000" fill-opacity="1"><g transform="translate(508.92531, 459.43529)"><g><path d="M -2.105469 -11.621094 C -2.261719 -11.230469 -2.339844 -10.84375 -2.339844 -10.453125 C -2.339844 -8.503906 -0.625 -7.332031 1.324219 -7.332031 C 3.898438 -7.332031 6.863281 -9.28125 6.863281 -14.507812 L 6.863281 -15.132812 C 6.863281 -15.367188 6.863281 -15.601562 6.785156 -15.835938 C 10.453125 -18.5625 14.117188 -20.824219 18.484375 -22.308594 C 19.1875 -22.542969 19.578125 -23.089844 19.578125 -23.789062 C 19.578125 -24.023438 19.578125 -24.257812 19.5 -24.335938 C 19.265625 -24.960938 18.71875 -25.351562 18.097656 -25.351562 C 17.863281 -25.351562 17.628906 -25.351562 17.550781 -25.273438 C 13.261719 -23.789062 9.671875 -21.683594 6.160156 -19.1875 C 5.539062 -21.683594 3.664062 -25.660156 3.664062 -28.390625 C 3.664062 -29.328125 3.898438 -30.03125 4.289062 -30.421875 C 4.523438 -30.652344 4.992188 -31.199219 5.851562 -31.199219 C 6.394531 -31.199219 7.019531 -31.042969 7.722656 -30.652344 C 8.035156 -30.574219 8.269531 -30.496094 8.425781 -30.496094 C 8.96875 -30.496094 9.4375 -30.730469 9.828125 -31.277344 C 9.984375 -31.511719 10.0625 -31.746094 10.0625 -32.058594 C 10.0625 -32.683594 9.75 -33.148438 9.203125 -33.382812 C 8.113281 -34.007812 7.019531 -34.320312 5.851562 -34.320312 C 2.964844 -34.320312 0.546875 -32.136719 0.546875 -28.15625 C 0.546875 -27.613281 0.625 -27.144531 0.703125 -26.519531 C 1.324219 -23.011719 2.808594 -20.671875 3.511719 -17.160156 C -0.46875 -14.117188 -1.558594 -13.105469 -2.105469 -11.621094 Z M 0.78125 -10.53125 C 1.015625 -11.074219 1.871094 -11.855469 3.664062 -13.339844 C 3.277344 -10.453125 1.324219 -10.140625 0.78125 -10.53125 Z M 0.78125 -10.53125 "/></g></g></g><g fill="#000000" fill-opacity="1"><g transform="translate(525.149285, 459.43529)"><g/></g></g><g fill="#000000" fill-opacity="1"><g transform="translate(540.749284, 459.43529)"><g><path d="M 8.191406 -10.375 C 13.261719 -10.375 19.5 -13.261719 25.351562 -22.855469 C 25.507812 -23.089844 25.585938 -23.320312 25.585938 -23.632812 C 25.585938 -24.335938 25.351562 -24.726562 24.804688 -24.960938 C 24.570312 -25.117188 24.257812 -25.195312 24.023438 -25.195312 C 23.476562 -25.195312 23.011719 -24.960938 22.699219 -24.492188 C 19.96875 -19.890625 17.003906 -16.847656 13.882812 -15.054688 C 12.089844 -14.117188 9.984375 -13.492188 7.878906 -13.492188 C 4.992188 -13.492188 2.496094 -14.742188 2.496094 -18.097656 C 2.496094 -18.484375 2.574219 -18.875 2.652344 -19.421875 C 7.878906 -19.8125 14.039062 -23.632812 14.039062 -27.769531 C 14.039062 -30.03125 12.324219 -31.824219 9.828125 -31.824219 C 8.269531 -31.824219 6.394531 -31.121094 4.445312 -29.25 C 1.402344 -26.363281 -0.546875 -21.917969 -0.546875 -18.097656 C -0.546875 -13.960938 1.871094 -10.375 8.191406 -10.375 Z M 3.742188 -22.777344 C 5.851562 -27.144531 8.425781 -28.703125 9.90625 -28.703125 C 10.453125 -28.703125 10.765625 -28.546875 10.84375 -28.15625 C 11.230469 -26.363281 7.566406 -23.398438 3.742188 -22.777344 Z M 3.742188 -22.777344 "/></g></g></g><g fill="#000000" fill-opacity="1"><g transform="translate(562.433307, 459.43529)"><g/></g></g><g fill="#000000" fill-opacity="1"><g transform="translate(578.033354, 459.43529)"><g><path d="M 10.921875 0 C 11.777344 0 12.402344 -0.625 12.402344 -1.480469 L 12.402344 -1.636719 C 12.011719 -7.800781 11.855469 -13.726562 11.855469 -19.890625 L 11.855469 -23.476562 C 26.753906 -31.199219 33.304688 -39.46875 33.304688 -45.785156 C 33.304688 -51.949219 27.222656 -56.082031 16.535156 -56.082031 L 15.210938 -56.082031 C 14.820312 -56.082031 14.351562 -56.082031 13.882812 -56.003906 C 13.960938 -56.394531 14.039062 -56.707031 14.039062 -57.253906 C 14.273438 -58.1875 13.492188 -58.96875 12.558594 -58.96875 C 11.699219 -58.96875 11.074219 -58.421875 10.996094 -57.5625 L 10.765625 -55.691406 C 8.503906 -55.378906 6.238281 -54.835938 3.820312 -54.132812 C 3.121094 -53.898438 2.730469 -53.429688 2.730469 -52.570312 C 2.730469 -52.414062 2.730469 -52.261719 2.808594 -52.183594 C 3.042969 -51.480469 3.589844 -51.089844 4.289062 -51.089844 C 4.523438 -51.089844 4.679688 -51.089844 4.757812 -51.167969 C 6.628906 -51.714844 8.503906 -52.183594 10.375 -52.492188 C 9.4375 -43.523438 8.890625 -34.554688 8.734375 -25.429688 C 6.085938 -24.101562 3.277344 -22.855469 0.3125 -21.683594 C -0.390625 -21.449219 -0.703125 -20.902344 -0.703125 -20.203125 C -0.703125 -19.96875 -0.703125 -19.734375 -0.625 -19.65625 C -0.3125 -18.953125 0.15625 -18.640625 0.859375 -18.640625 C 1.636719 -18.640625 7.800781 -21.527344 8.65625 -21.917969 C 8.65625 -15.054688 8.734375 -8.269531 9.28125 -1.402344 C 9.359375 -0.546875 9.984375 0 10.84375 0 Z M 11.855469 -27.066406 C 12.089844 -35.722656 12.636719 -44.226562 13.570312 -52.882812 C 14.742188 -52.960938 15.757812 -53.039062 16.769531 -53.039062 C 25.585938 -53.039062 30.1875 -49.996094 30.1875 -45.550781 C 30.1875 -40.558594 24.335938 -33.695312 11.855469 -27.066406 Z M 11.855469 -27.066406 "/></g></g></g><g fill="#000000" fill-opacity="1"><g transform="translate(610.247377, 459.43529)"><g><path d="M 8.191406 -10.375 C 13.261719 -10.375 19.5 -13.261719 25.351562 -22.855469 C 25.507812 -23.089844 25.585938 -23.320312 25.585938 -23.632812 C 25.585938 -24.335938 25.351562 -24.726562 24.804688 -24.960938 C 24.570312 -25.117188 24.257812 -25.195312 24.023438 -25.195312 C 23.476562 -25.195312 23.011719 -24.960938 22.699219 -24.492188 C 19.96875 -19.890625 17.003906 -16.847656 13.882812 -15.054688 C 12.089844 -14.117188 9.984375 -13.492188 7.878906 -13.492188 C 4.992188 -13.492188 2.496094 -14.742188 2.496094 -18.097656 C 2.496094 -18.484375 2.574219 -18.875 2.652344 -19.421875 C 7.878906 -19.8125 14.039062 -23.632812 14.039062 -27.769531 C 14.039062 -30.03125 12.324219 -31.824219 9.828125 -31.824219 C 8.269531 -31.824219 6.394531 -31.121094 4.445312 -29.25 C 1.402344 -26.363281 -0.546875 -21.917969 -0.546875 -18.097656 C -0.546875 -13.960938 1.871094 -10.375 8.191406 -10.375 Z M 3.742188 -22.777344 C 5.851562 -27.144531 8.425781 -28.703125 9.90625 -28.703125 C 10.453125 -28.703125 10.765625 -28.546875 10.84375 -28.15625 C 11.230469 -26.363281 7.566406 -23.398438 3.742188 -22.777344 Z M 3.742188 -22.777344 "/></g></g></g><g fill="#000000" fill-opacity="1"><g transform="translate(631.931327, 459.43529)"><g><path d="M 7.097656 -10.375 C 11.933594 -10.375 17.238281 -18.71875 19.5 -22.855469 C 19.578125 -23.011719 19.65625 -23.242188 19.65625 -23.632812 C 19.65625 -24.257812 19.421875 -24.726562 18.875 -25.039062 C 18.5625 -25.117188 18.328125 -25.195312 18.175781 -25.195312 C 17.550781 -25.195312 17.082031 -24.882812 16.769531 -24.335938 C 13.882812 -19.1875 9.515625 -13.492188 7.175781 -13.492188 C 6.941406 -13.492188 6.785156 -13.570312 6.550781 -13.648438 C 5.539062 -14.273438 3.898438 -15.210938 3.898438 -22.386719 C 3.898438 -28.859375 5.226562 -39.078125 8.269531 -54.054688 C 8.425781 -55.066406 8.035156 -55.691406 7.019531 -55.925781 C 6.160156 -56.160156 5.460938 -55.535156 5.226562 -54.679688 C 3.355469 -45.238281 0.78125 -32.449219 0.78125 -23.089844 C 0.78125 -15.679688 2.339844 -10.375 7.097656 -10.375 Z M 7.097656 -10.375 "/></g></g></g><g fill="#000000" fill-opacity="1"><g transform="translate(647.843399, 459.43529)"><g><path d="M 12.402344 -14.585938 C 13.570312 -16.691406 14.273438 -19.109375 14.273438 -21.527344 C 15.132812 -21.371094 15.988281 -21.292969 17.003906 -21.292969 C 18.796875 -21.292969 20.746094 -21.605469 22.855469 -22.152344 C 23.632812 -22.386719 24.023438 -22.933594 24.023438 -23.789062 L 24.023438 -24.101562 C 23.789062 -24.726562 23.164062 -25.273438 22.464844 -25.273438 C 22.230469 -25.273438 22.308594 -25.195312 22.074219 -25.195312 C 20.28125 -24.648438 18.640625 -24.414062 17.082031 -24.414062 C 15.835938 -24.414062 14.742188 -24.648438 13.804688 -24.882812 C 13.183594 -27.691406 10.609375 -31.902344 7.644531 -31.511719 C 7.410156 -31.667969 7.097656 -31.746094 6.785156 -31.746094 C 6.394531 -31.746094 6.007812 -31.667969 5.773438 -31.433594 C 3.511719 -29.484375 1.792969 -26.988281 0.9375 -23.945312 C 0.390625 -22.230469 0.15625 -20.59375 0.15625 -19.03125 C 0.15625 -13.726562 3.121094 -10.375 6.472656 -10.375 C 8.578125 -10.375 10.609375 -11.699219 12.402344 -14.585938 Z M 9.671875 -16.222656 C 8.503906 -14.351562 7.410156 -13.414062 6.394531 -13.414062 C 4.601562 -13.414062 3.355469 -15.988281 3.355469 -19.34375 C 3.355469 -21.839844 4.132812 -24.804688 6.085938 -27.300781 C 6.785156 -25.507812 8.503906 -23.710938 11.074219 -22.542969 C 11.074219 -22.230469 11.152344 -21.917969 11.152344 -21.527344 C 11.152344 -19.578125 10.53125 -17.707031 9.671875 -16.222656 Z M 9.671875 -16.222656 "/></g></g></g><g fill="#000000" fill-opacity="1"><g transform="translate(668.357422, 459.43529)"><g><path d="M -2.105469 -11.621094 C -2.261719 -11.230469 -2.339844 -10.84375 -2.339844 -10.453125 C -2.339844 -8.503906 -0.625 -7.332031 1.324219 -7.332031 C 3.898438 -7.332031 6.863281 -9.28125 6.863281 -14.507812 L 6.863281 -15.132812 C 6.863281 -15.367188 6.863281 -15.601562 6.785156 -15.835938 C 10.453125 -18.5625 14.117188 -20.824219 18.484375 -22.308594 C 19.1875 -22.542969 19.578125 -23.089844 19.578125 -23.789062 C 19.578125 -24.023438 19.578125 -24.257812 19.5 -24.335938 C 19.265625 -24.960938 18.71875 -25.351562 18.097656 -25.351562 C 17.863281 -25.351562 17.628906 -25.351562 17.550781 -25.273438 C 13.261719 -23.789062 9.671875 -21.683594 6.160156 -19.1875 C 5.539062 -21.683594 3.664062 -25.660156 3.664062 -28.390625 C 3.664062 -29.328125 3.898438 -30.03125 4.289062 -30.421875 C 4.523438 -30.652344 4.992188 -31.199219 5.851562 -31.199219 C 6.394531 -31.199219 7.019531 -31.042969 7.722656 -30.652344 C 8.035156 -30.574219 8.269531 -30.496094 8.425781 -30.496094 C 8.96875 -30.496094 9.4375 -30.730469 9.828125 -31.277344 C 9.984375 -31.511719 10.0625 -31.746094 10.0625 -32.058594 C 10.0625 -32.683594 9.75 -33.148438 9.203125 -33.382812 C 8.113281 -34.007812 7.019531 -34.320312 5.851562 -34.320312 C 2.964844 -34.320312 0.546875 -32.136719 0.546875 -28.15625 C 0.546875 -27.613281 0.625 -27.144531 0.703125 -26.519531 C 1.324219 -23.011719 2.808594 -20.671875 3.511719 -17.160156 C -0.46875 -14.117188 -1.558594 -13.105469 -2.105469 -11.621094 Z M 0.78125 -10.53125 C 1.015625 -11.074219 1.871094 -11.855469 3.664062 -13.339844 C 3.277344 -10.453125 1.324219 -10.140625 0.78125 -10.53125 Z M 0.78125 -10.53125 "/></g></g></g></svg>